<svg width="1404" height="851" viewBox="0 0 1404 851" fill="none" xmlns="http://www.w3.org/2000/svg">
<path d="M1241.21 303.453L1369.14 326.011L1285.64 425.523L1241.21 303.453Z" fill="#8DBFA7"/>
<path d="M21.4167 572.442L20.4462 570.763L20.858 570.525L20.7852 570.399L20.9307 570.399L20.9304 569.924L22.8693 569.922L22.8696 570.398L24.8085 570.397L24.8082 569.921L26.7471 569.92L26.7474 570.396L28.6863 570.394L28.686 569.919L30.6249 569.917L30.6252 570.393L32.5641 570.392L32.5638 569.916L34.5027 569.915L34.503 570.391L36.4419 570.39L36.4416 569.914L38.3805 569.913L38.3808 570.388L40.3198 570.387L40.3195 569.911L42.2584 569.91L42.2587 570.386L44.1976 570.385L44.1973 569.909L46.1362 569.908L46.1365 570.384L48.0754 570.382L48.0751 569.907L50.014 569.905L50.0143 570.381L51.9532 570.38L51.9529 569.904L53.8918 569.903L53.8921 570.379L55.831 570.378L55.8307 569.902L57.7696 569.901L57.7699 570.376L59.7088 570.375L59.7085 569.899L61.6474 569.898L61.6477 570.374L63.5867 570.373L63.5864 569.897L65.5253 569.896L65.5256 570.371L67.4645 570.37L67.4642 569.894L69.4031 569.893L69.4034 570.369L71.3423 570.368L71.342 569.892L73.2809 569.891L73.2812 570.367L75.2201 570.365L75.2198 569.89L77.1587 569.888L77.159 570.364L79.0979 570.363L79.0976 569.887L81.0365 569.886L81.0368 570.362L82.9757 570.361L82.9754 569.885L84.9144 569.884L84.9147 570.359L85.0601 570.359L84.9875 570.485L85.3996 570.723L84.4312 572.403L84.019 572.165L83.0506 573.845L83.4628 574.082L82.4944 575.762L82.0822 575.524L81.1138 577.204L81.526 577.442L80.5576 579.122L80.1454 578.884L79.177 580.564L79.5892 580.801L78.6208 582.481L78.2086 582.243L77.2402 583.923L77.6524 584.161L76.684 585.841L76.2718 585.603L75.3034 587.283L75.7155 587.52L74.7471 589.2L74.335 588.962L73.3666 590.642L73.7787 590.88L72.8103 592.56L72.3982 592.322L71.4297 594.002L71.8419 594.239L70.8735 595.919L70.4613 595.681L69.4929 597.361L69.9051 597.599L68.9367 599.279L68.5245 599.041L67.5561 600.721L67.9683 600.958L66.9999 602.638L66.5877 602.4L65.6193 604.08L66.0315 604.318L65.0631 605.998L64.6509 605.76L63.6825 607.44L64.0947 607.677L63.1263 609.357L62.7141 609.119L61.7457 610.799L62.1578 611.037L61.1894 612.717L60.7773 612.479L59.8089 614.159L60.221 614.396L59.2526 616.076L58.8405 615.838L57.8721 617.518L58.2842 617.756L57.3158 619.436L56.9036 619.198L55.9352 620.878L56.3474 621.115L55.379 622.795L54.9668 622.557L53.9984 624.237L54.4106 624.475L53.4422 626.155L53.03 625.917L52.9574 626.043L52.8846 625.917L52.4727 626.155L51.5022 624.477L51.9141 624.239L50.9436 622.56L50.5317 622.798L49.5612 621.12L49.9731 620.881L49.0026 619.203L48.5907 619.441L47.6202 617.762L48.0321 617.524L47.0616 615.846L46.6497 616.084L45.6792 614.405L46.0911 614.167L45.1206 612.489L44.7087 612.727L43.7382 611.048L44.1501 610.81L43.1796 609.132L42.7677 609.37L41.7972 607.691L42.2091 607.453L41.2386 605.775L40.8267 606.013L39.8562 604.334L40.2681 604.096L39.2976 602.418L38.8857 602.656L37.9152 600.977L38.3271 600.739L37.3566 599.06L36.9447 599.299L35.9742 597.62L36.3861 597.382L35.4156 595.703L35.0037 595.941L34.0332 594.263L34.4451 594.025L33.4746 592.346L33.0627 592.584L32.0922 590.906L32.5041 590.668L31.5336 588.989L31.1217 589.227L30.1512 587.549L30.563 587.311L29.5925 585.632L29.1807 585.87L28.2102 584.192L28.622 583.954L27.6515 582.275L27.2397 582.513L26.2692 580.835L26.681 580.597L25.7105 578.918L25.2987 579.156L24.3282 577.478L24.74 577.239L23.7695 575.561L23.3577 575.799L22.3872 574.12L22.799 573.882L21.8285 572.204L21.4167 572.442Z" stroke="#5960B2" stroke-width="0.951515" stroke-dasharray="1.9 1.9"/>
<path d="M31.2365 578.094L30.2714 576.425L30.6833 576.187L30.6132 576.066L30.7532 576.065L30.7529 575.59L32.6809 575.589L32.6812 576.064L34.6093 576.063L34.609 575.587L36.5371 575.586L36.5374 576.062L38.4654 576.061L38.4651 575.585L40.3932 575.584L40.3935 576.059L42.3215 576.058L42.3212 575.582L44.2493 575.581L44.2496 576.057L46.1776 576.056L46.1773 575.58L48.1054 575.579L48.1057 576.055L50.0338 576.053L50.0335 575.578L51.9615 575.576L51.9618 576.052L53.8899 576.051L53.8896 575.575L55.8176 575.574L55.8179 576.05L57.746 576.049L57.7457 575.573L59.6738 575.572L59.6741 576.047L61.6021 576.046L61.6018 575.57L63.5299 575.569L63.5302 576.045L65.4582 576.044L65.4579 575.568L67.386 575.567L67.3863 576.043L69.3143 576.041L69.314 575.566L71.2421 575.564L71.2424 576.04L73.1705 576.039L73.1702 575.563L75.0982 575.562L75.0985 576.038L75.2385 576.038L75.1686 576.159L75.5808 576.397L74.6178 578.067L74.2056 577.829L73.2426 579.5L73.6548 579.737L72.6918 581.408L72.2796 581.17L71.3166 582.84L71.7288 583.078L70.7658 584.748L70.3537 584.511L69.3907 586.181L69.8028 586.419L68.8398 588.089L68.4277 587.851L67.4647 589.522L67.8769 589.759L66.9139 591.43L66.5017 591.192L65.5387 592.862L65.9509 593.1L64.9879 594.77L64.5757 594.533L63.6127 596.203L64.0249 596.441L63.0619 598.111L62.6498 597.874L61.6868 599.544L62.0989 599.781L61.1359 601.452L60.7238 601.214L59.7608 602.885L60.173 603.122L59.21 604.793L58.7978 604.555L57.8348 606.225L58.247 606.463L57.284 608.133L56.8718 607.896L55.9088 609.566L56.321 609.804L55.358 611.474L54.9459 611.236L53.9829 612.907L54.395 613.144L53.4321 614.815L53.0199 614.577L52.95 614.698L52.8799 614.577L52.468 614.815L51.503 613.146L51.9148 612.908L50.9498 611.239L50.5379 611.477L49.5728 609.808L49.9847 609.57L49.0196 607.901L48.6077 608.139L47.6427 606.47L48.0545 606.231L47.0895 604.562L46.6776 604.8L45.7125 603.131L46.1244 602.893L45.1593 601.224L44.7475 601.462L43.7824 599.793L44.1943 599.555L43.2292 597.886L42.8173 598.124L41.8522 596.455L42.2641 596.217L41.299 594.547L40.8872 594.785L39.9221 593.116L40.334 592.878L39.3689 591.209L38.957 591.447L37.992 589.778L38.4038 589.54L37.4388 587.871L37.0269 588.109L36.0618 586.44L36.4737 586.202L35.5086 584.532L35.0967 584.771L34.1317 583.101L34.5435 582.863L33.5785 581.194L33.1666 581.432L32.2015 579.763L32.6134 579.525L31.6483 577.856L31.2365 578.094Z" stroke="#5960B2" stroke-width="0.951515" stroke-dasharray="1.9 1.9"/>
<path d="M42.9061 584.806L41.9502 583.153L42.3621 582.915L42.2966 582.801L42.4274 582.801L42.4271 582.326L44.3368 582.324L44.3371 582.8L46.2467 582.799L46.2464 582.323L48.156 582.322L48.1563 582.798L50.066 582.797L50.0657 582.321L51.9753 582.32L51.9756 582.795L53.8853 582.794L53.885 582.318L55.7946 582.317L55.7949 582.793L57.7046 582.792L57.7043 582.316L59.6139 582.315L59.6142 582.791L61.5238 582.789L61.5235 582.314L63.4332 582.312L63.4335 582.788L63.5643 582.788L63.4989 582.901L63.9111 583.139L62.9573 584.793L62.5452 584.556L61.5914 586.21L62.0035 586.448L61.0497 588.102L60.6376 587.865L59.6838 589.519L60.096 589.757L59.1422 591.411L58.73 591.173L57.7762 592.828L58.1884 593.065L57.2346 594.72L56.8224 594.482L55.8686 596.137L56.2808 596.374L55.327 598.029L54.9148 597.791L53.9611 599.445L54.3732 599.683L53.4194 601.337L53.0073 601.1L52.9419 601.213L52.8765 601.1L52.4646 601.338L51.5088 599.685L51.9206 599.447L50.9648 597.793L50.5529 598.032L49.5971 596.378L50.0089 596.14L49.0531 594.487L48.6412 594.725L47.6853 593.072L48.0972 592.834L47.1414 591.181L46.7295 591.419L45.7736 589.766L46.1855 589.527L45.2297 587.874L44.8178 588.112L43.8619 586.459L44.2738 586.221L43.3179 584.568L42.9061 584.806Z" stroke="#5960B2" stroke-width="0.951515" stroke-dasharray="1.9 1.9"/>
<path d="M46.6668 585.321L59.1966 585.313L52.9385 596.168L46.6668 585.321Z" fill="#5960B2"/>
<path d="M26.3017 575.198L25.3665 573.58L25.7784 573.342L25.7233 573.247L25.8334 573.247L25.8331 572.771L27.7014 572.77L27.7017 573.246L29.57 573.245L29.5697 572.769L31.438 572.768L31.4383 573.243L33.3067 573.242L33.3064 572.767L35.1747 572.765L35.175 573.241L37.0433 573.24L37.043 572.764L38.9113 572.763L38.9116 573.239L40.7799 573.238L40.7796 572.762L42.648 572.761L42.6483 573.236L44.5166 573.235L44.5163 572.76L46.3846 572.758L46.3849 573.234L48.2532 573.233L48.2529 572.757L50.1212 572.756L50.1215 573.232L51.9899 573.231L51.9896 572.755L53.8579 572.754L53.8582 573.229L55.7265 573.228L55.7262 572.753L57.5945 572.751L57.5948 573.227L59.4631 573.226L59.4628 572.75L61.3312 572.749L61.3315 573.225L63.1998 573.224L63.1995 572.748L65.0678 572.747L65.0681 573.222L66.9364 573.221L66.9361 572.746L68.8044 572.744L68.8047 573.22L70.673 573.219L70.6727 572.743L72.5411 572.742L72.5414 573.218L74.4097 573.217L74.4094 572.741L76.2777 572.74L76.278 573.215L78.1463 573.214L78.146 572.739L80.0143 572.737L80.0146 573.213L80.1248 573.213L80.0698 573.308L80.4819 573.546L79.5488 575.165L79.1366 574.927L78.2035 576.546L78.6156 576.783L77.6825 578.402L77.2703 578.164L76.3372 579.783L76.7493 580.02L75.8162 581.639L75.404 581.401L74.4709 583.02L74.883 583.258L73.9499 584.876L73.5377 584.639L72.6046 586.257L73.0167 586.495L72.0836 588.113L71.6714 587.876L70.7383 589.494L71.1504 589.732L70.2173 591.351L69.8051 591.113L68.872 592.732L69.2841 592.969L68.351 594.588L67.9388 594.35L67.0057 595.969L67.4178 596.206L66.4847 597.825L66.0725 597.587L65.1394 599.206L65.5515 599.444L64.6184 601.062L64.2062 600.825L63.2731 602.443L63.6852 602.681L62.7521 604.299L62.3399 604.062L61.4068 605.68L61.8189 605.918L60.8858 607.537L60.4736 607.299L59.5405 608.918L59.9526 609.155L59.0195 610.774L58.6073 610.536L57.6742 612.155L58.0863 612.392L57.1532 614.011L56.741 613.773L55.8079 615.392L56.22 615.63L55.2869 617.248L54.8747 617.011L53.9416 618.629L54.3537 618.867L53.4206 620.485L53.0084 620.248L52.9534 620.343L52.8983 620.248L52.4864 620.486L51.5513 618.868L51.9631 618.63L51.028 617.013L50.6161 617.251L49.6809 615.634L50.0928 615.395L49.1576 613.778L48.7458 614.016L47.8106 612.399L48.2225 612.161L47.2873 610.543L46.8754 610.781L45.9403 609.164L46.3521 608.926L45.417 607.308L45.0051 607.546L44.0699 605.929L44.4818 605.691L43.5466 604.073L43.1347 604.312L42.1996 602.694L42.6114 602.456L41.6763 600.839L41.2644 601.077L40.3292 599.459L40.7411 599.221L39.8059 597.604L39.3941 597.842L38.4589 596.224L38.8708 595.986L37.9356 594.369L37.5237 594.607L36.5886 592.99L37.0004 592.751L36.0653 591.134L35.6534 591.372L34.7182 589.755L35.1301 589.517L34.1949 587.899L33.7831 588.137L32.8479 586.52L33.2598 586.282L32.3246 584.664L31.9127 584.902L30.9775 583.285L31.3894 583.047L30.4542 581.429L30.0424 581.668L29.1072 580.05L29.5191 579.812L28.5839 578.195L28.172 578.433L27.2369 576.815L27.6487 576.577L26.7136 574.96L26.3017 575.198Z" stroke="#5960B2" stroke-width="0.951515" stroke-dasharray="1.9 1.9"/>
<path d="M36.7297 581.292L35.7468 579.592L36.1587 579.354L36.0797 579.217L36.2375 579.217L36.2372 578.741L38.2009 578.74L38.2012 579.216L40.1648 579.214L40.1645 578.739L42.1282 578.737L42.1285 579.213L44.0921 579.212L44.0918 578.736L46.0555 578.735L46.0558 579.211L48.0194 579.209L48.0191 578.734L49.9828 578.732L49.9831 579.208L51.9467 579.207L51.9464 578.731L53.9101 578.73L53.9104 579.206L55.874 579.205L55.8737 578.729L57.8374 578.728L57.8377 579.203L59.8013 579.202L59.801 578.726L61.7647 578.725L61.765 579.201L63.7286 579.2L63.7283 578.724L65.692 578.723L65.6923 579.198L67.6559 579.197L67.6556 578.721L69.6193 578.72L69.6196 579.196L69.7774 579.196L69.6986 579.333L70.1107 579.57L69.13 581.271L68.7178 581.034L67.737 582.735L68.1492 582.973L67.1684 584.674L66.7563 584.436L65.7755 586.137L66.1877 586.375L65.2069 588.076L64.7947 587.839L63.814 589.54L64.2261 589.777L63.2454 591.478L62.8332 591.241L61.8524 592.942L62.2646 593.18L61.2838 594.881L60.8717 594.643L59.8909 596.344L60.3031 596.582L59.3223 598.283L58.9101 598.046L57.9294 599.747L58.3416 599.984L57.3608 601.686L56.9486 601.448L55.9679 603.149L56.38 603.387L55.3993 605.088L54.9871 604.85L54.0063 606.552L54.4185 606.789L53.4377 608.49L53.0256 608.253L52.9468 608.389L52.8678 608.253L52.4559 608.491L51.473 606.791L51.8849 606.553L50.902 604.853L50.4901 605.091L49.5072 603.391L49.9191 603.153L48.9362 601.453L48.5244 601.691L47.5415 599.991L47.9533 599.753L46.9705 598.053L46.5586 598.291L45.5757 596.591L45.9876 596.353L45.0047 594.653L44.5928 594.891L43.6099 593.191L44.0218 592.953L43.0389 591.253L42.627 591.491L41.6442 589.791L42.056 589.553L41.0731 587.853L40.6613 588.091L39.6784 586.391L40.0902 586.153L39.1074 584.453L38.6955 584.692L37.7126 582.992L38.1245 582.753L37.1416 581.053L36.7297 581.292Z" stroke="#5960B2" stroke-width="0.951515" stroke-dasharray="1.9 1.9"/>
<path d="M670.389 388.672L672.989 389.044L672.898 389.682L673.093 389.71L672.971 389.865L673.478 390.263L671.856 392.329L671.349 391.931L669.727 393.997L670.234 394.395L668.612 396.462L668.105 396.064L666.483 398.13L666.99 398.528L665.368 400.594L664.861 400.196L663.239 402.262L663.746 402.66L662.124 404.726L661.617 404.328L659.995 406.395L660.502 406.793L658.88 408.859L658.373 408.461L656.751 410.527L657.258 410.925L655.636 412.991L655.129 412.593L653.507 414.659L654.014 415.057L652.392 417.124L651.885 416.726L650.263 418.792L650.77 419.19L649.148 421.256L648.641 420.858L647.019 422.924L647.526 423.322L645.903 425.388L645.397 424.99L643.774 427.057L644.281 427.455L642.659 429.521L642.152 429.123L640.53 431.189L641.037 431.587L639.415 433.653L638.908 433.255L637.286 435.321L637.793 435.719L636.171 437.786L635.664 437.388L634.042 439.454L634.549 439.852L632.927 441.918L632.42 441.52L630.798 443.586L631.305 443.984L629.683 446.05L629.176 445.652L627.554 447.719L628.061 448.117L626.439 450.183L625.932 449.785L624.31 451.851L624.817 452.249L623.195 454.315L622.688 453.917L621.066 455.983L621.573 456.381L619.951 458.448L619.444 458.05L619.322 458.205L619.249 458.022L618.651 458.262L617.672 455.824L618.27 455.584L617.292 453.146L616.694 453.386L615.716 450.948L616.314 450.708L615.335 448.27L614.737 448.51L613.759 446.073L614.357 445.833L613.379 443.395L612.78 443.635L611.802 441.197L612.4 440.957L611.422 438.519L610.824 438.759L609.845 436.321L610.444 436.081L609.465 433.643L608.867 433.884L607.889 431.446L608.487 431.206L607.508 428.768L606.91 429.008L605.932 426.57L606.53 426.33L605.552 423.892L604.954 424.132L603.975 421.694L604.573 421.454L603.595 419.016L602.997 419.257L602.018 416.819L602.617 416.579L601.638 414.141L601.04 414.381L600.062 411.943L600.66 411.703L599.682 409.265L599.083 409.505L598.105 407.067L598.703 406.827L597.725 404.39L597.127 404.63L596.148 402.192L596.746 401.952L595.768 399.514L595.17 399.754L594.192 397.316L594.79 397.076L593.811 394.638L593.213 394.878L592.235 392.44L592.833 392.2L591.855 389.763L591.256 390.003L590.278 387.565L590.876 387.325L589.898 384.887L589.3 385.127L588.321 382.689L588.92 382.449L587.941 380.011L587.343 380.251L586.365 377.813L586.963 377.573L586.889 377.391L587.084 377.418L587.176 376.78L589.776 377.152L589.685 377.79L592.285 378.162L592.376 377.524L594.977 377.895L594.886 378.533L597.486 378.905L597.577 378.267L600.178 378.638L600.087 379.277L602.687 379.648L602.778 379.01L605.379 379.382L605.287 380.02L607.888 380.391L607.979 379.753L610.579 380.125L610.488 380.763L613.089 381.135L613.18 380.497L615.78 380.868L615.689 381.506L618.289 381.878L618.381 381.24L620.981 381.611L620.89 382.25L623.49 382.621L623.581 381.983L626.182 382.355L626.091 382.993L628.691 383.364L628.782 382.726L631.383 383.098L631.291 383.736L633.892 384.108L633.983 383.47L636.583 383.841L636.492 384.479L639.093 384.851L639.184 384.213L641.784 384.585L641.693 385.223L644.293 385.594L644.385 384.956L646.985 385.328L646.894 385.966L649.494 386.337L649.585 385.699L652.186 386.071L652.095 386.709L654.695 387.081L654.786 386.443L657.387 386.814L657.295 387.452L659.896 387.824L659.987 387.186L662.587 387.558L662.496 388.196L665.097 388.567L665.188 387.929L667.788 388.301L667.697 388.939L670.297 389.31L670.389 388.672Z" stroke="#5CA380" stroke-width="1.28911" stroke-dasharray="2.58 2.58"/>
<path d="M656.147 394.399L658.733 394.769L658.642 395.407L658.83 395.434L658.713 395.583L659.22 395.981L657.607 398.036L657.1 397.638L655.487 399.692L655.994 400.09L654.381 402.145L653.874 401.747L652.261 403.802L652.768 404.2L651.155 406.254L650.648 405.856L649.035 407.911L649.542 408.309L647.929 410.364L647.422 409.966L645.809 412.02L646.316 412.418L644.703 414.473L644.196 414.075L642.583 416.129L643.09 416.527L641.477 418.582L640.97 418.184L639.357 420.239L639.864 420.637L638.251 422.691L637.744 422.293L636.131 424.348L636.638 424.746L635.025 426.801L634.518 426.403L632.905 428.457L633.412 428.855L631.799 430.91L631.292 430.512L629.679 432.567L630.186 432.965L628.573 435.019L628.066 434.621L626.453 436.676L626.96 437.074L625.347 439.129L624.84 438.731L623.228 440.785L623.735 441.183L622.122 443.238L621.615 442.84L621.497 442.989L621.427 442.813L620.829 443.053L619.856 440.629L620.454 440.389L619.481 437.965L618.883 438.205L617.91 435.78L618.508 435.54L617.535 433.116L616.937 433.356L615.964 430.932L616.562 430.692L615.589 428.268L614.991 428.508L614.018 426.084L614.617 425.844L613.644 423.419L613.046 423.66L612.073 421.235L612.671 420.995L611.698 418.571L611.1 418.811L610.127 416.387L610.725 416.147L609.752 413.723L609.154 413.963L608.181 411.539L608.779 411.299L607.806 408.874L607.208 409.114L606.235 406.69L606.833 406.45L605.861 404.026L605.262 404.266L604.29 401.842L604.888 401.602L603.915 399.178L603.317 399.418L602.344 396.993L602.942 396.753L601.969 394.329L601.371 394.569L600.398 392.145L600.996 391.905L600.023 389.481L599.425 389.721L598.452 387.297L599.05 387.057L598.98 386.881L599.167 386.908L599.259 386.269L601.845 386.639L601.753 387.277L604.339 387.647L604.43 387.009L607.016 387.378L606.925 388.016L609.511 388.386L609.602 387.748L612.188 388.117L612.097 388.755L614.683 389.125L614.774 388.487L617.36 388.856L617.268 389.494L619.854 389.864L619.945 389.226L622.531 389.595L622.44 390.233L625.026 390.603L625.117 389.965L627.703 390.334L627.612 390.973L630.198 391.342L630.289 390.704L632.875 391.074L632.784 391.712L635.369 392.081L635.461 391.443L638.046 391.813L637.955 392.451L640.541 392.82L640.632 392.182L643.218 392.552L643.127 393.19L645.713 393.559L645.804 392.921L648.39 393.291L648.299 393.929L650.884 394.298L650.976 393.66L653.562 394.03L653.47 394.668L656.056 395.038L656.147 394.399Z" stroke="#5CA380" stroke-width="1.28911" stroke-dasharray="2.58 2.58"/>
<path d="M639.228 401.21L641.789 401.576L641.698 402.214L641.874 402.239L641.764 402.378L642.271 402.776L640.674 404.811L640.167 404.413L638.569 406.448L639.076 406.846L637.479 408.881L636.972 408.483L635.374 410.518L635.881 410.916L634.283 412.951L633.776 412.553L632.179 414.588L632.686 414.986L631.088 417.021L630.581 416.623L628.984 418.658L629.491 419.056L627.893 421.091L627.386 420.693L625.789 422.728L626.296 423.126L624.698 425.162L624.191 424.763L624.082 424.903L624.016 424.738L623.418 424.978L622.454 422.577L623.052 422.337L622.089 419.936L621.49 420.176L620.527 417.775L621.125 417.535L620.161 415.134L619.563 415.374L618.6 412.973L619.198 412.733L618.234 410.332L617.636 410.572L616.672 408.171L617.271 407.931L616.307 405.53L615.709 405.77L614.745 403.369L615.343 403.129L614.38 400.728L613.782 400.968L612.818 398.567L613.416 398.327L613.35 398.163L613.526 398.188L613.617 397.55L616.178 397.916L616.087 398.554L618.648 398.92L618.739 398.282L621.3 398.648L621.209 399.286L623.77 399.652L623.861 399.014L626.423 399.38L626.331 400.018L628.893 400.384L628.984 399.746L631.545 400.112L631.454 400.75L634.015 401.116L634.106 400.478L636.667 400.844L636.576 401.482L639.137 401.848L639.228 401.21Z" stroke="#5CA380" stroke-width="1.28911" stroke-dasharray="2.58 2.58"/>
<path d="M635.531 404.784L625.049 418.136L618.726 402.382L635.531 404.784Z" fill="#5CA380"/>
<path d="M663.364 391.568L665.87 391.926L665.779 392.564L665.926 392.585L665.834 392.703L666.341 393.101L664.778 395.092L664.271 394.694L662.708 396.685L663.215 397.083L661.652 399.074L661.145 398.676L659.582 400.666L660.089 401.064L658.526 403.055L658.019 402.657L656.456 404.648L656.963 405.046L655.4 407.037L654.893 406.639L653.33 408.63L653.837 409.028L652.274 411.019L651.767 410.621L650.204 412.612L650.711 413.01L649.148 415.001L648.641 414.603L647.078 416.594L647.585 416.992L646.022 418.983L645.515 418.585L643.952 420.576L644.459 420.974L642.896 422.965L642.39 422.567L640.827 424.558L641.334 424.956L639.771 426.947L639.264 426.549L637.701 428.54L638.208 428.938L636.645 430.929L636.138 430.531L634.575 432.522L635.082 432.92L633.519 434.911L633.012 434.513L631.449 436.504L631.956 436.902L630.393 438.893L629.886 438.495L628.323 440.486L628.83 440.884L627.267 442.875L626.76 442.477L625.197 444.468L625.704 444.866L624.141 446.857L623.634 446.459L622.071 448.45L622.578 448.848L621.015 450.839L620.508 450.441L620.416 450.558L620.36 450.42L619.762 450.66L618.819 448.311L619.417 448.071L618.475 445.722L617.876 445.962L616.934 443.613L617.532 443.373L616.589 441.024L615.991 441.264L615.048 438.915L615.646 438.674L614.704 436.325L614.105 436.565L613.163 434.216L613.761 433.976L612.818 431.627L612.22 431.867L611.277 429.518L611.875 429.278L610.933 426.929L610.334 427.169L609.392 424.82L609.99 424.58L609.047 422.231L608.449 422.471L607.506 420.122L608.104 419.882L607.162 417.533L606.563 417.773L605.621 415.424L606.219 415.184L605.276 412.835L604.678 413.075L603.735 410.726L604.333 410.486L603.391 408.137L602.792 408.377L601.85 406.028L602.448 405.787L601.505 403.438L600.907 403.678L599.964 401.329L600.562 401.089L599.62 398.74L599.021 398.98L598.079 396.631L598.677 396.391L597.734 394.042L597.136 394.282L596.193 391.933L596.791 391.693L595.849 389.344L595.25 389.584L594.308 387.235L594.906 386.995L593.963 384.646L593.365 384.886L592.422 382.537L593.02 382.297L592.965 382.158L593.113 382.179L593.204 381.541L595.709 381.899L595.618 382.537L598.124 382.896L598.215 382.257L600.721 382.616L600.63 383.254L603.135 383.612L603.227 382.974L605.732 383.332L605.641 383.97L608.147 384.328L608.238 383.69L610.744 384.048L610.653 384.686L613.158 385.044L613.25 384.406L615.755 384.764L615.664 385.402L618.17 385.76L618.261 385.122L620.767 385.48L620.676 386.118L623.181 386.476L623.272 385.838L625.778 386.197L625.687 386.835L628.193 387.193L628.284 386.555L630.79 386.913L630.698 387.551L633.204 387.909L633.295 387.271L635.801 387.629L635.71 388.267L638.216 388.625L638.307 387.987L640.813 388.345L640.721 388.983L643.227 389.341L643.318 388.703L645.824 389.061L645.733 389.699L648.239 390.057L648.33 389.419L650.836 389.777L650.744 390.416L653.25 390.774L653.341 390.136L655.847 390.494L655.756 391.132L658.262 391.49L658.353 390.852L660.858 391.21L660.767 391.848L663.273 392.206L663.364 391.568Z" stroke="#5CA380" stroke-width="1.28911" stroke-dasharray="2.58 2.58"/>
<path d="M648.143 397.573L650.776 397.95L650.685 398.588L650.897 398.618L650.765 398.786L651.272 399.184L649.629 401.277L649.122 400.879L647.479 402.971L647.986 403.369L646.344 405.462L645.837 405.064L644.194 407.156L644.701 407.554L643.058 409.647L642.551 409.249L640.908 411.342L641.415 411.74L639.773 413.832L639.266 413.434L637.623 415.527L638.13 415.925L636.487 418.017L635.98 417.619L634.337 419.712L634.844 420.11L633.202 422.202L632.695 421.804L631.052 423.897L631.559 424.295L629.916 426.388L629.409 425.99L627.766 428.082L628.273 428.48L626.631 430.573L626.124 430.175L624.481 432.267L624.988 432.665L623.345 434.758L622.838 434.36L622.706 434.528L622.627 434.33L622.028 434.57L621.038 432.101L621.636 431.861L620.645 429.392L620.047 429.632L619.056 427.163L619.654 426.923L618.663 424.454L618.065 424.694L617.074 422.225L617.672 421.985L616.681 419.516L616.083 419.756L615.092 417.287L615.691 417.047L614.7 414.578L614.102 414.818L613.111 412.349L613.709 412.109L612.718 409.64L612.12 409.88L611.129 407.411L611.727 407.171L610.736 404.702L610.138 404.942L609.147 402.474L609.746 402.233L608.755 399.765L608.157 400.005L607.166 397.536L607.764 397.296L606.773 394.827L606.175 395.067L605.184 392.598L605.782 392.358L605.703 392.159L605.914 392.19L606.005 391.551L608.639 391.928L608.548 392.566L611.181 392.942L611.273 392.304L613.906 392.681L613.815 393.319L616.449 393.695L616.54 393.057L619.173 393.433L619.082 394.071L621.716 394.448L621.807 393.81L624.44 394.186L624.349 394.824L626.983 395.2L627.074 394.562L629.708 394.939L629.616 395.577L632.25 395.953L632.341 395.315L634.975 395.692L634.884 396.33L637.517 396.706L637.608 396.068L640.242 396.444L640.151 397.082L642.784 397.459L642.876 396.821L645.509 397.197L645.418 397.835L648.052 398.211L648.143 397.573Z" stroke="#5CA380" stroke-width="1.28911" stroke-dasharray="2.58 2.58"/>
<path d="M905.291 136.063L907.151 205.32L846.243 172.302L905.291 136.063Z" fill="#8DBFA7"/>
<path d="M568.701 210.237L580.314 201.998L580.738 202.595L581.03 202.388L581.317 202.601L581.754 202.014L593.179 210.512L592.742 211.1L594.17 212.162L594.607 211.575L606.032 220.073L605.595 220.661L605.882 220.874L605.767 221.213L606.461 221.447L601.909 234.939L601.215 234.705L600.646 236.391L601.34 236.626L596.788 250.117L596.094 249.883L595.98 250.222L595.622 250.218L595.614 250.95L581.376 250.79L581.384 250.058L579.604 250.038L579.596 250.77L565.358 250.61L565.366 249.878L565.008 249.874L564.901 249.532L564.203 249.751L559.955 236.16L560.654 235.942L560.123 234.243L559.424 234.461L555.177 220.871L555.875 220.652L555.769 220.311L556.061 220.104L555.637 219.506L567.25 211.267L567.673 211.864L569.125 210.834L568.701 210.237Z" stroke="#5960B2" stroke-width="1.46446" stroke-dasharray="1.46 11.72"/>
<path d="M571.063 213.868L580.396 207.247L580.82 207.844L580.969 207.738L581.116 207.847L581.553 207.26L590.735 214.09L590.298 214.677L591.446 215.531L591.883 214.943L601.065 221.774L600.628 222.361L600.775 222.47L600.716 222.644L601.41 222.878L597.752 233.721L597.058 233.487L596.601 234.843L597.295 235.077L593.636 245.92L592.942 245.686L592.884 245.859L592.7 245.857L592.692 246.59L581.249 246.461L581.257 245.729L579.827 245.713L579.819 246.445L568.376 246.316L568.384 245.584L568.201 245.582L568.146 245.407L567.447 245.625L564.034 234.703L564.733 234.484L564.306 233.119L563.607 233.337L560.193 222.415L560.892 222.196L560.837 222.021L560.987 221.915L560.563 221.318L569.896 214.696L570.32 215.293L571.487 214.466L571.063 213.868Z" stroke="#5960B2" stroke-width="1.46446" stroke-dasharray="1.46 11.72"/>
<path d="M569.854 212.008L580.355 204.558L580.778 205.155L581.001 204.998L581.22 205.16L581.657 204.573L591.987 212.257L591.55 212.845L592.841 213.805L593.278 213.218L603.609 220.902L603.172 221.49L603.391 221.653L603.304 221.911L603.997 222.145L599.881 234.345L599.188 234.111L598.673 235.636L599.367 235.87L595.251 248.069L594.557 247.835L594.47 248.094L594.197 248.091L594.189 248.823L581.314 248.678L581.323 247.946L579.713 247.928L579.705 248.66L566.831 248.515L566.839 247.783L566.566 247.78L566.485 247.52L565.786 247.738L561.945 235.449L562.644 235.231L562.164 233.694L561.465 233.913L557.624 221.624L558.323 221.405L558.242 221.145L558.464 220.987L558.04 220.39L568.541 212.94L568.965 213.537L570.278 212.606L569.854 212.008Z" stroke="#5960B2" stroke-width="1.46446" stroke-dasharray="1.46 11.72"/>
<path d="M566.024 222.854L580.042 212.908L580.466 213.505L580.908 213.191L581.344 213.515L581.781 212.927L595.572 223.186L595.135 223.774L595.57 224.097L595.397 224.611L596.09 224.845L590.595 241.131L589.902 240.897L589.728 241.411L589.186 241.405L589.178 242.137L571.99 241.944L571.999 241.212L571.456 241.206L571.295 240.688L570.596 240.907L565.468 224.501L566.167 224.282L566.006 223.765L566.448 223.451L566.024 222.854Z" stroke="#5960B2" stroke-width="1.46446" stroke-dasharray="1.46 11.72"/>
<path d="M572.243 215.682L580.438 209.868L580.556 210.035L580.513 210.092L580.69 210.224L580.861 210.465L580.939 210.41L581.017 210.467L581.193 210.23L581.373 210.102L581.332 210.043L581.454 209.88L589.515 215.876L589.078 216.464L590.086 217.214L590.523 216.626L598.585 222.623L598.463 222.787L598.395 222.764L598.324 222.973L598.148 223.21L598.225 223.268L598.194 223.359L598.474 223.453L598.652 223.585L598.694 223.527L598.888 223.593L595.676 233.113L594.982 232.879L594.58 234.069L595.274 234.303L592.062 243.823L591.869 243.758L591.87 243.686L591.648 243.684L591.368 243.589L591.338 243.68L591.242 243.679L591.238 243.974L591.167 244.184L591.236 244.207L591.233 244.411L581.186 244.298L581.195 243.566L579.939 243.552L579.931 244.284L569.884 244.171L569.886 243.967L569.955 243.946L569.889 243.734L569.892 243.439L569.796 243.438L569.767 243.346L569.485 243.434L569.264 243.432L569.263 243.504L569.068 243.565L566.071 233.975L566.77 233.756L566.395 232.557L565.696 232.776L562.699 223.186L562.894 223.125L562.936 223.184L563.116 223.055L563.398 222.967L563.37 222.876L563.448 222.82L563.277 222.579L563.211 222.368L563.142 222.389L563.024 222.223L571.219 216.409L571.642 217.006L572.667 216.279L572.243 215.682Z" stroke="#5960B2" stroke-width="1.46446" stroke-dasharray="1.46 11.72"/>
<path d="M568.847 223.982L580.175 215.945L580.599 216.542L580.873 216.347L581.143 216.548L581.58 215.961L592.725 224.251L592.288 224.838L592.558 225.039L592.45 225.357L593.144 225.592L588.703 238.753L588.01 238.519L587.902 238.837L587.566 238.833L587.558 239.565L573.669 239.409L573.677 238.677L573.341 238.673L573.24 238.352L572.541 238.571L568.398 225.313L569.097 225.095L568.997 224.774L569.271 224.579L568.847 223.982Z" stroke="#5960B2" stroke-width="1.46446" stroke-dasharray="1.46 11.72"/>
<path d="M1351.62 740.366L1370.05 727.291L1370.72 728.238L1371.19 727.91L1371.64 728.249L1372.34 727.316L1390.47 740.802L1389.77 741.735L1392.04 743.42L1392.73 742.488L1410.86 755.974L1410.17 756.906L1410.62 757.245L1410.44 757.784L1411.54 758.155L1404.32 779.565L1403.22 779.193L1402.32 781.87L1403.42 782.241L1396.19 803.651L1395.09 803.279L1394.91 803.817L1394.34 803.811L1394.33 804.973L1371.74 804.719L1371.75 803.557L1368.93 803.525L1368.91 804.687L1346.32 804.433L1346.33 803.271L1345.76 803.265L1345.59 802.723L1344.48 803.069L1337.74 781.502L1338.85 781.156L1338.01 778.46L1336.9 778.807L1330.16 757.24L1331.27 756.893L1331.1 756.351L1331.56 756.023L1330.89 755.075L1349.32 742L1349.99 742.948L1352.3 741.313L1351.62 740.366Z" stroke="#5960B2" stroke-width="2.32391" stroke-dasharray="2.32 18.59"/>
<path d="M1355.37 746.129L1370.18 735.62L1370.86 736.568L1371.09 736.4L1371.33 736.573L1372.02 735.641L1386.59 746.48L1385.9 747.412L1387.72 748.767L1388.41 747.834L1402.98 758.673L1402.29 759.605L1402.52 759.779L1402.43 760.054L1403.53 760.426L1397.72 777.633L1396.62 777.261L1395.9 779.412L1397 779.783L1391.19 796.99L1390.09 796.619L1390 796.894L1389.71 796.891L1389.69 798.053L1371.54 797.849L1371.55 796.687L1369.28 796.661L1369.27 797.823L1351.11 797.619L1351.12 796.457L1350.83 796.454L1350.74 796.176L1349.63 796.523L1344.22 779.19L1345.33 778.843L1344.65 776.677L1343.54 777.023L1338.12 759.69L1339.23 759.344L1339.15 759.066L1339.38 758.898L1338.71 757.95L1353.52 747.442L1354.19 748.39L1356.04 747.076L1355.37 746.129Z" stroke="#5960B2" stroke-width="2.32391" stroke-dasharray="2.32 18.59"/>
<path d="M1353.45 743.177L1370.12 731.354L1370.79 732.302L1371.14 732.052L1371.49 732.31L1372.18 731.378L1388.58 743.572L1387.88 744.504L1389.93 746.029L1390.63 745.096L1407.02 757.291L1406.32 758.223L1406.67 758.481L1406.53 758.892L1407.63 759.263L1401.1 778.622L1400 778.251L1399.19 780.671L1400.29 781.042L1393.75 800.401L1392.65 800.03L1392.52 800.44L1392.08 800.435L1392.07 801.597L1371.64 801.367L1371.65 800.205L1369.1 800.177L1369.09 801.339L1348.66 801.109L1348.67 799.947L1348.24 799.942L1348.11 799.529L1347 799.876L1340.9 780.374L1342.01 780.028L1341.25 777.59L1340.14 777.937L1334.05 758.435L1335.16 758.089L1335.03 757.676L1335.38 757.425L1334.71 756.478L1351.37 744.655L1352.04 745.603L1354.13 744.125L1353.45 743.177Z" stroke="#5960B2" stroke-width="2.32391" stroke-dasharray="2.32 18.59"/>
<path d="M1347.38 760.387L1369.62 744.604L1370.29 745.551L1371 745.053L1371.69 745.567L1372.38 744.635L1394.26 760.914L1393.57 761.846L1394.26 762.36L1393.99 763.175L1395.09 763.547L1386.37 789.391L1385.27 789.02L1384.99 789.835L1384.13 789.826L1384.12 790.988L1356.84 790.681L1356.86 789.519L1356 789.509L1355.74 788.688L1354.63 789.035L1346.49 763L1347.6 762.654L1347.35 761.833L1348.05 761.335L1347.38 760.387Z" stroke="#5960B2" stroke-width="2.32391" stroke-dasharray="2.32 18.59"/>
<path d="M1357.24 749.007L1370.25 739.781L1370.44 740.045L1370.37 740.136L1370.65 740.346L1370.92 740.728L1371.05 740.64L1371.17 740.731L1371.45 740.355L1371.73 740.152L1371.67 740.059L1371.86 739.799L1384.65 749.315L1383.96 750.247L1385.56 751.437L1386.25 750.505L1399.05 760.021L1398.85 760.281L1398.74 760.244L1398.63 760.577L1398.35 760.953L1398.47 761.044L1398.43 761.188L1398.87 761.338L1399.15 761.548L1399.22 761.456L1399.53 761.56L1394.43 776.667L1393.33 776.296L1392.69 778.184L1393.79 778.556L1388.7 793.663L1388.39 793.56L1388.39 793.446L1388.04 793.442L1387.59 793.292L1387.55 793.436L1387.39 793.434L1387.39 793.903L1387.28 794.236L1387.38 794.272L1387.38 794.596L1371.44 794.417L1371.45 793.255L1369.46 793.233L1369.44 794.395L1353.5 794.215L1353.5 793.892L1353.61 793.857L1353.51 793.522L1353.51 793.053L1353.36 793.052L1353.32 792.906L1352.87 793.046L1352.52 793.042L1352.52 793.156L1352.21 793.253L1347.45 778.035L1348.56 777.688L1347.97 775.786L1346.86 776.132L1342.1 760.914L1342.41 760.817L1342.48 760.91L1342.76 760.707L1343.21 760.567L1343.16 760.422L1343.29 760.334L1343.02 759.952L1342.91 759.616L1342.8 759.65L1342.62 759.386L1355.62 750.16L1356.29 751.108L1357.92 749.954L1357.24 749.007Z" stroke="#5960B2" stroke-width="2.32391" stroke-dasharray="2.32 18.59"/>
<path d="M1351.86 762.178L1369.83 749.424L1370.5 750.371L1370.94 750.063L1371.37 750.381L1372.06 749.449L1389.75 762.604L1389.05 763.536L1389.48 763.855L1389.31 764.36L1390.41 764.732L1383.37 785.617L1382.26 785.245L1382.09 785.751L1381.56 785.745L1381.55 786.907L1359.51 786.659L1359.52 785.497L1358.99 785.491L1358.83 784.982L1357.72 785.328L1351.14 764.29L1352.25 763.943L1352.09 763.434L1352.53 763.126L1351.86 762.178Z" stroke="#5960B2" stroke-width="2.32391" stroke-dasharray="2.32 18.59"/>
<path d="M443.741 544.297L462.503 530.985L463.188 531.95L463.659 531.616L464.123 531.961L464.829 531.011L483.288 544.742L482.582 545.691L484.889 547.407L485.595 546.458L504.053 560.189L503.347 561.138L503.811 561.483L503.626 562.031L504.747 562.409L497.393 584.207L496.272 583.829L495.352 586.553L496.473 586.931L489.119 608.729L487.998 608.351L487.813 608.899L487.235 608.892L487.221 610.075L464.218 609.817L464.231 608.634L461.356 608.601L461.342 609.784L438.339 609.526L438.352 608.343L437.774 608.336L437.601 607.784L436.472 608.137L429.61 586.18L430.739 585.827L429.881 583.082L428.752 583.435L421.89 561.477L423.019 561.124L422.846 560.572L423.318 560.238L422.633 559.273L441.396 545.961L442.08 546.926L444.425 545.262L443.741 544.297Z" stroke="#5CA380" stroke-width="2.36603" stroke-dasharray="2.37 18.93"/>
<path d="M447.557 550.164L462.636 539.466L463.32 540.43L463.562 540.259L463.799 540.436L464.505 539.487L479.34 550.522L478.634 551.471L480.488 552.85L481.194 551.901L496.029 562.936L495.323 563.885L495.561 564.062L495.466 564.342L496.587 564.721L490.676 582.239L489.555 581.861L488.816 584.051L489.937 584.429L484.027 601.948L482.906 601.569L482.811 601.85L482.515 601.847L482.502 603.03L464.014 602.822L464.027 601.639L461.716 601.613L461.703 602.796L443.215 602.588L443.228 601.405L442.932 601.401L442.844 601.119L441.715 601.472L436.2 583.825L437.329 583.472L436.639 581.266L435.51 581.619L429.995 563.972L431.124 563.619L431.036 563.336L431.277 563.165L430.593 562.2L445.672 551.501L446.356 552.466L448.241 551.129L447.557 550.164Z" stroke="#5CA380" stroke-width="2.36603" stroke-dasharray="2.37 18.93"/>
<path d="M445.603 547.159L462.568 535.122L463.253 536.087L463.612 535.832L463.966 536.095L464.672 535.146L481.362 547.561L480.656 548.511L482.743 550.063L483.449 549.113L500.139 561.529L499.433 562.478L499.787 562.741L499.646 563.159L500.767 563.537L494.117 583.247L492.996 582.869L492.164 585.332L493.285 585.711L486.635 605.421L485.514 605.043L485.373 605.46L484.933 605.455L484.919 606.638L464.119 606.404L464.132 605.221L461.532 605.192L461.519 606.375L440.718 606.141L440.732 604.958L440.291 604.953L440.16 604.533L439.031 604.886L432.825 585.031L433.954 584.678L433.179 582.196L432.05 582.549L425.844 562.694L426.974 562.341L426.842 561.921L427.201 561.666L426.517 560.701L443.482 548.664L444.167 549.629L446.288 548.124L445.603 547.159Z" stroke="#5CA380" stroke-width="2.36603" stroke-dasharray="2.37 18.93"/>
<path d="M439.415 564.682L462.064 548.612L462.749 549.577L463.463 549.07L464.166 549.593L464.872 548.644L487.154 565.218L486.448 566.168L487.151 566.69L486.871 567.521L487.992 567.899L479.114 594.212L477.993 593.833L477.713 594.664L476.837 594.654L476.823 595.837L449.055 595.524L449.068 594.342L448.192 594.332L447.931 593.495L446.802 593.848L438.518 567.342L439.647 566.99L439.385 566.153L440.1 565.646L439.415 564.682Z" stroke="#5CA380" stroke-width="2.36603" stroke-dasharray="2.37 18.93"/>
<path d="M449.463 553.094L462.703 543.701L462.894 543.97L462.824 544.063L463.111 544.277L463.387 544.666L463.514 544.576L463.638 544.669L463.923 544.286L464.215 544.079L464.148 543.984L464.344 543.72L477.369 553.408L476.663 554.357L478.291 555.569L478.997 554.619L492.022 564.308L491.825 564.573L491.715 564.535L491.601 564.874L491.316 565.257L491.44 565.35L491.391 565.497L491.843 565.649L492.13 565.863L492.199 565.77L492.512 565.875L487.322 581.256L486.201 580.878L485.553 582.801L486.673 583.179L481.484 598.56L481.171 598.455L481.173 598.339L480.815 598.335L480.363 598.182L480.313 598.329L480.158 598.327L480.153 598.805L480.039 599.143L480.149 599.181L480.145 599.51L463.913 599.328L463.926 598.145L461.897 598.122L461.884 599.305L445.652 599.122L445.655 598.793L445.766 598.758L445.659 598.417L445.665 597.939L445.51 597.938L445.464 597.79L445.008 597.932L444.65 597.928L444.649 598.044L444.334 598.143L439.492 582.648L440.621 582.296L440.016 580.359L438.887 580.712L434.044 565.217L434.359 565.119L434.426 565.214L434.718 565.007L435.173 564.865L435.127 564.717L435.254 564.627L434.977 564.238L434.871 563.896L434.76 563.931L434.569 563.662L447.808 554.269L448.493 555.233L450.148 554.059L449.463 553.094Z" stroke="#5CA380" stroke-width="2.36603" stroke-dasharray="2.37 18.93"/>
<path d="M443.977 566.505L462.279 553.519L462.964 554.484L463.407 554.17L463.843 554.494L464.549 553.545L482.555 566.939L481.849 567.888L482.284 568.212L482.111 568.727L483.232 569.105L476.057 590.369L474.936 589.99L474.763 590.505L474.22 590.499L474.206 591.682L451.767 591.43L451.78 590.247L451.237 590.241L451.075 589.722L449.946 590.075L443.251 568.655L444.38 568.303L444.218 567.784L444.661 567.47L443.977 566.505Z" stroke="#5CA380" stroke-width="2.36603" stroke-dasharray="2.37 18.93"/>
<path d="M1145.98 26.6927L1155.2 20.1496L1155.3 20.2858L1155.02 20.6546L1155.44 20.9614L1155.61 20.7266L1155.78 20.9652L1156.2 20.6678L1155.93 20.293L1156.03 20.159L1165.11 26.9078L1164.51 27.7102L1165.33 28.3237L1165.93 27.5214L1175 34.2702L1174.41 35.0726L1175.23 35.6861L1175.83 34.8837L1184.9 41.6326L1184.3 42.4349L1185.13 43.0485L1185.73 42.2461L1194.8 48.995L1194.2 49.7973L1195.03 50.4108L1195.62 49.6085L1204.7 56.3573L1204.1 57.1597L1204.92 57.7732L1205.52 56.9708L1214.59 63.7197L1214 64.5221L1214.82 65.1356L1215.42 64.3332L1224.49 71.0821L1223.89 71.8844L1224.72 72.498L1225.32 71.6956L1234.39 78.4444L1233.79 79.2468L1234.62 79.8603L1235.21 79.058L1244.29 85.8068L1243.69 86.6092L1244.51 87.2227L1245.11 86.4203L1254.18 93.1692L1253.59 93.9715L1254.41 94.5851L1255.01 93.7827L1264.08 100.532L1263.48 101.334L1264.31 101.947L1264.91 101.145L1273.98 107.894L1273.38 108.696L1274.21 109.31L1274.8 108.507L1283.88 115.256L1283.28 116.059L1284.1 116.672L1284.7 115.87L1293.77 122.619L1293.18 123.421L1294 124.035L1294.6 123.232L1303.67 129.981L1303.07 130.783L1303.9 131.397L1304.5 130.595L1313.57 137.343L1313.47 137.477L1313.03 137.33L1312.87 137.818L1313.15 137.911L1312.97 138.146L1313.38 138.453L1313.66 138.084L1313.82 138.137L1310.2 148.851L1309.25 148.532L1308.92 149.506L1309.87 149.825L1306.26 160.539L1305.31 160.22L1304.98 161.194L1305.93 161.513L1302.31 172.228L1301.37 171.908L1301.04 172.882L1301.99 173.202L1298.37 183.916L1297.42 183.596L1297.09 184.57L1298.04 184.89L1294.43 195.604L1293.48 195.284L1293.15 196.258L1294.1 196.578L1290.48 207.292L1289.54 206.972L1289.21 207.946L1290.15 208.266L1286.54 218.98L1285.59 218.66L1285.26 219.634L1286.21 219.954L1282.6 230.668L1281.65 230.349L1281.32 231.323L1282.27 231.642L1278.65 242.356L1277.71 242.037L1277.38 243.011L1278.32 243.33L1274.71 254.045L1273.76 253.725L1273.43 254.699L1274.38 255.019L1270.77 265.733L1269.82 265.413L1269.49 266.387L1270.44 266.707L1266.82 277.421L1265.87 277.101L1265.55 278.075L1266.49 278.395L1262.88 289.109L1261.93 288.789L1261.6 289.763L1262.55 290.083L1258.93 300.797L1257.99 300.477L1257.66 301.451L1258.61 301.771L1254.99 312.485L1254.04 312.166L1253.72 313.14L1254.66 313.459L1251.05 324.173L1250.89 324.12L1250.89 323.66L1250.38 323.655L1250.38 323.947L1250.1 323.854L1249.94 324.341L1250.37 324.488L1250.37 324.655L1239.06 324.527L1239.07 323.527L1238.05 323.516L1238.03 324.516L1226.73 324.389L1226.74 323.389L1225.71 323.377L1225.7 324.377L1214.39 324.25L1214.4 323.25L1213.38 323.239L1213.37 324.238L1202.06 324.111L1202.07 323.111L1201.04 323.1L1201.03 324.1L1189.72 323.973L1189.74 322.973L1188.71 322.961L1188.7 323.961L1177.39 323.834L1177.4 322.834L1176.37 322.822L1176.36 323.822L1165.05 323.695L1165.07 322.695L1164.04 322.684L1164.03 323.684L1152.72 323.556L1152.73 322.557L1151.7 322.545L1151.69 323.545L1140.39 323.418L1140.4 322.418L1139.37 322.406L1139.36 323.406L1128.05 323.279L1128.06 322.279L1127.03 322.268L1127.02 323.267L1115.72 323.14L1115.73 322.14L1114.7 322.129L1114.69 323.129L1103.38 323.002L1103.39 322.002L1102.36 321.99L1102.35 322.99L1091.05 322.863L1091.06 321.863L1090.03 321.851L1090.02 322.851L1078.71 322.724L1078.72 321.724L1077.7 321.713L1077.68 322.713L1066.38 322.586L1066.39 321.586L1065.36 321.574L1065.35 322.574L1054.04 322.447L1054.04 322.28L1054.48 322.143L1054.33 321.652L1054.05 321.739L1054.05 321.447L1053.54 321.441L1053.53 321.901L1053.37 321.95L1050 311.158L1050.96 310.859L1050.65 309.878L1049.7 310.177L1046.32 299.384L1047.28 299.086L1046.97 298.104L1046.02 298.403L1042.64 287.61L1043.6 287.312L1043.29 286.331L1042.34 286.629L1038.96 275.836L1039.92 275.538L1039.61 274.557L1038.66 274.855L1035.28 264.062L1036.24 263.764L1035.93 262.783L1034.98 263.081L1031.6 252.288L1032.56 251.99L1032.25 251.009L1031.3 251.307L1027.92 240.515L1028.88 240.216L1028.57 239.235L1027.62 239.533L1024.24 228.741L1025.2 228.442L1024.89 227.461L1023.94 227.76L1020.56 216.967L1021.52 216.669L1021.21 215.687L1020.26 215.986L1016.88 205.193L1017.84 204.895L1017.53 203.914L1016.58 204.212L1013.2 193.419L1014.16 193.121L1013.85 192.14L1012.9 192.438L1009.53 181.645L1010.48 181.347L1010.17 180.366L1009.22 180.664L1005.85 169.871L1006.8 169.573L1006.49 168.592L1005.54 168.89L1002.17 158.098L1003.12 157.799L1002.81 156.818L1001.86 157.116L998.486 146.324L999.44 146.025L999.134 145.044L998.179 145.343L994.806 134.55L994.966 134.5L995.232 134.875L995.651 134.577L995.481 134.339L995.761 134.252L995.607 133.761L995.169 133.898L995.072 133.762L1004.29 127.219L1004.87 128.034L1005.71 127.439L1005.13 126.624L1014.35 120.081L1014.93 120.896L1015.77 120.302L1015.19 119.486L1024.42 112.943L1024.99 113.758L1025.83 113.164L1025.25 112.348L1034.48 105.805L1035.05 106.62L1035.89 106.026L1035.31 105.21L1044.54 98.667L1045.11 99.4825L1045.95 98.8877L1045.37 98.0721L1054.6 91.529L1055.18 92.3446L1056.01 91.7498L1055.44 90.9342L1064.66 84.3911L1065.24 85.2067L1066.07 84.6118L1065.5 83.7963L1074.72 77.2532L1075.3 78.0687L1076.13 77.4739L1075.56 76.6583L1084.78 70.1152L1085.36 70.9308L1086.2 70.336L1085.62 69.5204L1094.84 62.9773L1095.42 63.7928L1096.26 63.198L1095.68 62.3824L1104.9 55.8393L1105.48 56.6549L1106.32 56.0601L1105.74 55.2445L1114.96 48.7014L1115.54 49.517L1116.38 48.9221L1115.8 48.1066L1125.02 41.5635L1125.6 42.379L1126.44 41.7842L1125.86 40.9686L1135.08 34.4255L1135.66 35.2411L1136.5 34.6463L1135.92 33.8307L1145.14 27.2876L1145.72 28.1031L1146.56 27.5083L1145.98 26.6927Z" stroke="#5960B2" stroke-width="2" stroke-dasharray="1 11"/>
<path d="M1145.71 59.5776L1154.84 53.1054L1154.93 53.2401L1154.65 53.6136L1155.06 53.917L1155.24 53.6761L1155.41 53.921L1155.83 53.6268L1155.56 53.2472L1155.66 53.1146L1164.63 59.7903L1164.04 60.5927L1164.85 61.1996L1165.45 60.3972L1174.42 67.0729L1173.83 67.8752L1174.64 68.4821L1175.24 67.6798L1184.21 74.3554L1183.62 75.1578L1184.43 75.7647L1185.03 74.9623L1194 81.638L1193.41 82.4404L1194.22 83.0472L1194.82 82.2449L1203.79 88.9206L1203.2 89.7229L1204.01 90.3298L1204.61 89.5275L1213.58 96.2031L1212.99 97.0055L1213.8 97.6124L1214.4 96.81L1223.37 103.486L1222.78 104.288L1223.59 104.895L1224.19 104.093L1233.16 110.768L1232.57 111.571L1233.38 112.177L1233.98 111.375L1242.95 118.051L1242.36 118.853L1243.17 119.46L1243.77 118.658L1252.74 125.333L1252.15 126.136L1252.96 126.743L1253.56 125.94L1262.53 132.616L1261.94 133.418L1262.75 134.025L1263.35 133.223L1272.32 139.898L1271.73 140.701L1272.54 141.308L1273.14 140.505L1282.11 147.181L1282.02 147.314L1281.57 147.165L1281.41 147.646L1281.7 147.742L1281.52 147.983L1281.93 148.287L1282.2 147.913L1282.36 147.966L1278.78 158.564L1277.84 158.244L1277.51 159.208L1278.46 159.528L1274.88 170.126L1273.94 169.806L1273.61 170.769L1274.56 171.089L1270.98 181.687L1270.03 181.367L1269.71 182.331L1270.66 182.651L1267.08 193.248L1266.13 192.929L1265.81 193.892L1266.76 194.212L1263.18 204.81L1262.23 204.49L1261.91 205.454L1262.86 205.773L1259.28 216.371L1258.33 216.052L1258.01 217.015L1258.96 217.335L1255.38 227.933L1254.43 227.613L1254.11 228.577L1255.05 228.896L1251.48 239.494L1250.53 239.175L1250.21 240.138L1251.15 240.458L1247.58 251.056L1246.63 250.736L1246.31 251.699L1247.25 252.019L1243.68 262.617L1242.73 262.297L1242.4 263.261L1243.35 263.581L1239.78 274.179L1238.83 273.859L1238.5 274.822L1239.45 275.142L1235.88 285.74L1234.93 285.42L1234.6 286.384L1235.55 286.703L1231.97 297.301L1231.82 297.249L1231.82 296.783L1231.31 296.777L1231.31 297.078L1231.03 296.982L1230.86 297.463L1231.31 297.612L1231.3 297.777L1220.12 297.652L1220.13 296.652L1219.11 296.64L1219.1 297.64L1207.92 297.514L1207.93 296.514L1206.91 296.503L1206.9 297.503L1195.72 297.377L1195.73 296.377L1194.71 296.366L1194.7 297.366L1183.52 297.24L1183.53 296.24L1182.51 296.229L1182.5 297.229L1171.32 297.103L1171.33 296.103L1170.31 296.091L1170.3 297.091L1159.11 296.966L1159.13 295.966L1158.11 295.954L1158.1 296.954L1146.91 296.828L1146.92 295.828L1145.91 295.817L1145.9 296.817L1134.71 296.691L1134.72 295.691L1133.71 295.68L1133.7 296.68L1122.51 296.554L1122.52 295.554L1121.51 295.543L1121.49 296.543L1110.31 296.417L1110.32 295.417L1109.3 295.405L1109.29 296.405L1098.11 296.28L1098.12 295.28L1097.1 295.268L1097.09 296.268L1085.91 296.142L1085.92 295.142L1084.9 295.131L1084.89 296.131L1073.71 296.005L1073.71 295.84L1074.15 295.701L1074 295.216L1073.72 295.305L1073.72 295.005L1073.21 295L1073.21 295.465L1073.05 295.514L1069.71 284.839L1070.67 284.54L1070.36 283.57L1069.41 283.868L1066.07 273.192L1067.03 272.894L1066.72 271.923L1065.77 272.222L1062.43 261.546L1063.39 261.248L1063.08 260.277L1062.13 260.576L1058.79 249.9L1059.75 249.601L1059.44 248.631L1058.49 248.929L1055.15 238.254L1056.11 237.955L1055.8 236.985L1054.85 237.283L1051.51 226.607L1052.47 226.309L1052.16 225.339L1051.21 225.637L1047.87 214.961L1048.83 214.663L1048.52 213.692L1047.57 213.991L1044.23 203.315L1045.19 203.017L1044.88 202.046L1043.93 202.344L1040.59 191.669L1041.55 191.37L1041.24 190.4L1040.29 190.698L1036.95 180.022L1037.91 179.724L1037.6 178.754L1036.65 179.052L1033.31 168.376L1034.27 168.078L1033.96 167.107L1033.01 167.406L1029.67 156.73L1030.63 156.432L1030.32 155.461L1029.37 155.759L1026.03 145.084L1026.19 145.034L1026.46 145.414L1026.87 145.12L1026.7 144.875L1026.99 144.785L1026.84 144.3L1026.39 144.439L1026.3 144.304L1035.42 137.832L1036 138.648L1036.83 138.059L1036.25 137.244L1045.37 130.772L1045.95 131.587L1046.78 130.999L1046.2 130.183L1055.32 123.711L1055.9 124.527L1056.73 123.938L1056.15 123.123L1065.27 116.65L1065.85 117.466L1066.68 116.878L1066.1 116.062L1075.22 109.59L1075.8 110.405L1076.63 109.817L1076.05 109.001L1085.18 102.529L1085.75 103.345L1086.58 102.757L1086 101.941L1095.13 95.4688L1095.71 96.2843L1096.53 95.6959L1095.96 94.8804L1105.08 88.4082L1105.66 89.2238L1106.49 88.6354L1105.91 87.8198L1115.03 81.3476L1115.61 82.1632L1116.44 81.5748L1115.86 80.7593L1124.98 74.2871L1125.56 75.1026L1126.39 74.5143L1125.81 73.6987L1134.93 67.2265L1135.51 68.0421L1136.34 67.4537L1135.76 66.6381L1144.88 60.166L1145.46 60.9815L1146.29 60.3932L1145.71 59.5776Z" stroke="#5960B2" stroke-width="2" stroke-dasharray="1 11"/>
<path d="M1146.14 42.5285L1155.04 36.2176L1155.13 36.3489L1154.85 36.7331L1155.24 37.0289L1155.43 36.7741L1155.62 37.0331L1156.02 36.7463L1155.74 36.3558L1155.84 36.2266L1164.59 42.7359L1163.99 43.5383L1164.79 44.1301L1165.39 43.3277L1174.14 49.837L1173.54 50.6394L1174.34 51.2312L1174.93 50.4288L1183.68 56.9382L1183.09 57.7405L1183.88 58.3323L1184.48 57.5299L1193.23 64.0393L1192.63 64.8416L1193.43 65.4334L1194.02 64.631L1202.78 71.1404L1202.18 71.9428L1202.97 72.5345L1203.57 71.7322L1212.32 78.2415L1211.72 79.0439L1212.52 79.6356L1213.12 78.8333L1221.87 85.3426L1221.27 86.145L1222.07 86.7367L1222.66 85.9344L1231.41 92.4437L1230.82 93.2461L1231.61 93.8379L1232.21 93.0355L1240.96 99.5449L1240.36 100.347L1241.16 100.939L1241.76 100.137L1250.51 106.646L1249.91 107.448L1250.71 108.04L1251.3 107.238L1260.05 113.747L1259.46 114.549L1260.25 115.141L1260.85 114.339L1269.6 120.848L1269 121.651L1269.8 122.242L1270.39 121.44L1279.15 127.949L1278.55 128.752L1279.34 129.343L1279.94 128.541L1288.69 135.05L1288.09 135.853L1288.89 136.445L1289.49 135.642L1298.24 142.152L1298.14 142.281L1297.69 142.128L1297.53 142.597L1297.83 142.699L1297.64 142.954L1298.04 143.25L1298.32 142.866L1298.48 142.917L1294.99 153.251L1294.04 152.931L1293.73 153.871L1294.67 154.191L1291.19 164.524L1290.24 164.205L1289.92 165.144L1290.87 165.464L1287.38 175.798L1286.44 175.478L1286.12 176.418L1287.07 176.737L1283.58 187.071L1282.63 186.752L1282.32 187.691L1283.26 188.011L1279.78 198.345L1278.83 198.025L1278.51 198.964L1279.46 199.284L1275.97 209.618L1275.02 209.298L1274.71 210.238L1275.66 210.557L1272.17 220.891L1271.22 220.572L1270.9 221.511L1271.85 221.831L1268.37 232.165L1267.42 231.845L1267.1 232.784L1268.05 233.104L1264.56 243.438L1263.61 243.118L1263.3 244.058L1264.24 244.378L1260.76 254.711L1259.81 254.392L1259.49 255.331L1260.44 255.651L1256.95 265.985L1256.01 265.665L1255.69 266.605L1256.64 266.924L1253.15 277.258L1252.2 276.939L1251.89 277.878L1252.83 278.198L1249.35 288.532L1248.4 288.212L1248.08 289.151L1249.03 289.471L1245.54 299.805L1244.6 299.485L1244.28 300.425L1245.23 300.744L1241.74 311.078L1241.59 311.027L1241.59 310.548L1241.1 310.543L1241.09 310.86L1240.79 310.759L1240.63 311.228L1241.09 311.381L1241.09 311.543L1230.18 311.42L1230.19 310.42L1229.2 310.409L1229.19 311.409L1218.28 311.286L1218.29 310.286L1217.3 310.275L1217.29 311.275L1206.39 311.152L1206.4 310.152L1205.41 310.141L1205.39 311.141L1194.49 311.019L1194.5 310.019L1193.51 310.007L1193.5 311.007L1182.59 310.885L1182.6 309.885L1181.61 309.874L1181.6 310.874L1170.7 310.751L1170.71 309.751L1169.71 309.74L1169.7 310.74L1158.8 310.617L1158.81 309.617L1157.82 309.606L1157.81 310.606L1146.9 310.483L1146.91 309.483L1145.92 309.472L1145.91 310.472L1135 310.35L1135.02 309.35L1134.02 309.339L1134.01 310.338L1123.11 310.216L1123.12 309.216L1122.13 309.205L1122.12 310.205L1111.21 310.082L1111.22 309.082L1110.23 309.071L1110.22 310.071L1099.31 309.948L1099.32 308.948L1098.33 308.937L1098.32 309.937L1087.42 309.814L1087.43 308.815L1086.44 308.803L1086.42 309.803L1075.52 309.681L1075.53 308.681L1074.54 308.67L1074.53 309.67L1063.62 309.547L1063.62 309.386L1064.08 309.243L1063.93 308.77L1063.63 308.865L1063.63 308.547L1063.14 308.541L1063.13 309.02L1062.98 309.068L1059.73 298.658L1060.68 298.36L1060.38 297.414L1059.43 297.712L1056.18 287.302L1057.13 287.004L1056.83 286.058L1055.88 286.356L1052.63 275.946L1053.58 275.648L1053.29 274.702L1052.33 275L1049.08 264.59L1050.03 264.292L1049.74 263.346L1048.78 263.644L1045.53 253.234L1046.48 252.936L1046.19 251.99L1045.23 252.288L1041.98 241.878L1042.93 241.58L1042.64 240.633L1041.68 240.932L1038.43 230.522L1039.38 230.224L1039.09 229.277L1038.13 229.576L1034.88 219.166L1035.84 218.868L1035.54 217.921L1034.59 218.22L1031.33 207.81L1032.29 207.512L1031.99 206.565L1031.04 206.864L1027.78 196.454L1028.74 196.156L1028.44 195.209L1027.49 195.508L1024.23 185.098L1025.19 184.8L1024.89 183.853L1023.94 184.151L1020.68 173.742L1021.64 173.443L1021.34 172.497L1020.39 172.795L1017.14 162.386L1018.09 162.087L1017.79 161.141L1016.84 161.439L1013.59 151.03L1014.54 150.731L1014.25 149.785L1013.29 150.083L1010.04 139.674L1010.19 139.626L1010.47 140.016L1010.87 139.729L1010.69 139.47L1010.99 139.375L1010.84 138.902L1010.39 139.045L1010.29 138.914L1019.19 132.603L1019.77 133.418L1020.58 132.844L1020 132.029L1028.89 125.718L1029.47 126.534L1030.28 125.96L1029.7 125.144L1038.6 118.833L1039.17 119.649L1039.98 119.075L1039.4 118.26L1048.3 111.949L1048.88 112.764L1049.69 112.191L1049.11 111.375L1058 105.064L1058.58 105.88L1059.39 105.306L1058.81 104.49L1067.71 98.1794L1068.28 98.995L1069.09 98.4212L1068.51 97.6057L1077.41 91.2947L1077.99 92.1103L1078.8 91.5366L1078.22 90.721L1087.11 84.4101L1087.69 85.2257L1088.5 84.6519L1087.92 83.8364L1096.82 77.5254L1097.4 78.341L1098.2 77.7673L1097.63 76.9517L1106.52 70.6408L1107.1 71.4564L1107.91 70.8826L1107.33 70.0671L1116.22 63.7561L1116.8 64.5717L1117.61 63.998L1117.03 63.1824L1125.93 56.8715L1126.51 57.6871L1127.31 57.1134L1126.74 56.2978L1135.63 49.9869L1136.21 50.8024L1137.02 50.2287L1136.44 49.4131L1145.33 43.1022L1145.91 43.9178L1146.72 43.3441L1146.14 42.5285Z" stroke="#5960B2" stroke-width="2" stroke-dasharray="1 11"/>
<path d="M1145.56 93.012L1154.47 86.6933L1154.56 86.8248L1154.28 87.2084L1154.67 87.5047L1154.86 87.2504L1155.05 87.5089L1155.45 87.2216L1155.18 86.8317L1155.27 86.7023L1164.03 93.2197L1163.44 94.0221L1164.23 94.6146L1164.83 93.8122L1173.59 100.33L1172.99 101.132L1173.79 101.725L1174.39 100.922L1183.15 107.44L1182.55 108.242L1183.35 108.834L1183.95 108.032L1192.71 114.55L1192.11 115.352L1192.91 115.944L1193.5 115.142L1202.27 121.66L1201.67 122.462L1202.46 123.054L1203.06 122.252L1211.82 128.769L1211.23 129.572L1212.02 130.164L1212.62 129.362L1221.38 135.879L1220.78 136.682L1221.58 137.274L1222.18 136.472L1230.94 142.989L1230.34 143.792L1231.14 144.384L1231.74 143.582L1240.5 150.099L1239.9 150.902L1240.7 151.494L1241.29 150.692L1250.06 157.209L1249.96 157.339L1249.51 157.186L1249.35 157.656L1249.65 157.757L1249.46 158.012L1249.86 158.308L1250.14 157.924L1250.3 157.976L1246.8 168.322L1245.86 168.003L1245.54 168.943L1246.49 169.263L1243 179.61L1242.05 179.29L1241.73 180.231L1242.68 180.551L1239.19 190.897L1238.24 190.578L1237.92 191.518L1238.87 191.838L1235.38 202.185L1234.43 201.865L1234.11 202.806L1235.06 203.125L1231.57 213.472L1230.62 213.152L1230.31 214.093L1231.25 214.413L1227.76 224.759L1226.82 224.44L1226.5 225.38L1227.45 225.7L1223.95 236.047L1223.01 235.727L1222.69 236.668L1223.64 236.987L1220.15 247.334L1219.2 247.015L1218.88 247.955L1219.83 248.275L1216.34 258.622L1215.39 258.302L1215.07 259.243L1216.02 259.562L1212.53 269.909L1212.38 269.857L1212.38 269.379L1211.89 269.374L1211.88 269.691L1211.58 269.589L1211.42 270.06L1211.88 270.212L1211.87 270.374L1200.96 270.251L1200.97 269.251L1199.97 269.24L1199.96 270.24L1189.04 270.117L1189.05 269.117L1188.06 269.106L1188.05 270.106L1177.13 269.983L1177.14 268.983L1176.15 268.972L1176.14 269.972L1165.22 269.849L1165.23 268.849L1164.24 268.838L1164.23 269.838L1153.31 269.715L1153.32 268.715L1152.33 268.704L1152.32 269.704L1141.4 269.581L1141.41 268.581L1140.41 268.57L1140.4 269.57L1129.48 269.447L1129.5 268.447L1128.5 268.436L1128.49 269.436L1117.57 269.313L1117.58 268.313L1116.59 268.302L1116.58 269.302L1105.66 269.179L1105.67 268.179L1104.68 268.168L1104.67 269.168L1093.75 269.045L1093.75 268.884L1094.21 268.741L1094.06 268.268L1093.76 268.362L1093.76 268.045L1093.26 268.04L1093.26 268.518L1093.1 268.566L1089.85 258.143L1090.8 257.845L1090.51 256.898L1089.55 257.196L1086.29 246.773L1087.25 246.475L1086.95 245.527L1086 245.826L1082.74 235.403L1083.69 235.105L1083.4 234.157L1082.44 234.456L1079.19 224.033L1080.14 223.735L1079.85 222.787L1078.89 223.085L1075.63 212.663L1076.59 212.364L1076.29 211.417L1075.34 211.715L1072.08 201.292L1073.03 200.994L1072.74 200.047L1071.78 200.345L1068.53 189.922L1069.48 189.624L1069.18 188.677L1068.23 188.975L1064.97 178.552L1065.93 178.254L1065.63 177.306L1064.68 177.605L1061.42 167.182L1062.37 166.884L1062.08 165.936L1061.12 166.234L1057.87 155.812L1058.02 155.764L1058.3 156.154L1058.7 155.866L1058.52 155.608L1058.82 155.514L1058.67 155.04L1058.22 155.182L1058.12 155.051L1067.03 148.732L1067.61 149.548L1068.42 148.973L1067.84 148.158L1076.74 141.839L1077.32 142.654L1078.13 142.08L1077.55 141.264L1086.46 134.946L1087.04 135.761L1087.85 135.187L1087.27 134.371L1096.17 128.052L1096.75 128.868L1097.56 128.294L1096.98 127.478L1105.89 121.159L1106.47 121.975L1107.28 121.4L1106.7 120.585L1115.61 114.266L1116.18 115.082L1116.99 114.507L1116.42 113.692L1125.32 107.373L1125.9 108.188L1126.71 107.614L1126.13 106.798L1135.04 100.48L1135.62 101.295L1136.43 100.721L1135.85 99.9052L1144.75 93.5865L1145.33 94.4021L1146.14 93.8276L1145.56 93.012Z" stroke="#5960B2" stroke-width="2" stroke-dasharray="1 11"/>
<path d="M1146 75.709L1154.67 69.5529L1154.76 69.681L1154.47 70.0754L1154.86 70.364L1155.06 70.0957L1155.25 70.3685L1155.64 70.0886L1155.36 69.6878L1155.45 69.5617L1163.99 75.9114L1163.39 76.7137L1164.17 77.291L1164.77 76.4886L1173.3 82.8383L1172.71 83.6406L1173.48 84.2179L1174.08 83.4155L1182.61 89.7652L1182.02 90.5676L1182.79 91.1448L1183.39 90.3424L1191.93 96.6921L1191.33 97.4945L1192.11 98.0717L1192.7 97.2694L1201.24 103.619L1200.64 104.421L1201.42 104.999L1202.01 104.196L1210.55 110.546L1209.95 111.348L1210.73 111.926L1211.33 111.123L1219.86 117.473L1219.27 118.275L1220.04 118.852L1220.64 118.05L1229.17 124.4L1228.58 125.202L1229.35 125.779L1229.95 124.977L1238.49 131.327L1237.89 132.129L1238.67 132.706L1239.26 131.904L1247.8 138.254L1247.2 139.056L1247.98 139.633L1248.57 138.831L1257.11 145.181L1256.51 145.983L1257.29 146.56L1257.89 145.758L1266.42 152.107L1266.33 152.234L1265.86 152.076L1265.71 152.535L1266.03 152.642L1265.83 152.91L1266.21 153.198L1266.51 152.804L1266.66 152.854L1263.26 162.935L1262.31 162.615L1262 163.531L1262.95 163.851L1259.54 173.932L1258.6 173.612L1258.29 174.528L1259.24 174.848L1255.83 184.928L1254.89 184.609L1254.58 185.525L1255.53 185.845L1252.12 195.925L1251.18 195.606L1250.87 196.522L1251.82 196.842L1248.41 206.922L1247.47 206.602L1247.16 207.519L1248.1 207.838L1244.7 217.919L1243.76 217.599L1243.45 218.516L1244.39 218.835L1240.99 228.916L1240.05 228.596L1239.74 229.512L1240.68 229.832L1237.28 239.913L1236.34 239.593L1236.03 240.509L1236.97 240.829L1233.57 250.909L1232.63 250.59L1232.32 251.506L1233.26 251.826L1229.86 261.906L1228.91 261.586L1228.61 262.503L1229.55 262.823L1226.15 272.903L1225.2 272.583L1224.9 273.5L1225.84 273.819L1222.44 283.9L1222.29 283.85L1222.3 283.358L1221.81 283.353L1221.81 283.687L1221.49 283.58L1221.34 284.038L1221.81 284.195L1221.8 284.353L1211.17 284.233L1211.18 283.233L1210.21 283.222L1210.2 284.222L1199.56 284.102L1199.57 283.103L1198.6 283.092L1198.59 284.092L1187.96 283.972L1187.97 282.972L1187 282.961L1186.99 283.961L1176.35 283.841L1176.36 282.842L1175.39 282.831L1175.38 283.831L1164.75 283.711L1164.76 282.711L1163.79 282.7L1163.78 283.7L1153.14 283.58L1153.15 282.581L1152.18 282.57L1152.17 283.57L1141.53 283.45L1141.55 282.45L1140.58 282.439L1140.57 283.439L1129.93 283.319L1129.94 282.32L1128.97 282.309L1128.96 283.309L1118.32 283.189L1118.34 282.189L1117.37 282.178L1117.36 283.178L1106.72 283.058L1106.73 282.059L1105.76 282.048L1105.75 283.048L1095.11 282.928L1095.13 281.928L1094.16 281.917L1094.15 282.917L1083.51 282.797L1083.51 282.64L1083.98 282.494L1083.84 282.032L1083.52 282.132L1083.52 281.798L1083.04 281.792L1083.03 282.284L1082.88 282.33L1079.71 272.176L1080.66 271.878L1080.37 270.955L1079.42 271.253L1076.25 261.099L1077.2 260.8L1076.91 259.877L1075.96 260.175L1072.78 250.021L1073.74 249.723L1073.45 248.8L1072.49 249.098L1069.32 238.944L1070.28 238.645L1069.99 237.722L1069.03 238.021L1065.86 227.866L1066.81 227.568L1066.53 226.645L1065.57 226.943L1062.4 216.789L1063.35 216.49L1063.06 215.567L1062.11 215.866L1058.94 205.711L1059.89 205.413L1059.6 204.49L1058.65 204.788L1055.47 194.634L1056.43 194.335L1056.14 193.412L1055.18 193.711L1052.01 183.556L1052.97 183.258L1052.68 182.335L1051.72 182.633L1048.55 172.479L1049.5 172.18L1049.21 171.257L1048.26 171.556L1045.09 161.401L1046.04 161.103L1045.75 160.18L1044.8 160.478L1041.62 150.324L1041.77 150.277L1042.06 150.678L1042.45 150.398L1042.26 150.125L1042.58 150.025L1042.44 149.564L1041.97 149.711L1041.87 149.582L1050.55 143.426L1051.13 144.242L1051.92 143.682L1051.34 142.867L1060.02 136.71L1060.6 137.526L1061.38 136.966L1060.81 136.151L1069.48 129.995L1070.06 130.81L1070.85 130.251L1070.27 129.435L1078.95 123.279L1079.53 124.095L1080.32 123.535L1079.74 122.719L1088.41 116.563L1088.99 117.379L1089.78 116.819L1089.2 116.004L1097.88 109.847L1098.46 110.663L1099.25 110.103L1098.67 109.288L1107.34 103.132L1107.92 103.947L1108.71 103.388L1108.13 102.572L1116.81 96.4159L1117.39 97.2315L1118.18 96.6719L1117.6 95.8563L1126.28 89.7002L1126.85 90.5157L1127.64 89.9561L1127.06 89.1405L1135.74 82.9844L1136.32 83.8L1137.11 83.2403L1136.53 82.4248L1145.21 76.2687L1145.79 77.0842L1146.57 76.5246L1146 75.709Z" stroke="#5960B2" stroke-width="2" stroke-dasharray="1 11"/>
<path d="M1145.25 112.525L1154.25 106.142L1154.34 106.275L1154.06 106.654L1154.46 106.954L1154.65 106.705L1154.83 106.958L1155.24 106.668L1154.96 106.282L1155.06 106.151L1163.91 112.735L1163.31 113.537L1164.12 114.136L1164.71 113.333L1173.57 119.917L1172.97 120.719L1173.77 121.318L1174.37 120.515L1183.22 127.099L1182.62 127.901L1183.43 128.5L1184.02 127.697L1192.88 134.281L1192.28 135.083L1193.08 135.682L1193.68 134.879L1202.53 141.463L1201.93 142.265L1202.74 142.864L1203.33 142.061L1212.19 148.645L1211.59 149.447L1212.39 150.046L1212.99 149.243L1221.84 155.827L1221.24 156.629L1222.05 157.228L1222.64 156.425L1231.5 163.009L1231.4 163.139L1230.95 162.988L1230.79 163.463L1231.08 163.562L1230.9 163.811L1231.3 164.11L1231.58 163.731L1231.74 163.783L1228.21 174.235L1227.26 173.915L1226.94 174.865L1227.89 175.185L1224.36 185.636L1223.42 185.317L1223.1 186.267L1224.04 186.587L1220.52 197.038L1219.57 196.719L1219.25 197.669L1220.2 197.988L1216.67 208.44L1215.72 208.12L1215.4 209.07L1216.35 209.39L1212.82 219.842L1211.88 219.522L1211.55 220.472L1212.5 220.792L1208.98 231.244L1208.03 230.924L1207.71 231.874L1208.66 232.194L1205.13 242.645L1204.18 242.326L1203.86 243.276L1204.81 243.595L1201.28 254.047L1201.13 253.995L1201.13 253.522L1200.63 253.517L1200.63 253.826L1200.33 253.727L1200.17 254.202L1200.62 254.354L1200.62 254.517L1189.59 254.393L1189.6 253.393L1188.6 253.381L1188.59 254.381L1177.56 254.257L1177.57 253.257L1176.57 253.246L1176.56 254.246L1165.53 254.122L1165.54 253.122L1164.53 253.111L1164.52 254.111L1153.49 253.987L1153.5 252.987L1152.5 252.975L1152.49 253.975L1141.46 253.851L1141.47 252.851L1140.47 252.84L1140.46 253.84L1129.43 253.716L1129.44 252.716L1128.44 252.705L1128.43 253.705L1117.4 253.581L1117.41 252.581L1116.4 252.569L1116.39 253.569L1105.36 253.445L1105.37 253.282L1105.82 253.141L1105.67 252.663L1105.37 252.755L1105.37 252.445L1104.87 252.44L1104.87 252.913L1104.71 252.961L1101.42 242.433L1102.38 242.135L1102.08 241.177L1101.12 241.476L1097.83 230.947L1098.79 230.649L1098.49 229.692L1097.53 229.99L1094.24 219.462L1095.2 219.164L1094.9 218.207L1093.94 218.505L1090.65 207.977L1091.61 207.678L1091.31 206.721L1090.35 207.02L1087.06 196.491L1088.02 196.193L1087.72 195.236L1086.76 195.534L1083.47 185.006L1084.43 184.708L1084.13 183.75L1083.17 184.049L1079.88 173.52L1080.84 173.222L1080.54 172.265L1079.59 172.563L1076.29 162.035L1076.45 161.986L1076.72 162.372L1077.13 162.082L1076.95 161.829L1077.25 161.737L1077.1 161.258L1076.65 161.399L1076.55 161.266L1085.55 154.884L1086.13 155.699L1086.95 155.119L1086.37 154.303L1095.36 147.92L1095.94 148.736L1096.76 148.156L1096.18 147.34L1105.18 140.957L1105.76 141.773L1106.58 141.193L1106 140.377L1114.99 133.994L1115.57 134.81L1116.39 134.23L1115.81 133.414L1124.81 127.031L1125.39 127.847L1126.2 127.267L1125.62 126.451L1134.62 120.068L1135.2 120.884L1136.02 120.304L1135.44 119.488L1144.43 113.105L1145.01 113.921L1145.83 113.34L1145.25 112.525Z" stroke="#5960B2" stroke-width="2" stroke-dasharray="1 11"/>
<path d="M1171.71 661.303L1173.56 660.442L1173.77 660.895L1174.37 660.618L1174.82 661.1L1175.18 660.76L1176.58 662.257L1176.21 662.598L1177.6 664.095L1177.97 663.755L1179.36 665.252L1178.99 665.592L1180.38 667.09L1180.75 666.749L1182.14 668.247L1181.78 668.587L1183.17 670.084L1183.53 669.744L1184.93 671.241L1184.56 671.582L1185.95 673.079L1186.32 672.739L1187.71 674.236L1187.34 674.576L1188.73 676.074L1189.1 675.733L1190.49 677.231L1190.13 677.571L1191.52 679.068L1191.88 678.728L1193.27 680.225L1192.91 680.566L1194.3 682.063L1194.67 681.723L1196.06 683.22L1195.69 683.56L1197.08 685.058L1197.45 684.717L1198.84 686.214L1198.48 686.555L1199.87 688.052L1200.23 687.712L1201.62 689.209L1201.26 689.55L1202.65 691.047L1203.02 690.706L1204.41 692.204L1204.04 692.544L1205.43 694.041L1205.8 693.701L1207.19 695.198L1206.83 695.539L1208.22 697.036L1208.58 696.696L1209.97 698.193L1209.61 698.533L1211 700.031L1211.37 699.69L1212.76 701.188L1212.39 701.528L1213.78 703.025L1214.15 702.685L1215.54 704.182L1215.17 704.523L1216.57 706.02L1216.93 705.68L1218.32 707.177L1217.96 707.517L1219.35 709.015L1219.72 708.674L1221.11 710.172L1220.74 710.512L1222.13 712.009L1222.5 711.669L1223.89 713.166L1223.52 713.507L1223.97 713.989L1223.65 714.565L1224.09 714.808L1223.1 716.594L1222.66 716.351L1221.66 718.137L1222.1 718.381L1221.11 720.167L1220.67 719.924L1219.68 721.71L1220.11 721.953L1219.12 723.739L1218.68 723.496L1217.69 725.282L1218.13 725.525L1217.13 727.312L1216.69 727.069L1215.7 728.855L1216.14 729.098L1215.14 730.884L1214.71 730.641L1213.71 732.427L1214.15 732.67L1213.16 734.457L1212.72 734.213L1211.72 736L1212.16 736.243L1211.17 738.029L1210.73 737.786L1209.74 739.572L1210.17 739.815L1209.18 741.602L1208.74 741.358L1207.75 743.145L1208.19 743.388L1207.19 745.174L1206.75 744.931L1205.76 746.717L1206.2 746.96L1205.2 748.746L1204.77 748.503L1203.77 750.29L1204.21 750.533L1203.22 752.319L1202.78 752.076L1201.78 753.862L1202.22 754.105L1201.23 755.891L1200.79 755.648L1199.8 757.434L1200.23 757.678L1199.24 759.464L1198.8 759.221L1197.81 761.007L1198.25 761.25L1197.25 763.036L1196.81 762.793L1195.82 764.579L1196.26 764.823L1195.26 766.609L1194.83 766.366L1193.83 768.152L1194.27 768.395L1193.28 770.181L1192.84 769.938L1191.84 771.724L1192.28 771.967L1191.29 773.754L1190.85 773.511L1189.86 775.297L1190.29 775.54L1189.3 777.326L1188.86 777.083L1188.54 777.659L1187.9 777.532L1187.8 778.023L1185.79 777.629L1185.89 777.139L1183.88 776.745L1183.79 777.236L1181.78 776.842L1181.88 776.352L1179.87 775.958L1179.78 776.449L1177.77 776.056L1177.87 775.565L1175.86 775.172L1175.76 775.662L1173.76 775.269L1173.85 774.778L1171.85 774.385L1171.75 774.876L1169.75 774.482L1169.84 773.992L1167.84 773.598L1167.74 774.089L1165.73 773.695L1165.83 773.205L1163.82 772.811L1163.73 773.302L1161.72 772.909L1161.82 772.418L1159.81 772.025L1159.72 772.515L1157.71 772.122L1157.81 771.631L1155.8 771.238L1155.7 771.729L1153.7 771.335L1153.79 770.845L1151.79 770.451L1151.69 770.942L1149.69 770.548L1149.78 770.058L1147.78 769.664L1147.68 770.155L1145.67 769.762L1145.77 769.271L1143.76 768.878L1143.67 769.368L1141.66 768.975L1141.76 768.484L1139.75 768.091L1139.66 768.582L1137.65 768.188L1137.75 767.698L1135.74 767.304L1135.64 767.795L1133.64 767.401L1133.74 766.911L1131.73 766.517L1131.63 767.008L1129.63 766.615L1129.72 766.124L1127.72 765.731L1127.62 766.221L1125.61 765.828L1125.71 765.337L1123.71 764.944L1123.61 765.435L1121.6 765.041L1121.7 764.551L1119.69 764.157L1119.6 764.648L1117.59 764.254L1117.69 763.764L1117.04 763.637L1116.96 762.983L1116.47 763.043L1116.22 761.014L1116.72 760.954L1116.47 758.924L1115.97 758.984L1115.73 756.955L1116.22 756.895L1115.98 754.866L1115.48 754.926L1115.24 752.896L1115.73 752.836L1115.49 750.807L1114.99 750.867L1114.74 748.838L1115.24 748.778L1115 746.748L1114.5 746.808L1114.25 744.779L1114.75 744.719L1114.5 742.69L1114.01 742.75L1113.76 740.72L1114.26 740.66L1114.01 738.631L1113.52 738.691L1113.27 736.662L1113.77 736.601L1113.52 734.572L1113.02 734.632L1112.78 732.603L1113.28 732.543L1113.03 730.513L1112.53 730.574L1112.29 728.544L1112.78 728.484L1112.54 726.455L1112.04 726.515L1111.8 724.485L1112.29 724.425L1112.05 722.396L1111.55 722.456L1111.3 720.427L1111.8 720.367L1111.55 718.337L1111.06 718.397L1110.81 716.368L1111.31 716.308L1111.06 714.279L1110.57 714.339L1110.32 712.309L1110.82 712.249L1110.57 710.22L1110.08 710.28L1109.83 708.251L1110.33 708.191L1110.08 706.161L1109.58 706.221L1109.34 704.192L1109.83 704.132L1109.59 702.103L1109.09 702.163L1108.85 700.133L1109.34 700.073L1109.1 698.044L1108.6 698.104L1108.36 696.075L1108.85 696.015L1108.61 693.985L1108.11 694.045L1107.86 692.016L1108.36 691.956L1108.28 691.302L1108.88 691.024L1108.67 690.571L1110.52 689.71L1110.73 690.164L1112.59 689.303L1112.38 688.849L1114.23 687.988L1114.44 688.442L1116.29 687.581L1116.08 687.128L1117.94 686.267L1118.15 686.72L1120 685.859L1119.79 685.406L1121.65 684.545L1121.86 684.999L1123.71 684.138L1123.5 683.684L1125.35 682.823L1125.57 683.277L1127.42 682.416L1127.21 681.963L1129.06 681.102L1129.27 681.555L1131.13 680.694L1130.92 680.241L1132.77 679.38L1132.98 679.834L1134.84 678.973L1134.62 678.519L1136.48 677.658L1136.69 678.112L1138.54 677.251L1138.33 676.798L1140.19 675.937L1140.4 676.39L1142.25 675.529L1142.04 675.076L1143.9 674.215L1144.11 674.669L1145.96 673.808L1145.75 673.354L1147.6 672.493L1147.81 672.947L1149.67 672.086L1149.46 671.633L1151.31 670.772L1151.52 671.225L1153.38 670.364L1153.17 669.911L1155.02 669.05L1155.23 669.504L1157.08 668.643L1156.87 668.189L1158.73 667.328L1158.94 667.782L1160.79 666.921L1160.58 666.468L1162.44 665.607L1162.65 666.06L1164.5 665.199L1164.29 664.746L1166.14 663.885L1166.35 664.339L1168.21 663.478L1168 663.024L1169.85 662.163L1170.06 662.617L1171.92 661.756L1171.71 661.303Z" stroke="#5960B2" stroke-dasharray="2 2"/>
<path d="M1169.44 673.317L1171.23 672.486L1171.44 672.94L1172 672.678L1172.43 673.134L1172.79 672.793L1174.14 674.237L1173.77 674.578L1175.11 676.022L1175.48 675.681L1176.82 677.126L1176.45 677.466L1177.8 678.91L1178.16 678.57L1179.5 680.014L1179.14 680.354L1180.48 681.798L1180.85 681.458L1182.19 682.902L1181.82 683.242L1183.16 684.686L1183.53 684.346L1184.87 685.79L1184.51 686.13L1185.85 687.574L1186.21 687.234L1187.56 688.678L1187.19 689.018L1188.53 690.462L1188.9 690.122L1190.24 691.566L1189.88 691.907L1191.22 693.351L1191.58 693.01L1192.93 694.454L1192.56 694.795L1193.9 696.239L1194.27 695.898L1195.61 697.342L1195.24 697.683L1196.59 699.127L1196.95 698.786L1198.29 700.231L1197.93 700.571L1199.27 702.015L1199.64 701.675L1200.98 703.119L1200.61 703.459L1201.95 704.903L1202.32 704.563L1203.66 706.007L1203.3 706.347L1204.64 707.791L1205 707.451L1206.35 708.895L1205.98 709.235L1207.32 710.679L1207.69 710.339L1209.03 711.783L1208.67 712.123L1210.01 713.568L1210.37 713.227L1211.72 714.671L1211.35 715.012L1211.77 715.468L1211.47 716.011L1211.91 716.255L1210.95 717.977L1210.51 717.734L1209.55 719.457L1209.99 719.7L1209.03 721.423L1208.59 721.18L1207.64 722.902L1208.07 723.145L1207.11 724.868L1206.68 724.625L1205.72 726.348L1206.16 726.591L1205.2 728.313L1204.76 728.07L1203.8 729.793L1204.24 730.036L1203.28 731.759L1202.84 731.516L1201.88 733.238L1202.32 733.482L1201.36 735.204L1200.93 734.961L1199.97 736.684L1200.4 736.927L1199.45 738.65L1199.01 738.406L1198.05 740.129L1198.49 740.372L1197.53 742.095L1197.09 741.852L1196.13 743.575L1196.57 743.818L1195.61 745.54L1195.17 745.297L1194.21 747.02L1194.65 747.263L1193.69 748.986L1193.26 748.743L1192.3 750.465L1192.73 750.708L1191.78 752.431L1191.34 752.188L1190.38 753.911L1190.82 754.154L1189.86 755.877L1189.42 755.633L1188.46 757.356L1188.9 757.599L1187.94 759.322L1187.5 759.079L1186.55 760.802L1186.98 761.045L1186.02 762.767L1185.59 762.524L1184.63 764.247L1185.07 764.49L1184.11 766.213L1183.67 765.97L1183.37 766.514L1182.76 766.394L1182.66 766.884L1180.73 766.505L1180.82 766.014L1178.89 765.635L1178.79 766.126L1176.86 765.746L1176.95 765.256L1175.02 764.876L1174.92 765.367L1172.99 764.987L1173.08 764.497L1171.15 764.117L1171.05 764.608L1169.12 764.229L1169.21 763.738L1167.28 763.359L1167.18 763.849L1165.25 763.47L1165.34 762.979L1163.41 762.6L1163.31 763.091L1161.38 762.711L1161.48 762.221L1159.54 761.841L1159.44 762.332L1157.51 761.952L1157.61 761.462L1155.67 761.082L1155.58 761.573L1153.64 761.194L1153.74 760.703L1151.8 760.324L1151.71 760.814L1149.77 760.435L1149.87 759.944L1147.93 759.565L1147.84 760.056L1145.9 759.676L1146 759.185L1144.06 758.806L1143.97 759.297L1142.03 758.917L1142.13 758.427L1140.19 758.047L1140.1 758.538L1138.16 758.159L1138.26 757.668L1136.33 757.289L1136.23 757.779L1134.29 757.4L1134.39 756.909L1132.46 756.53L1132.36 757.02L1130.43 756.641L1130.52 756.15L1128.59 755.771L1128.49 756.262L1126.56 755.882L1126.65 755.392L1126.04 755.272L1125.97 754.654L1125.47 754.714L1125.23 752.757L1125.73 752.697L1125.49 750.74L1125 750.8L1124.76 748.843L1125.26 748.782L1125.02 746.825L1124.52 746.885L1124.29 744.928L1124.78 744.868L1124.54 742.911L1124.05 742.971L1123.81 741.014L1124.31 740.954L1124.07 738.997L1123.57 739.057L1123.34 737.1L1123.83 737.039L1123.6 735.082L1123.1 735.142L1122.86 733.185L1123.36 733.125L1123.12 731.168L1122.63 731.228L1122.39 729.271L1122.89 729.211L1122.65 727.254L1122.15 727.314L1121.92 725.357L1122.41 725.296L1122.17 723.339L1121.68 723.399L1121.44 721.442L1121.94 721.382L1121.7 719.425L1121.2 719.485L1120.97 717.528L1121.46 717.468L1121.23 715.511L1120.73 715.571L1120.49 713.614L1120.99 713.553L1120.75 711.596L1120.26 711.656L1120.02 709.699L1120.52 709.639L1120.28 707.682L1119.78 707.742L1119.55 705.785L1120.04 705.725L1119.8 703.768L1119.31 703.828L1119.07 701.871L1119.57 701.81L1119.33 699.853L1118.83 699.913L1118.6 697.956L1119.09 697.896L1119.02 697.278L1119.58 697.016L1119.37 696.563L1121.16 695.732L1121.37 696.186L1123.16 695.356L1122.95 694.902L1124.74 694.072L1124.95 694.525L1126.74 693.695L1126.53 693.242L1128.31 692.412L1128.52 692.865L1130.31 692.035L1130.1 691.581L1131.89 690.751L1132.1 691.205L1133.89 690.374L1133.68 689.921L1135.47 689.091L1135.68 689.544L1137.46 688.714L1137.25 688.26L1139.04 687.43L1139.25 687.884L1141.04 687.054L1140.83 686.6L1142.62 685.77L1142.83 686.223L1144.62 685.393L1144.41 684.94L1146.19 684.109L1146.41 684.563L1148.19 683.733L1147.98 683.279L1149.77 682.449L1149.98 682.902L1151.77 682.072L1151.56 681.619L1153.35 680.789L1153.56 681.242L1155.35 680.412L1155.14 679.958L1156.92 679.128L1157.13 679.582L1158.92 678.751L1158.71 678.298L1160.5 677.468L1160.71 677.921L1162.5 677.091L1162.29 676.637L1164.08 675.807L1164.29 676.261L1166.07 675.431L1165.86 674.977L1167.65 674.147L1167.86 674.6L1169.65 673.77L1169.44 673.317Z" stroke="#5960B2" stroke-dasharray="2 2"/>
<path d="M1170.67 667.131L1172.45 666.307L1172.66 666.76L1173.22 666.501L1173.63 666.952L1174 666.612L1175.33 668.045L1174.97 668.386L1176.3 669.819L1176.67 669.479L1178 670.912L1177.63 671.253L1178.96 672.686L1179.33 672.346L1180.66 673.779L1180.3 674.12L1181.63 675.553L1181.99 675.213L1183.33 676.647L1182.96 676.987L1184.29 678.421L1184.66 678.08L1185.99 679.514L1185.63 679.854L1186.96 681.288L1187.32 680.947L1188.66 682.381L1188.29 682.721L1189.62 684.155L1189.99 683.814L1191.32 685.248L1190.96 685.588L1192.29 687.022L1192.65 686.682L1193.99 688.115L1193.62 688.456L1194.95 689.889L1195.32 689.549L1196.65 690.982L1196.28 691.323L1197.62 692.756L1197.98 692.416L1199.32 693.849L1198.95 694.19L1200.28 695.623L1200.65 695.283L1201.98 696.717L1201.61 697.057L1202.95 698.491L1203.31 698.15L1204.65 699.584L1204.28 699.924L1205.61 701.358L1205.98 701.017L1207.31 702.451L1206.94 702.791L1208.28 704.225L1208.64 703.884L1209.97 705.318L1209.61 705.658L1210.94 707.092L1211.31 706.752L1212.64 708.185L1212.27 708.526L1213.61 709.959L1213.97 709.619L1215.3 711.052L1214.94 711.393L1216.27 712.826L1216.64 712.486L1217.97 713.919L1217.6 714.26L1218.02 714.71L1217.72 715.248L1218.16 715.491L1217.21 717.201L1216.77 716.958L1215.82 718.669L1216.26 718.912L1215.3 720.622L1214.87 720.379L1213.92 722.089L1214.35 722.332L1213.4 724.042L1212.96 723.799L1212.01 725.509L1212.45 725.752L1211.5 727.463L1211.06 727.219L1210.11 728.93L1210.55 729.173L1209.59 730.883L1209.16 730.64L1208.21 732.35L1208.64 732.593L1207.69 734.303L1207.25 734.06L1206.3 735.77L1206.74 736.013L1205.79 737.724L1205.35 737.48L1204.4 739.191L1204.84 739.434L1203.88 741.144L1203.45 740.901L1202.5 742.611L1202.93 742.854L1201.98 744.564L1201.54 744.321L1200.59 746.031L1201.03 746.274L1200.08 747.985L1199.64 747.742L1198.69 749.452L1199.13 749.695L1198.17 751.405L1197.74 751.162L1196.79 752.872L1197.22 753.115L1196.27 754.825L1195.83 754.582L1194.88 756.292L1195.32 756.536L1194.37 758.246L1193.93 758.003L1192.98 759.713L1193.42 759.956L1192.46 761.666L1192.03 761.423L1191.08 763.133L1191.51 763.376L1190.56 765.086L1190.12 764.843L1189.17 766.553L1189.61 766.797L1188.66 768.507L1188.22 768.264L1187.27 769.974L1187.71 770.217L1186.75 771.927L1186.32 771.684L1186.02 772.222L1185.41 772.103L1185.32 772.594L1183.4 772.217L1183.49 771.727L1181.57 771.35L1181.48 771.841L1179.56 771.464L1179.65 770.973L1177.73 770.597L1177.64 771.087L1175.72 770.711L1175.81 770.22L1173.89 769.843L1173.79 770.334L1171.87 769.958L1171.97 769.467L1170.05 769.09L1169.95 769.581L1168.03 769.204L1168.13 768.714L1166.21 768.337L1166.11 768.828L1164.19 768.451L1164.29 767.96L1162.37 767.584L1162.27 768.074L1160.35 767.698L1160.45 767.207L1158.53 766.83L1158.43 767.321L1156.51 766.945L1156.61 766.454L1154.69 766.077L1154.59 766.568L1152.67 766.191L1152.76 765.701L1150.84 765.324L1150.75 765.815L1148.83 765.438L1148.92 764.947L1147 764.571L1146.91 765.061L1144.99 764.685L1145.08 764.194L1143.16 763.817L1143.07 764.308L1141.15 763.932L1141.24 763.441L1139.32 763.064L1139.22 763.555L1137.3 763.178L1137.4 762.688L1135.48 762.311L1135.38 762.802L1133.46 762.425L1133.56 761.934L1131.64 761.558L1131.54 762.048L1129.62 761.672L1129.72 761.181L1127.8 760.804L1127.7 761.295L1125.78 760.919L1125.88 760.428L1123.96 760.051L1123.86 760.542L1121.94 760.165L1122.04 759.675L1121.43 759.556L1121.36 758.945L1120.86 759.005L1120.63 757.063L1121.12 757.002L1120.89 755.059L1120.39 755.12L1120.16 753.177L1120.65 753.117L1120.42 751.174L1119.92 751.234L1119.69 749.291L1120.18 749.231L1119.95 747.288L1119.45 747.348L1119.21 745.405L1119.71 745.345L1119.48 743.402L1118.98 743.462L1118.74 741.519L1119.24 741.459L1119.01 739.516L1118.51 739.576L1118.27 737.633L1118.77 737.573L1118.53 735.63L1118.04 735.69L1117.8 733.747L1118.3 733.687L1118.06 731.744L1117.57 731.804L1117.33 729.861L1117.83 729.801L1117.59 727.858L1117.1 727.918L1116.86 725.975L1117.36 725.915L1117.12 723.972L1116.63 724.032L1116.39 722.09L1116.89 722.029L1116.65 720.086L1116.16 720.147L1115.92 718.204L1116.42 718.144L1116.18 716.201L1115.69 716.261L1115.45 714.318L1115.95 714.258L1115.71 712.315L1115.21 712.375L1114.98 710.432L1115.48 710.372L1115.24 708.429L1114.74 708.489L1114.51 706.546L1115.01 706.486L1114.77 704.543L1114.27 704.603L1114.04 702.66L1114.53 702.6L1114.3 700.657L1113.8 700.717L1113.57 698.774L1114.06 698.714L1113.83 696.771L1113.33 696.831L1113.1 694.888L1113.59 694.828L1113.52 694.217L1114.08 693.958L1113.87 693.505L1115.64 692.681L1115.85 693.134L1117.63 692.31L1117.42 691.856L1119.19 691.032L1119.4 691.486L1121.18 690.662L1120.97 690.208L1122.74 689.384L1122.95 689.837L1124.73 689.013L1124.52 688.56L1126.29 687.736L1126.5 688.189L1128.28 687.365L1128.07 686.911L1129.84 686.087L1130.05 686.541L1131.83 685.716L1131.62 685.263L1133.39 684.439L1133.6 684.892L1135.38 684.068L1135.17 683.615L1136.94 682.79L1137.15 683.244L1138.93 682.42L1138.72 681.966L1140.49 681.142L1140.7 681.596L1142.48 680.771L1142.27 680.318L1144.04 679.494L1144.26 679.947L1146.03 679.123L1145.82 678.67L1147.59 677.845L1147.81 678.299L1149.58 677.475L1149.37 677.021L1151.15 676.197L1151.36 676.651L1153.13 675.826L1152.92 675.373L1154.7 674.549L1154.91 675.002L1156.68 674.178L1156.47 673.724L1158.25 672.9L1158.46 673.354L1160.23 672.53L1160.02 672.076L1161.8 671.252L1162.01 671.705L1163.78 670.881L1163.57 670.428L1165.35 669.604L1165.56 670.057L1167.33 669.233L1167.12 668.779L1168.9 667.955L1169.11 668.409L1170.88 667.585L1170.67 667.131Z" stroke="#5960B2" stroke-dasharray="2 2"/>
<path d="M1166.97 685.639L1168.8 684.789L1169.01 685.243L1169.59 684.971L1170.03 685.444L1170.4 685.104L1171.77 686.582L1171.41 686.923L1172.78 688.402L1173.15 688.061L1174.52 689.54L1174.16 689.881L1175.53 691.359L1175.9 691.019L1177.27 692.498L1176.91 692.838L1178.28 694.317L1178.65 693.977L1180.02 695.456L1179.65 695.796L1181.03 697.275L1181.39 696.934L1182.77 698.413L1182.4 698.754L1183.78 700.232L1184.14 699.892L1185.52 701.371L1185.15 701.711L1186.53 703.19L1186.89 702.85L1188.27 704.329L1187.9 704.669L1189.28 706.148L1189.64 705.807L1191.02 707.286L1190.65 707.627L1192.02 709.106L1192.39 708.765L1193.77 710.244L1193.4 710.584L1194.77 712.063L1195.14 711.723L1196.51 713.202L1196.15 713.542L1197.52 715.021L1197.89 714.681L1199.26 716.159L1198.9 716.5L1199.34 716.973L1199.02 717.538L1199.46 717.781L1198.48 719.545L1198.04 719.302L1197.06 721.066L1197.5 721.309L1196.51 723.073L1196.08 722.83L1195.1 724.595L1195.53 724.838L1194.55 726.602L1194.11 726.359L1193.13 728.123L1193.57 728.366L1192.59 730.13L1192.15 729.887L1191.17 731.651L1191.61 731.894L1190.62 733.659L1190.19 733.415L1189.21 735.18L1189.64 735.423L1188.66 737.187L1188.22 736.944L1187.24 738.708L1187.68 738.951L1186.7 740.715L1186.26 740.472L1185.28 742.236L1185.72 742.48L1184.73 744.244L1184.3 744.001L1183.31 745.765L1183.75 746.008L1182.77 747.772L1182.33 747.529L1181.35 749.293L1181.79 749.536L1180.81 751.301L1180.37 751.057L1179.39 752.822L1179.82 753.065L1178.84 754.829L1178.41 754.586L1178.09 755.15L1177.46 755.026L1177.36 755.517L1175.38 755.128L1175.48 754.638L1173.5 754.249L1173.4 754.74L1171.42 754.351L1171.51 753.861L1169.53 753.472L1169.44 753.963L1167.46 753.574L1167.55 753.083L1165.57 752.695L1165.47 753.186L1163.49 752.797L1163.59 752.306L1161.61 751.918L1161.51 752.409L1159.53 752.02L1159.63 751.529L1157.65 751.141L1157.55 751.632L1155.57 751.243L1155.66 750.752L1153.68 750.364L1153.59 750.854L1151.61 750.466L1151.7 749.975L1149.72 749.587L1149.62 750.077L1147.64 749.689L1147.74 749.198L1145.76 748.81L1145.66 749.3L1143.68 748.912L1143.78 748.421L1141.8 748.033L1141.7 748.523L1139.72 748.135L1139.81 747.644L1137.83 747.256L1137.74 747.746L1135.76 747.358L1135.85 746.867L1135.22 746.743L1135.14 746.101L1134.64 746.161L1134.4 744.157L1134.9 744.097L1134.65 742.093L1134.16 742.153L1133.92 740.148L1134.41 740.088L1134.17 738.084L1133.67 738.144L1133.43 736.14L1133.93 736.08L1133.68 734.075L1133.19 734.136L1132.94 732.131L1133.44 732.071L1133.2 730.067L1132.7 730.127L1132.46 728.123L1132.96 728.063L1132.71 726.058L1132.22 726.118L1131.97 724.114L1132.47 724.054L1132.23 722.05L1131.73 722.11L1131.49 720.105L1131.98 720.045L1131.74 718.041L1131.25 718.101L1131 716.097L1131.5 716.037L1131.26 714.032L1130.76 714.092L1130.52 712.088L1131.01 712.028L1130.77 710.024L1130.27 710.084L1130.03 708.08L1130.53 708.019L1130.29 706.015L1129.79 706.075L1129.55 704.071L1130.04 704.011L1129.97 703.369L1130.55 703.097L1130.34 702.644L1132.17 701.793L1132.38 702.247L1134.21 701.397L1134 700.943L1135.83 700.093L1136.05 700.547L1137.88 699.696L1137.67 699.243L1139.5 698.393L1139.71 698.846L1141.54 697.996L1141.33 697.542L1143.16 696.692L1143.37 697.146L1145.2 696.295L1144.99 695.842L1146.82 694.992L1147.03 695.445L1148.86 694.595L1148.65 694.142L1150.48 693.291L1150.69 693.745L1152.53 692.895L1152.32 692.441L1154.15 691.591L1154.36 692.044L1156.19 691.194L1155.98 690.741L1157.81 689.891L1158.02 690.344L1159.85 689.494L1159.64 689.04L1161.47 688.19L1161.68 688.644L1163.51 687.793L1163.3 687.34L1165.13 686.49L1165.34 686.943L1167.18 686.093L1166.97 685.639Z" stroke="#5960B2" stroke-dasharray="2 2"/>
<path d="M1168.22 679.357L1170.04 678.516L1170.25 678.969L1170.82 678.702L1171.26 679.167L1171.62 678.827L1172.98 680.29L1172.61 680.63L1173.97 682.093L1174.34 681.753L1175.7 683.216L1175.33 683.556L1176.69 685.019L1177.06 684.678L1178.42 686.141L1178.05 686.482L1179.41 687.945L1179.78 687.604L1181.14 689.067L1180.77 689.408L1182.13 690.871L1182.5 690.53L1183.86 691.993L1183.49 692.334L1184.85 693.797L1185.22 693.456L1186.58 694.919L1186.21 695.259L1187.57 696.722L1187.94 696.382L1189.3 697.845L1188.93 698.185L1190.29 699.648L1190.66 699.308L1192.02 700.771L1191.65 701.111L1193.01 702.574L1193.38 702.234L1194.74 703.697L1194.37 704.037L1195.73 705.5L1196.1 705.16L1197.46 706.623L1197.09 706.963L1198.45 708.426L1198.82 708.086L1200.17 709.549L1199.81 709.889L1201.17 711.352L1201.53 711.011L1202.89 712.474L1202.53 712.815L1203.89 714.278L1204.25 713.937L1205.61 715.4L1205.25 715.741L1205.68 716.206L1205.37 716.761L1205.81 717.004L1204.84 718.75L1204.4 718.507L1203.43 720.252L1203.87 720.495L1202.89 722.24L1202.46 721.997L1201.49 723.742L1201.92 723.985L1200.95 725.731L1200.52 725.487L1199.54 727.233L1199.98 727.476L1199.01 729.221L1198.57 728.978L1197.6 730.723L1198.04 730.966L1197.07 732.711L1196.63 732.468L1195.66 734.213L1196.1 734.457L1195.12 736.202L1194.69 735.959L1193.72 737.704L1194.15 737.947L1193.18 739.692L1192.75 739.449L1191.77 741.194L1192.21 741.437L1191.24 743.183L1190.8 742.94L1189.83 744.685L1190.27 744.928L1189.3 746.673L1188.86 746.43L1187.89 748.175L1188.33 748.418L1187.36 750.164L1186.92 749.92L1185.95 751.666L1186.38 751.909L1185.41 753.654L1184.98 753.411L1184.01 755.156L1184.44 755.399L1183.47 757.144L1183.03 756.901L1182.06 758.647L1182.5 758.89L1181.53 760.635L1181.09 760.392L1180.78 760.947L1180.16 760.825L1180.06 761.315L1178.1 760.931L1178.2 760.44L1176.24 760.056L1176.14 760.547L1174.18 760.162L1174.28 759.672L1172.32 759.287L1172.22 759.778L1170.26 759.394L1170.36 758.903L1168.4 758.519L1168.3 759.009L1166.34 758.625L1166.44 758.134L1164.48 757.75L1164.38 758.241L1162.42 757.856L1162.52 757.366L1160.56 756.981L1160.46 757.472L1158.5 757.088L1158.6 756.597L1156.64 756.213L1156.54 756.703L1154.58 756.319L1154.68 755.828L1152.72 755.444L1152.62 755.935L1150.66 755.55L1150.76 755.06L1148.8 754.675L1148.7 755.166L1146.74 754.782L1146.84 754.291L1144.88 753.907L1144.78 754.397L1142.82 754.013L1142.92 753.522L1140.96 753.138L1140.86 753.628L1138.9 753.244L1139 752.754L1137.04 752.369L1136.94 752.86L1134.98 752.475L1135.08 751.985L1133.12 751.6L1133.02 752.091L1131.07 751.707L1131.16 751.216L1130.54 751.094L1130.46 750.463L1129.97 750.523L1129.72 748.54L1130.22 748.48L1129.98 746.498L1129.48 746.558L1129.24 744.575L1129.74 744.515L1129.5 742.532L1129 742.592L1128.76 740.609L1129.26 740.549L1129.02 738.567L1128.52 738.627L1128.28 736.644L1128.78 736.584L1128.54 734.601L1128.04 734.661L1127.8 732.678L1128.3 732.618L1128.06 730.636L1127.56 730.696L1127.32 728.713L1127.82 728.653L1127.58 726.67L1127.08 726.73L1126.84 724.747L1127.34 724.687L1127.1 722.705L1126.6 722.765L1126.36 720.782L1126.86 720.722L1126.62 718.739L1126.12 718.799L1125.88 716.816L1126.38 716.756L1126.14 714.774L1125.64 714.834L1125.4 712.851L1125.9 712.791L1125.66 710.808L1125.16 710.868L1124.92 708.885L1125.42 708.825L1125.18 706.842L1124.68 706.903L1124.44 704.92L1124.94 704.86L1124.7 702.877L1124.2 702.937L1123.96 700.954L1124.46 700.894L1124.38 700.263L1124.96 699.996L1124.75 699.542L1126.56 698.701L1126.77 699.155L1128.58 698.314L1128.37 697.86L1130.18 697.019L1130.39 697.473L1132.2 696.632L1131.99 696.178L1133.81 695.337L1134.02 695.791L1135.83 694.95L1135.62 694.496L1137.43 693.655L1137.64 694.108L1139.45 693.267L1139.24 692.814L1141.05 691.973L1141.26 692.426L1143.07 691.585L1142.86 691.132L1144.67 690.291L1144.89 690.744L1146.7 689.903L1146.49 689.45L1148.3 688.609L1148.51 689.062L1150.32 688.221L1150.11 687.767L1151.92 686.926L1152.13 687.38L1153.94 686.539L1153.73 686.085L1155.54 685.244L1155.75 685.698L1157.57 684.857L1157.36 684.403L1159.17 683.562L1159.38 684.016L1161.19 683.175L1160.98 682.721L1162.79 681.88L1163 682.334L1164.81 681.492L1164.6 681.039L1166.41 680.198L1166.62 680.651L1168.43 679.81L1168.22 679.357Z" stroke="#5960B2" stroke-dasharray="2 2"/>
<path d="M1165.6 692.739L1167.41 691.9L1167.62 692.353L1168.2 692.086L1168.63 692.55L1169 692.21L1170.35 693.671L1169.99 694.011L1171.35 695.472L1171.71 695.131L1173.07 696.592L1172.7 696.932L1174.06 698.393L1174.43 698.053L1175.78 699.513L1175.42 699.854L1176.78 701.314L1177.14 700.974L1178.5 702.434L1178.13 702.775L1179.49 704.236L1179.86 703.895L1181.21 705.356L1180.85 705.696L1182.21 707.157L1182.57 706.816L1183.93 708.277L1183.56 708.617L1184.92 710.078L1185.29 709.738L1186.64 711.198L1186.28 711.539L1187.64 712.999L1188 712.659L1189.36 714.12L1188.99 714.46L1190.35 715.921L1190.72 715.58L1192.07 717.041L1191.71 717.381L1192.14 717.845L1191.83 718.399L1192.27 718.642L1191.3 720.385L1190.86 720.142L1189.89 721.884L1190.33 722.127L1189.36 723.87L1188.92 723.627L1187.95 725.369L1188.39 725.612L1187.42 727.355L1186.98 727.112L1186.01 728.854L1186.45 729.097L1185.48 730.84L1185.04 730.597L1184.07 732.339L1184.51 732.582L1183.54 734.325L1183.11 734.082L1182.14 735.824L1182.57 736.067L1181.6 737.81L1181.17 737.566L1180.2 739.309L1180.63 739.552L1179.66 741.295L1179.23 741.051L1178.26 742.794L1178.69 743.037L1177.72 744.779L1177.29 744.536L1176.32 746.279L1176.75 746.522L1175.78 748.264L1175.35 748.021L1175.04 748.575L1174.42 748.453L1174.32 748.944L1172.36 748.56L1172.46 748.069L1170.5 747.686L1170.41 748.176L1168.45 747.793L1168.55 747.302L1166.59 746.918L1166.49 747.409L1164.54 747.025L1164.63 746.534L1162.68 746.151L1162.58 746.641L1160.62 746.258L1160.72 745.767L1158.76 745.383L1158.67 745.874L1156.71 745.49L1156.81 744.999L1154.85 744.616L1154.75 745.106L1152.8 744.723L1152.89 744.232L1150.94 743.848L1150.84 744.339L1148.88 743.955L1148.98 743.465L1147.02 743.081L1146.93 743.571L1144.97 743.188L1145.07 742.697L1143.11 742.313L1143.01 742.804L1141.06 742.42L1141.15 741.93L1140.53 741.808L1140.45 741.178L1139.96 741.239L1139.72 739.259L1140.21 739.199L1139.97 737.219L1139.48 737.279L1139.24 735.3L1139.73 735.24L1139.49 733.26L1139 733.32L1138.76 731.34L1139.26 731.28L1139.02 729.301L1138.52 729.361L1138.28 727.381L1138.78 727.321L1138.54 725.341L1138.04 725.402L1137.8 723.422L1138.3 723.362L1138.06 721.382L1137.56 721.442L1137.32 719.463L1137.82 719.403L1137.58 717.423L1137.08 717.483L1136.84 715.503L1137.34 715.443L1137.1 713.464L1136.6 713.524L1136.36 711.544L1136.86 711.484L1136.62 709.504L1136.12 709.564L1135.88 707.585L1136.38 707.525L1136.3 706.896L1136.88 706.629L1136.67 706.175L1138.47 705.335L1138.69 705.789L1140.49 704.949L1140.28 704.496L1142.09 703.656L1142.3 704.109L1144.11 703.27L1143.9 702.816L1145.71 701.976L1145.92 702.43L1147.73 701.59L1147.52 701.137L1149.33 700.297L1149.54 700.75L1151.35 699.911L1151.14 699.457L1152.94 698.617L1153.15 699.071L1154.96 698.231L1154.75 697.778L1156.56 696.938L1156.77 697.391L1158.58 696.552L1158.37 696.098L1160.18 695.259L1160.39 695.712L1162.2 694.872L1161.99 694.419L1163.8 693.579L1164.01 694.033L1165.82 693.193L1165.6 692.739Z" stroke="#5960B2" stroke-dasharray="2 2"/>
<path d="M770.086 552.3L822.668 558.099L833.401 609.9L787.452 636.114L748.322 600.516L770.086 552.3Z" fill="#7A82BF"/>
</svg>
