<svg width="1440" height="120" viewBox="0 0 1440 120" fill="none" xmlns="http://www.w3.org/2000/svg">
<g clip-path="url(#clip0_200_3130)">
<rect width="1440" height="120" fill="#303784"/>
<circle cx="12" cy="10" r="25" fill="#4A5097"/>
<circle cx="923" cy="1" r="25" fill="#4A5097"/>
<circle cx="177" cy="1" r="16" fill="#4A5097"/>
<circle cx="262" cy="104" r="26" fill="#4A5097"/>
<circle cx="1166.5" cy="59.5" r="9.5" fill="#4A5097"/>
<path d="M105.958 83.0535L134.858 98.2837L107.218 115.697L105.958 83.0535Z" fill="#4A5097"/>
<path d="M708.265 50.3397L744.918 69.6036L709.817 91.717L708.265 50.3397Z" fill="#4A5097"/>
<path d="M1403.29 119.172L1403.05 119.968L1403.25 120.026L1403.17 120.282L1403.39 120.433L1403.28 120.601L1403.96 121.071L1404.07 120.903L1404.76 121.373L1404.64 121.541L1405.33 122.011L1405.44 121.844L1406.13 122.314L1406.01 122.481L1406.69 122.951L1406.81 122.784L1407.49 123.254L1407.38 123.421L1408.06 123.891L1408.18 123.724L1408.86 124.194L1408.75 124.361L1409.43 124.831L1409.54 124.664L1410.23 125.134L1410.11 125.301L1410.8 125.771L1410.91 125.604L1411.6 126.074L1411.48 126.241L1412.16 126.711L1412.28 126.544L1412.96 127.014L1412.85 127.181L1413.53 127.651L1413.65 127.484L1414.33 127.954L1414.22 128.121L1414.9 128.591L1415.01 128.424L1415.7 128.894L1415.58 129.061L1416.27 129.531L1416.38 129.364L1417.07 129.834L1416.95 130.001L1417.63 130.471L1417.75 130.304L1418.43 130.774L1418.32 130.942L1419 131.412L1419.12 131.244L1419.8 131.714L1419.69 131.882L1420.37 132.352L1420.48 132.184L1421.17 132.654L1421.05 132.822L1421.74 133.292L1421.85 133.124L1422.54 133.595L1422.42 133.762L1423.1 134.232L1423.22 134.065L1423.9 134.535L1423.79 134.702L1424.47 135.172L1424.59 135.005L1425.27 135.475L1425.16 135.642L1425.84 136.112L1425.95 135.945L1426.64 136.415L1426.52 136.582L1427.21 137.052L1427.32 136.885L1427.54 137.036L1427.75 136.874L1427.88 137.035L1428.54 136.53L1428.41 136.368L1429.07 135.863L1429.19 136.024L1429.85 135.519L1429.73 135.358L1430.39 134.853L1430.51 135.014L1431.17 134.509L1431.05 134.348L1431.7 133.843L1431.83 134.004L1432.49 133.499L1432.36 133.338L1433.02 132.833L1433.14 132.994L1433.8 132.489L1433.68 132.328L1434.34 131.823L1434.46 131.984L1435.12 131.479L1435 131.318L1435.65 130.813L1435.78 130.974L1436.44 130.469L1436.31 130.308L1436.97 129.803L1437.09 129.964L1437.75 129.459L1437.63 129.298L1438.29 128.793L1438.41 128.954L1439.07 128.449L1438.95 128.288L1439.6 127.783L1439.73 127.944L1440.39 127.439L1440.26 127.278L1440.92 126.773L1441.04 126.934L1441.7 126.429L1441.58 126.268L1442.24 125.763L1442.36 125.924L1443.02 125.419L1442.9 125.258L1443.55 124.753L1443.68 124.914L1444.34 124.409L1444.21 124.248L1444.87 123.743L1444.99 123.904L1445.65 123.399L1445.53 123.238L1446.19 122.733L1446.31 122.894L1446.97 122.389L1446.85 122.228L1447.5 121.723L1447.63 121.884L1448.29 121.379L1448.16 121.218L1448.82 120.713L1448.94 120.874L1449.6 120.369L1449.48 120.208L1450.14 119.703L1450.26 119.864L1450.92 119.358L1450.8 119.197L1451.01 119.035L1450.92 118.783L1451.11 118.715L1450.83 117.933L1450.64 118L1450.36 117.218L1450.56 117.151L1450.28 116.368L1450.09 116.436L1449.81 115.654L1450 115.586L1449.73 114.804L1449.53 114.872L1449.26 114.09L1449.45 114.022L1449.17 113.24L1448.98 113.307L1448.7 112.525L1448.9 112.458L1448.62 111.675L1448.43 111.743L1448.15 110.961L1448.34 110.893L1448.06 110.111L1447.87 110.179L1447.6 109.397L1447.79 109.329L1447.51 108.547L1447.32 108.614L1447.04 107.832L1447.23 107.765L1446.96 106.982L1446.77 107.05L1446.49 106.268L1446.68 106.2L1446.4 105.418L1446.21 105.486L1445.93 104.704L1446.13 104.636L1445.85 103.854L1445.66 103.922L1445.38 103.139L1445.57 103.072L1445.3 102.289L1445.1 102.357L1444.83 101.575L1445.02 101.507L1444.74 100.725L1444.55 100.793L1444.27 100.011L1444.46 99.943L1444.19 99.1608L1444 99.2285L1443.72 98.4463L1443.91 98.3786L1443.63 97.5965L1443.44 97.6642L1443.17 96.882L1443.36 96.8143L1443.08 96.0321L1442.89 96.0999L1442.61 95.3177L1442.8 95.25L1442.53 94.4678L1442.34 94.5355L1442.06 93.7534L1442.25 93.6856L1441.97 92.9035L1441.78 92.9712L1441.5 92.189L1441.7 92.1213L1441.42 91.3391L1441.23 91.4069L1441.14 91.1548L1440.87 91.1618L1440.87 90.9589L1440.04 90.9805L1440.04 91.1834L1439.21 91.205L1439.21 91.0021L1438.38 91.0237L1438.38 91.2266L1437.55 91.2483L1437.55 91.0454L1436.72 91.067L1436.72 91.2699L1435.89 91.2915L1435.89 91.0886L1435.06 91.1102L1435.07 91.3131L1434.24 91.3348L1434.23 91.1319L1433.4 91.1535L1433.41 91.3564L1432.58 91.378L1432.57 91.1751L1431.74 91.1968L1431.75 91.3996L1430.92 91.4213L1430.91 91.2184L1430.08 91.24L1430.09 91.4429L1429.26 91.4645L1429.25 91.2616L1428.42 91.2833L1428.43 91.4861L1427.6 91.5078L1427.6 91.3049L1426.77 91.3265L1426.77 91.5294L1425.94 91.551L1425.94 91.3481L1425.11 91.3698L1425.11 91.5726L1424.28 91.5943L1424.28 91.3914L1423.45 91.413L1423.45 91.6159L1422.62 91.6375L1422.62 91.4346L1421.79 91.4563L1421.79 91.6591L1420.96 91.6808L1420.96 91.4779L1420.13 91.4995L1420.14 91.7024L1419.31 91.724L1419.3 91.5211L1418.47 91.5428L1418.48 91.7456L1417.65 91.7673L1417.64 91.5644L1416.81 91.586L1416.82 91.7889L1415.99 91.8105L1415.98 91.6076L1415.15 91.6293L1415.16 91.8321L1414.33 91.8538L1414.32 91.6509L1413.49 91.6725L1413.5 91.8754L1412.67 91.897L1412.67 91.6941L1411.84 91.7158L1411.84 91.9186L1411.57 91.9256L1411.5 92.182L1411.3 92.1243L1411.07 92.9199L1411.26 92.9775L1411.03 93.7731L1410.83 93.7154L1410.6 94.5109L1410.79 94.5686L1410.55 95.3641L1410.36 95.3064L1410.12 96.102L1410.32 96.1596L1410.08 96.9552L1409.89 96.8975L1409.65 97.693L1409.85 97.7507L1409.61 98.5462L1409.42 98.4886L1409.18 99.2841L1409.38 99.3418L1409.14 100.137L1408.95 100.08L1408.71 100.875L1408.9 100.933L1408.67 101.728L1408.47 101.671L1408.24 102.466L1408.43 102.524L1408.2 103.319L1408 103.262L1407.77 104.057L1407.96 104.115L1407.73 104.91L1407.53 104.853L1407.3 105.648L1407.49 105.706L1407.25 106.502L1407.06 106.444L1406.82 107.239L1407.02 107.297L1406.78 108.093L1406.59 108.035L1406.35 108.83L1406.55 108.888L1406.31 109.684L1406.12 109.626L1405.88 110.422L1406.08 110.479L1405.84 111.275L1405.65 111.217L1405.41 112.013L1405.6 112.07L1405.37 112.866L1405.17 112.808L1404.94 113.604L1405.13 113.661L1404.9 114.457L1404.7 114.399L1404.47 115.195L1404.66 115.252L1404.43 116.048L1404.23 115.99L1403.99 116.786L1404.19 116.843L1403.95 117.639L1403.76 117.581L1403.52 118.377L1403.72 118.434L1403.48 119.23L1403.29 119.172Z" stroke="#5960B2" stroke-width="0.405897" stroke-dasharray="0.81 0.81"/>
<path d="M1407.98 117.55L1407.75 118.317L1407.94 118.375L1407.87 118.617L1408.08 118.76L1407.97 118.927L1408.62 119.381L1408.74 119.213L1409.4 119.667L1409.28 119.834L1409.94 120.287L1410.06 120.12L1410.72 120.573L1410.6 120.741L1411.26 121.194L1411.38 121.027L1412.04 121.48L1411.92 121.647L1412.58 122.101L1412.7 121.933L1413.36 122.387L1413.24 122.554L1413.9 123.007L1414.02 122.84L1414.67 123.293L1414.56 123.461L1415.22 123.914L1415.33 123.747L1415.99 124.2L1415.88 124.367L1416.54 124.821L1416.65 124.653L1417.31 125.107L1417.2 125.274L1417.86 125.727L1417.97 125.56L1418.63 126.013L1418.52 126.18L1419.18 126.634L1419.29 126.467L1419.95 126.92L1419.84 127.087L1420.49 127.54L1420.61 127.373L1421.27 127.827L1421.15 127.994L1421.81 128.447L1421.93 128.28L1422.59 128.733L1422.47 128.9L1423.13 129.354L1423.25 129.186L1423.91 129.64L1423.79 129.807L1424.45 130.26L1424.57 130.093L1425.23 130.546L1425.11 130.714L1425.77 131.167L1425.88 131L1426.54 131.453L1426.43 131.62L1427.09 132.074L1427.2 131.906L1427.41 132.05L1427.61 131.896L1427.74 132.057L1428.37 131.57L1428.25 131.409L1428.88 130.922L1429.01 131.083L1429.64 130.596L1429.52 130.435L1430.15 129.947L1430.28 130.108L1430.91 129.621L1430.79 129.46L1431.42 128.973L1431.55 129.134L1432.18 128.647L1432.06 128.486L1432.69 127.999L1432.82 128.16L1433.45 127.673L1433.33 127.512L1433.96 127.025L1434.09 127.186L1434.72 126.699L1434.6 126.538L1435.23 126.051L1435.35 126.212L1435.99 125.725L1435.87 125.564L1436.5 125.077L1436.62 125.238L1437.26 124.751L1437.14 124.59L1437.77 124.103L1437.89 124.264L1438.53 123.777L1438.41 123.616L1439.04 123.129L1439.16 123.29L1439.8 122.802L1439.68 122.641L1440.31 122.154L1440.43 122.315L1441.07 121.828L1440.95 121.667L1441.58 121.18L1441.7 121.341L1442.34 120.854L1442.22 120.693L1442.85 120.206L1442.97 120.367L1443.61 119.88L1443.49 119.719L1444.12 119.232L1444.24 119.393L1444.88 118.906L1444.75 118.745L1445.39 118.258L1445.51 118.419L1446.15 117.932L1446.02 117.771L1446.23 117.617L1446.14 117.379L1446.33 117.311L1446.07 116.557L1445.87 116.625L1445.61 115.87L1445.8 115.802L1445.53 115.048L1445.34 115.116L1445.07 114.361L1445.26 114.294L1445 113.539L1444.81 113.607L1444.54 112.853L1444.73 112.785L1444.46 112.031L1444.27 112.098L1444 111.344L1444.2 111.276L1443.93 110.522L1443.74 110.59L1443.47 109.835L1443.66 109.768L1443.39 109.013L1443.2 109.081L1442.94 108.327L1443.13 108.259L1442.86 107.505L1442.67 107.572L1442.4 106.818L1442.59 106.75L1442.33 105.996L1442.14 106.064L1441.87 105.309L1442.06 105.242L1441.79 104.487L1441.6 104.555L1441.33 103.801L1441.53 103.733L1441.26 102.979L1441.07 103.046L1440.8 102.292L1440.99 102.224L1440.72 101.47L1440.53 101.538L1440.27 100.783L1440.46 100.716L1440.19 99.9612L1440 100.029L1439.73 99.2746L1439.92 99.2069L1439.66 98.4525L1439.47 98.5203L1439.2 97.7659L1439.39 97.6982L1439.12 96.9439L1438.93 97.0116L1438.66 96.2572L1438.86 96.1895L1438.59 95.4352L1438.4 95.5029L1438.31 95.2647L1438.06 95.2713L1438.05 95.0684L1437.25 95.0893L1437.26 95.2922L1436.46 95.313L1436.45 95.1101L1435.65 95.131L1435.66 95.3339L1434.86 95.3547L1434.86 95.1518L1434.06 95.1727L1434.06 95.3756L1433.26 95.3964L1433.26 95.1936L1432.46 95.2144L1432.46 95.4173L1431.66 95.4382L1431.66 95.2353L1430.86 95.2561L1430.86 95.459L1430.06 95.4799L1430.06 95.277L1429.26 95.2978L1429.26 95.5007L1428.46 95.5216L1428.46 95.3187L1427.66 95.3396L1427.66 95.5424L1426.86 95.5633L1426.86 95.3604L1426.06 95.3813L1426.06 95.5841L1425.26 95.605L1425.26 95.4021L1424.46 95.423L1424.46 95.6259L1423.66 95.6467L1423.66 95.4438L1422.86 95.4647L1422.86 95.6676L1422.06 95.6884L1422.06 95.4855L1421.26 95.5064L1421.26 95.7093L1420.46 95.7301L1420.46 95.5273L1419.66 95.5481L1419.66 95.751L1418.86 95.7719L1418.86 95.569L1418.06 95.5898L1418.06 95.7927L1417.26 95.8136L1417.26 95.6107L1416.46 95.6315L1416.46 95.8344L1415.66 95.8553L1415.66 95.6524L1414.86 95.6733L1414.86 95.8761L1414.61 95.8827L1414.54 96.125L1414.34 96.0673L1414.12 96.8345L1414.31 96.8922L1414.08 97.6594L1413.89 97.6018L1413.66 98.369L1413.86 98.4267L1413.63 99.1939L1413.43 99.1362L1413.21 99.9035L1413.4 99.9611L1413.17 100.728L1412.98 100.671L1412.75 101.438L1412.95 101.496L1412.72 102.263L1412.52 102.205L1412.3 102.972L1412.49 103.03L1412.26 103.797L1412.07 103.74L1411.84 104.507L1412.04 104.565L1411.81 105.332L1411.61 105.274L1411.39 106.041L1411.58 106.099L1411.35 106.866L1411.16 106.809L1410.93 107.576L1411.13 107.633L1410.9 108.401L1410.71 108.343L1410.48 109.11L1410.67 109.168L1410.45 109.935L1410.25 109.877L1410.02 110.645L1410.22 110.702L1409.99 111.47L1409.8 111.412L1409.57 112.179L1409.76 112.237L1409.54 113.004L1409.34 112.946L1409.11 113.714L1409.31 113.771L1409.08 114.539L1408.89 114.481L1408.66 115.248L1408.85 115.306L1408.63 116.073L1408.43 116.015L1408.2 116.783L1408.4 116.84L1408.17 117.607L1407.98 117.55Z" stroke="#5960B2" stroke-width="0.405897" stroke-dasharray="0.81 0.81"/>
<path d="M1405.57 118.411L1405.34 119.172L1405.53 119.23L1405.46 119.47L1405.67 119.611L1405.55 119.778L1406.21 120.228L1406.32 120.061L1406.98 120.511L1406.86 120.678L1407.52 121.128L1407.63 120.961L1408.29 121.411L1408.17 121.578L1408.83 122.028L1408.94 121.861L1409.6 122.311L1409.48 122.478L1410.14 122.928L1410.25 122.761L1410.91 123.211L1410.79 123.378L1411.45 123.828L1411.56 123.661L1412.22 124.111L1412.1 124.278L1412.76 124.729L1412.87 124.561L1413.53 125.011L1413.41 125.179L1414.07 125.629L1414.18 125.461L1414.83 125.911L1414.72 126.079L1415.37 126.529L1415.49 126.361L1416.14 126.811L1416.03 126.979L1416.68 127.429L1416.8 127.261L1417.45 127.711L1417.34 127.879L1417.99 128.329L1418.11 128.161L1418.76 128.612L1418.65 128.779L1419.3 129.229L1419.42 129.062L1420.07 129.512L1419.96 129.679L1420.61 130.129L1420.73 129.962L1421.38 130.412L1421.27 130.579L1421.92 131.029L1422.04 130.862L1422.69 131.312L1422.58 131.479L1423.23 131.929L1423.34 131.762L1424 132.212L1423.88 132.379L1424.54 132.829L1424.65 132.662L1425.31 133.112L1425.19 133.279L1425.85 133.729L1425.96 133.562L1426.62 134.012L1426.5 134.179L1427.16 134.629L1427.27 134.462L1427.48 134.603L1427.68 134.451L1427.8 134.612L1428.43 134.129L1428.31 133.968L1428.94 133.484L1429.06 133.645L1429.69 133.162L1429.57 133.001L1430.2 132.517L1430.32 132.678L1430.95 132.195L1430.83 132.034L1431.46 131.55L1431.58 131.711L1432.21 131.228L1432.09 131.067L1432.72 130.583L1432.84 130.744L1433.47 130.261L1433.35 130.1L1433.98 129.616L1434.1 129.777L1434.73 129.294L1434.61 129.133L1435.24 128.649L1435.36 128.81L1435.99 128.326L1435.87 128.165L1436.5 127.682L1436.62 127.843L1437.25 127.359L1437.13 127.198L1437.76 126.715L1437.88 126.876L1438.52 126.392L1438.39 126.231L1439.02 125.748L1439.15 125.909L1439.78 125.425L1439.65 125.264L1440.28 124.781L1440.41 124.942L1441.04 124.458L1440.91 124.297L1441.54 123.814L1441.67 123.975L1442.3 123.491L1442.17 123.33L1442.8 122.847L1442.93 123.008L1443.56 122.524L1443.43 122.363L1444.06 121.88L1444.19 122.041L1444.82 121.557L1444.69 121.396L1445.32 120.913L1445.45 121.074L1446.08 120.59L1445.96 120.429L1446.59 119.946L1446.71 120.107L1447.34 119.623L1447.22 119.462L1447.85 118.978L1447.97 119.139L1448.6 118.656L1448.48 118.495L1448.67 118.343L1448.59 118.107L1448.78 118.04L1448.52 117.291L1448.33 117.359L1448.06 116.61L1448.25 116.542L1447.99 115.793L1447.8 115.861L1447.53 115.112L1447.72 115.044L1447.46 114.295L1447.27 114.363L1447 113.614L1447.19 113.547L1446.93 112.798L1446.74 112.865L1446.47 112.117L1446.66 112.049L1446.4 111.3L1446.21 111.368L1445.94 110.619L1446.13 110.551L1445.87 109.802L1445.68 109.87L1445.41 109.121L1445.6 109.053L1445.34 108.305L1445.14 108.372L1444.88 107.623L1445.07 107.556L1444.81 106.807L1444.61 106.875L1444.35 106.126L1444.54 106.058L1444.28 105.309L1444.08 105.377L1443.82 104.628L1444.01 104.56L1443.75 103.811L1443.55 103.879L1443.29 103.13L1443.48 103.063L1443.22 102.314L1443.02 102.381L1442.76 101.633L1442.95 101.565L1442.69 100.816L1442.49 100.884L1442.23 100.135L1442.42 100.067L1442.16 99.3182L1441.96 99.3859L1441.7 98.6371L1441.89 98.5693L1441.63 97.8205L1441.43 97.8882L1441.17 97.1393L1441.36 97.0716L1441.09 96.3228L1440.9 96.3905L1440.64 95.6416L1440.83 95.5739L1440.56 94.825L1440.37 94.8928L1440.11 94.1439L1440.3 94.0762L1440.03 93.3273L1439.84 93.395L1439.76 93.1596L1439.51 93.1661L1439.5 92.9632L1438.71 92.9839L1438.72 93.1868L1437.92 93.2075L1437.92 93.0046L1437.12 93.0253L1437.13 93.2282L1436.33 93.2489L1436.33 93.046L1435.53 93.0668L1435.54 93.2696L1434.75 93.2903L1434.74 93.0875L1433.95 93.1082L1433.95 93.311L1433.16 93.3317L1433.15 93.1289L1432.36 93.1496L1432.36 93.3524L1431.57 93.3732L1431.56 93.1703L1430.77 93.191L1430.77 93.3939L1429.98 93.4146L1429.98 93.2117L1429.18 93.2324L1429.19 93.4353L1428.39 93.456L1428.39 93.2531L1427.59 93.2738L1427.6 93.4767L1426.8 93.4974L1426.8 93.2945L1426 93.3152L1426.01 93.5181L1425.22 93.5388L1425.21 93.3359L1424.42 93.3566L1424.42 93.5595L1423.63 93.5802L1423.62 93.3773L1422.83 93.398L1422.83 93.6009L1422.04 93.6216L1422.03 93.4187L1421.24 93.4394L1421.25 93.6423L1420.45 93.663L1420.45 93.4601L1419.65 93.4808L1419.66 93.6837L1418.86 93.7044L1418.86 93.5015L1418.06 93.5223L1418.07 93.7251L1417.27 93.7458L1417.27 93.543L1416.48 93.5637L1416.48 93.7665L1415.69 93.7872L1415.68 93.5844L1414.89 93.6051L1414.89 93.808L1414.1 93.8287L1414.09 93.6258L1413.3 93.6465L1413.3 93.8494L1413.05 93.8559L1412.98 94.0953L1412.79 94.0377L1412.56 94.7993L1412.76 94.857L1412.53 95.6186L1412.34 95.561L1412.11 96.3226L1412.31 96.3803L1412.08 97.142L1411.89 97.0843L1411.66 97.846L1411.85 97.9036L1411.63 98.6653L1411.43 98.6076L1411.21 99.3693L1411.4 99.4269L1411.18 100.189L1410.98 100.131L1410.76 100.893L1410.95 100.95L1410.73 101.712L1410.53 101.654L1410.31 102.416L1410.5 102.474L1410.27 103.235L1410.08 103.178L1409.85 103.939L1410.05 103.997L1409.82 104.759L1409.63 104.701L1409.4 105.463L1409.6 105.52L1409.37 106.282L1409.18 106.224L1408.95 106.986L1409.15 107.044L1408.92 107.805L1408.73 107.748L1408.5 108.509L1408.69 108.567L1408.47 109.328L1408.27 109.271L1408.05 110.032L1408.24 110.09L1408.02 110.852L1407.82 110.794L1407.6 111.556L1407.79 111.613L1407.57 112.375L1407.37 112.317L1407.15 113.079L1407.34 113.137L1407.11 113.898L1406.92 113.841L1406.69 114.602L1406.89 114.66L1406.66 115.422L1406.47 115.364L1406.24 116.126L1406.44 116.183L1406.21 116.945L1406.02 116.887L1405.79 117.649L1405.99 117.707L1405.76 118.468L1405.57 118.411Z" stroke="#5960B2" stroke-width="0.405897" stroke-dasharray="0.81 0.81"/>
<path d="M1412.78 115.826L1412.55 116.612L1412.74 116.669L1412.67 116.921L1412.88 117.069L1412.77 117.237L1413.44 117.701L1413.56 117.534L1414.23 117.998L1414.12 118.165L1414.79 118.629L1414.91 118.462L1415.58 118.926L1415.47 119.093L1416.14 119.558L1416.26 119.39L1416.93 119.855L1416.82 120.022L1417.49 120.486L1417.61 120.319L1418.29 120.783L1418.17 120.95L1418.85 121.415L1418.96 121.247L1419.64 121.712L1419.52 121.879L1420.2 122.343L1420.31 122.176L1420.99 122.64L1420.87 122.807L1421.55 123.272L1421.66 123.104L1422.34 123.569L1422.22 123.736L1422.9 124.2L1423.01 124.033L1423.69 124.497L1423.57 124.664L1424.25 125.129L1424.36 124.961L1425.04 125.426L1424.92 125.593L1425.6 126.057L1425.71 125.89L1426.39 126.354L1426.27 126.521L1426.95 126.986L1427.06 126.818L1427.28 126.967L1427.49 126.807L1427.61 126.968L1428.26 126.469L1428.14 126.308L1428.79 125.81L1428.91 125.971L1429.56 125.472L1429.44 125.311L1430.09 124.812L1430.21 124.973L1430.86 124.474L1430.74 124.313L1431.39 123.814L1431.51 123.975L1432.16 123.477L1432.04 123.316L1432.69 122.817L1432.81 122.978L1433.46 122.479L1433.34 122.318L1433.99 121.819L1434.11 121.98L1434.76 121.482L1434.64 121.32L1435.29 120.822L1435.41 120.983L1436.06 120.484L1435.94 120.323L1436.59 119.824L1436.71 119.985L1437.37 119.486L1437.24 119.325L1437.89 118.826L1438.02 118.988L1438.67 118.489L1438.54 118.328L1439.19 117.829L1439.32 117.99L1439.97 117.491L1439.84 117.33L1440.49 116.831L1440.62 116.992L1441.27 116.494L1441.14 116.333L1441.35 116.173L1441.26 115.926L1441.45 115.858L1441.18 115.085L1440.99 115.153L1440.72 114.381L1440.91 114.313L1440.63 113.54L1440.44 113.608L1440.17 112.836L1440.36 112.768L1440.09 111.995L1439.9 112.063L1439.62 111.291L1439.81 111.223L1439.54 110.45L1439.35 110.518L1439.08 109.745L1439.27 109.678L1438.99 108.905L1438.8 108.973L1438.53 108.2L1438.72 108.133L1438.45 107.36L1438.26 107.428L1437.98 106.655L1438.17 106.588L1437.9 105.815L1437.71 105.883L1437.43 105.11L1437.63 105.043L1437.35 104.27L1437.16 104.338L1436.89 103.565L1437.08 103.498L1436.81 102.725L1436.61 102.793L1436.34 102.02L1436.53 101.953L1436.26 101.18L1436.07 101.248L1435.79 100.475L1435.99 100.408L1435.71 99.6351L1435.52 99.7028L1435.43 99.4556L1435.17 99.4624L1435.17 99.2595L1434.35 99.2809L1434.35 99.4838L1433.53 99.5051L1433.53 99.3022L1432.71 99.3236L1432.71 99.5265L1431.89 99.5478L1431.89 99.3449L1431.07 99.3663L1431.07 99.5692L1430.26 99.5905L1430.25 99.3877L1429.43 99.409L1429.44 99.6119L1428.62 99.6333L1428.61 99.4304L1427.79 99.4517L1427.8 99.6546L1426.98 99.676L1426.97 99.4731L1426.15 99.4945L1426.16 99.6973L1425.34 99.7187L1425.34 99.5158L1424.52 99.5372L1424.52 99.7401L1423.7 99.7614L1423.7 99.5585L1422.88 99.5799L1422.88 99.7828L1422.06 99.8041L1422.06 99.6013L1421.24 99.6226L1421.24 99.8255L1420.43 99.8468L1420.42 99.644L1419.6 99.6653L1419.61 99.8682L1418.79 99.8896L1418.78 99.6867L1417.96 99.708L1417.97 99.9109L1417.71 99.9178L1417.63 100.169L1417.44 100.112L1417.2 100.897L1417.4 100.955L1417.17 101.741L1416.97 101.683L1416.74 102.469L1416.93 102.526L1416.7 103.312L1416.5 103.254L1416.27 104.04L1416.47 104.098L1416.23 104.884L1416.04 104.826L1415.81 105.612L1416 105.669L1415.77 106.455L1415.57 106.397L1415.34 107.183L1415.54 107.241L1415.3 108.026L1415.11 107.969L1414.87 108.754L1415.07 108.812L1414.84 109.598L1414.64 109.54L1414.41 110.326L1414.6 110.384L1414.37 111.169L1414.18 111.112L1413.94 111.897L1414.14 111.955L1413.91 112.741L1413.71 112.683L1413.48 113.469L1413.67 113.526L1413.44 114.312L1413.25 114.254L1413.01 115.04L1413.21 115.098L1412.97 115.884L1412.78 115.826Z" stroke="#5960B2" stroke-width="0.405897" stroke-dasharray="0.81 0.81"/>
<path d="M1410.33 116.703L1410.1 117.481L1410.29 117.538L1410.22 117.785L1410.43 117.932L1410.32 118.099L1410.99 118.558L1411.1 118.391L1411.77 118.85L1411.65 119.017L1412.32 119.477L1412.44 119.309L1413.11 119.769L1412.99 119.936L1413.66 120.395L1413.77 120.228L1414.44 120.687L1414.33 120.854L1414.99 121.314L1415.11 121.146L1415.78 121.606L1415.66 121.773L1416.33 122.232L1416.45 122.065L1417.11 122.524L1417 122.691L1417.67 123.151L1417.78 122.983L1418.45 123.443L1418.33 123.61L1419 124.069L1419.12 123.902L1419.79 124.361L1419.67 124.528L1420.34 124.988L1420.45 124.82L1421.12 125.28L1421.01 125.447L1421.67 125.906L1421.79 125.739L1422.46 126.198L1422.34 126.365L1423.01 126.825L1423.13 126.657L1423.79 127.117L1423.68 127.284L1424.35 127.743L1424.46 127.576L1425.13 128.035L1425.02 128.202L1425.68 128.661L1425.8 128.494L1426.47 128.953L1426.35 129.121L1427.02 129.58L1427.13 129.413L1427.35 129.559L1427.55 129.402L1427.67 129.563L1428.32 129.069L1428.19 128.908L1428.84 128.415L1428.96 128.576L1429.6 128.083L1429.48 127.922L1430.12 127.428L1430.25 127.589L1430.89 127.096L1430.77 126.935L1431.41 126.441L1431.53 126.602L1432.18 126.109L1432.05 125.948L1432.7 125.454L1432.82 125.615L1433.46 125.122L1433.34 124.961L1433.98 124.468L1434.11 124.629L1434.75 124.135L1434.63 123.974L1435.27 123.481L1435.39 123.642L1436.04 123.148L1435.91 122.987L1436.56 122.494L1436.68 122.655L1437.32 122.161L1437.2 122L1437.84 121.507L1437.97 121.668L1438.61 121.175L1438.49 121.013L1439.13 120.52L1439.25 120.681L1439.9 120.188L1439.77 120.027L1440.42 119.533L1440.54 119.694L1441.18 119.201L1441.06 119.04L1441.7 118.546L1441.83 118.707L1442.47 118.214L1442.35 118.053L1442.99 117.559L1443.11 117.72L1443.76 117.227L1443.63 117.066L1443.84 116.909L1443.75 116.666L1443.94 116.598L1443.67 115.834L1443.48 115.902L1443.21 115.138L1443.4 115.07L1443.13 114.306L1442.94 114.373L1442.67 113.609L1442.86 113.541L1442.59 112.777L1442.4 112.845L1442.13 112.081L1442.32 112.013L1442.05 111.249L1441.86 111.316L1441.59 110.552L1441.78 110.485L1441.51 109.72L1441.32 109.788L1441.04 109.024L1441.24 108.956L1440.97 108.192L1440.77 108.26L1440.5 107.495L1440.7 107.428L1440.42 106.664L1440.23 106.731L1439.96 105.967L1440.15 105.899L1439.88 105.135L1439.69 105.203L1439.42 104.439L1439.61 104.371L1439.34 103.607L1439.15 103.674L1438.88 102.91L1439.07 102.842L1438.8 102.078L1438.61 102.146L1438.34 101.382L1438.53 101.314L1438.26 100.55L1438.07 100.618L1437.8 99.8534L1437.99 99.7857L1437.72 99.0215L1437.53 99.0892L1437.26 98.325L1437.45 98.2573L1437.18 97.493L1436.99 97.5608L1436.9 97.3177L1436.64 97.3244L1436.64 97.1215L1435.83 97.1426L1435.83 97.3455L1435.02 97.3666L1435.02 97.1638L1434.21 97.1849L1434.21 97.3878L1433.4 97.4089L1433.4 97.206L1432.59 97.2272L1432.59 97.43L1431.78 97.4512L1431.78 97.2483L1430.97 97.2694L1430.97 97.4723L1430.16 97.4934L1430.15 97.2905L1429.34 97.3117L1429.35 97.5145L1428.54 97.5357L1428.53 97.3328L1427.72 97.3539L1427.73 97.5568L1426.92 97.5779L1426.91 97.3751L1426.1 97.3962L1426.11 97.5991L1425.3 97.6202L1425.29 97.4173L1424.48 97.4384L1424.49 97.6413L1423.68 97.6624L1423.67 97.4596L1422.86 97.4807L1422.87 97.6836L1422.06 97.7047L1422.05 97.5018L1421.24 97.523L1421.25 97.7258L1420.44 97.747L1420.43 97.5441L1419.62 97.5652L1419.62 97.7681L1418.81 97.7892L1418.81 97.5863L1418 97.6075L1418 97.8103L1417.19 97.8315L1417.19 97.6286L1416.38 97.6497L1416.38 97.8526L1416.13 97.8593L1416.05 98.1066L1415.86 98.0489L1415.63 98.8262L1415.82 98.8839L1415.59 99.6611L1415.4 99.6035L1415.17 100.381L1415.36 100.438L1415.13 101.216L1414.94 101.158L1414.71 101.935L1414.9 101.993L1414.67 102.77L1414.48 102.713L1414.25 103.49L1414.44 103.547L1414.21 104.325L1414.01 104.267L1413.78 105.044L1413.98 105.102L1413.75 105.879L1413.55 105.822L1413.32 106.599L1413.52 106.657L1413.29 107.434L1413.09 107.376L1412.86 108.153L1413.06 108.211L1412.83 108.988L1412.63 108.931L1412.4 109.708L1412.6 109.766L1412.37 110.543L1412.17 110.485L1411.94 111.262L1412.14 111.32L1411.91 112.097L1411.71 112.04L1411.48 112.817L1411.68 112.875L1411.45 113.652L1411.25 113.594L1411.02 114.371L1411.22 114.429L1410.98 115.206L1410.79 115.149L1410.56 115.926L1410.75 115.984L1410.52 116.761L1410.33 116.703Z" stroke="#5960B2" stroke-width="0.405897" stroke-dasharray="0.81 0.81"/>
<path d="M1415.55 114.858L1415.32 115.634L1415.51 115.692L1415.44 115.939L1415.65 116.084L1415.54 116.251L1416.21 116.71L1416.32 116.543L1416.99 117.001L1416.87 117.169L1417.54 117.627L1417.65 117.46L1418.32 117.918L1418.21 118.086L1418.87 118.544L1418.99 118.377L1419.66 118.835L1419.54 119.003L1420.21 119.461L1420.32 119.294L1420.99 119.752L1420.87 119.92L1421.54 120.378L1421.66 120.211L1422.32 120.669L1422.21 120.837L1422.88 121.295L1422.99 121.128L1423.66 121.587L1423.54 121.754L1424.21 122.212L1424.32 122.045L1424.99 122.504L1424.88 122.671L1425.54 123.129L1425.66 122.962L1426.33 123.421L1426.21 123.588L1426.88 124.046L1426.99 123.879L1427.2 124.025L1427.41 123.868L1427.53 124.029L1428.17 123.537L1428.05 123.376L1428.69 122.883L1428.82 123.044L1429.46 122.551L1429.33 122.39L1429.98 121.898L1430.1 122.059L1430.74 121.566L1430.62 121.405L1431.26 120.912L1431.39 121.073L1432.03 120.581L1431.9 120.42L1432.55 119.927L1432.67 120.088L1433.31 119.595L1433.19 119.434L1433.83 118.942L1433.95 119.103L1434.6 118.61L1434.47 118.449L1435.11 117.956L1435.24 118.117L1435.88 117.625L1435.76 117.464L1436.4 116.971L1436.52 117.132L1437.16 116.639L1437.04 116.478L1437.68 115.986L1437.81 116.147L1438.45 115.654L1438.33 115.493L1438.53 115.337L1438.44 115.094L1438.64 115.026L1438.37 114.263L1438.17 114.331L1437.9 113.568L1438.1 113.5L1437.82 112.737L1437.63 112.805L1437.36 112.042L1437.55 111.974L1437.28 111.211L1437.09 111.279L1436.82 110.516L1437.01 110.448L1436.74 109.685L1436.55 109.753L1436.28 108.99L1436.47 108.922L1436.2 108.159L1436.01 108.227L1435.74 107.464L1435.93 107.396L1435.66 106.633L1435.47 106.701L1435.2 105.938L1435.39 105.87L1435.12 105.107L1434.93 105.175L1434.66 104.412L1434.85 104.344L1434.58 103.581L1434.39 103.649L1434.12 102.886L1434.31 102.818L1434.04 102.055L1433.85 102.123L1433.77 101.881L1433.51 101.887L1433.5 101.684L1432.69 101.705L1432.7 101.908L1431.89 101.929L1431.89 101.727L1431.08 101.748L1431.08 101.951L1430.27 101.972L1430.27 101.769L1429.46 101.79L1429.46 101.993L1428.65 102.014L1428.65 101.811L1427.84 101.832L1427.85 102.035L1427.04 102.056L1427.03 101.853L1426.22 101.874L1426.23 102.077L1425.42 102.098L1425.41 101.895L1424.6 101.916L1424.61 102.119L1423.8 102.14L1423.79 101.937L1422.99 101.959L1422.99 102.161L1422.18 102.183L1422.18 101.98L1421.37 102.001L1421.37 102.204L1420.56 102.225L1420.56 102.022L1419.75 102.043L1419.75 102.246L1419.5 102.253L1419.42 102.499L1419.23 102.442L1419 103.218L1419.19 103.275L1418.96 104.051L1418.77 103.994L1418.54 104.77L1418.73 104.827L1418.5 105.603L1418.31 105.546L1418.08 106.322L1418.27 106.379L1418.04 107.155L1417.85 107.098L1417.62 107.874L1417.81 107.931L1417.58 108.708L1417.39 108.65L1417.16 109.426L1417.35 109.484L1417.12 110.26L1416.93 110.202L1416.7 110.978L1416.89 111.036L1416.66 111.812L1416.47 111.754L1416.24 112.53L1416.43 112.588L1416.2 113.364L1416.01 113.306L1415.78 114.082L1415.97 114.14L1415.74 114.916L1415.55 114.858Z" stroke="#5960B2" stroke-width="0.405897" stroke-dasharray="0.81 0.81"/>
<path d="M453.987 76.9796L472.803 79.0551L476.644 97.5917L460.201 106.973L446.198 94.2336L453.987 76.9796Z" fill="#4A5097"/>
<path d="M1096.21 102.816L1098.02 103.075L1097.96 103.52L1098.1 103.539L1098.01 103.647L1098.36 103.924L1097.23 105.364L1096.88 105.087L1095.75 106.526L1096.1 106.804L1094.97 108.243L1094.62 107.966L1093.49 109.406L1093.84 109.683L1092.71 111.122L1092.36 110.845L1091.23 112.285L1091.58 112.562L1090.45 114.002L1090.1 113.724L1088.97 115.164L1089.32 115.441L1088.19 116.881L1087.84 116.604L1086.71 118.043L1087.06 118.321L1085.93 119.76L1085.58 119.483L1084.45 120.923L1084.8 121.2L1083.67 122.64L1083.32 122.362L1082.19 123.802L1082.54 124.079L1081.41 125.519L1081.06 125.242L1079.93 126.681L1080.28 126.959L1079.15 128.398L1078.8 128.121L1077.67 129.561L1078.02 129.838L1076.89 131.278L1076.54 131L1075.41 132.44L1075.76 132.717L1074.63 134.157L1074.28 133.88L1073.15 135.319L1073.5 135.597L1072.37 137.036L1072.02 136.759L1070.89 138.199L1071.24 138.476L1070.11 139.916L1069.76 139.638L1068.63 141.078L1068.98 141.355L1067.85 142.795L1067.5 142.518L1066.37 143.957L1066.72 144.234L1065.59 145.674L1065.24 145.397L1064.11 146.836L1064.46 147.114L1063.33 148.553L1062.98 148.276L1061.85 149.716L1062.2 149.993L1061.07 151.433L1060.72 151.155L1060.63 151.263L1060.58 151.136L1060.16 151.303L1059.48 149.605L1059.9 149.437L1059.22 147.739L1058.8 147.906L1058.12 146.208L1058.53 146.04L1057.85 144.342L1057.44 144.509L1056.75 142.81L1057.17 142.643L1056.49 140.945L1056.07 141.112L1055.39 139.413L1055.81 139.246L1055.13 137.547L1054.71 137.715L1054.03 136.016L1054.44 135.849L1053.76 134.15L1053.35 134.317L1052.66 132.619L1053.08 132.452L1052.4 130.753L1051.98 130.92L1051.3 129.222L1051.72 129.054L1051.04 127.356L1050.62 127.523L1049.94 125.824L1050.35 125.657L1049.67 123.959L1049.26 124.126L1048.57 122.427L1048.99 122.26L1048.31 120.561L1047.89 120.729L1047.21 119.03L1047.63 118.863L1046.95 117.164L1046.53 117.332L1045.85 115.633L1046.26 115.466L1045.58 113.767L1045.17 113.934L1044.48 112.236L1044.9 112.069L1044.22 110.37L1043.8 110.537L1043.12 108.839L1043.54 108.671L1042.86 106.973L1042.44 107.14L1041.76 105.441L1042.17 105.274L1041.49 103.576L1041.08 103.743L1040.39 102.044L1040.81 101.877L1040.13 100.178L1039.71 100.346L1039.03 98.6471L1039.45 98.4798L1038.77 96.7813L1038.35 96.9485L1037.67 95.2499L1038.08 95.0827L1038.03 94.9553L1038.17 94.9747L1038.23 94.5301L1040.04 94.789L1039.98 95.2336L1041.79 95.4926L1041.86 95.048L1043.67 95.3069L1043.6 95.7515L1045.42 96.0104L1045.48 95.5658L1047.29 95.8248L1047.23 96.2694L1049.04 96.5283L1049.1 96.0837L1050.91 96.3426L1050.85 96.7872L1052.66 97.0462L1052.73 96.6016L1054.54 96.8605L1054.48 97.3051L1056.29 97.564L1056.35 97.1195L1058.16 97.3784L1058.1 97.823L1059.91 98.0819L1059.97 97.6373L1061.79 97.8963L1061.72 98.3408L1063.53 98.5998L1063.6 98.1552L1065.41 98.4141L1065.35 98.8587L1067.16 99.1176L1067.22 98.6731L1069.03 98.932L1068.97 99.3766L1070.78 99.6355L1070.85 99.1909L1072.66 99.4499L1072.59 99.8945L1074.41 100.153L1074.47 99.7088L1076.28 99.9677L1076.22 100.412L1078.03 100.671L1078.09 100.227L1079.9 100.486L1079.84 100.93L1081.65 101.189L1081.72 100.745L1083.53 101.003L1083.46 101.448L1085.28 101.707L1085.34 101.262L1087.15 101.521L1087.09 101.966L1088.9 102.225L1088.96 101.78L1090.78 102.039L1090.71 102.484L1092.52 102.743L1092.59 102.298L1094.4 102.557L1094.34 103.002L1096.15 103.261L1096.21 102.816Z" stroke="#5960B2" stroke-width="0.898201" stroke-dasharray="1.8 1.8"/>
<path d="M1086.29 106.806L1088.09 107.064L1088.03 107.509L1088.16 107.527L1088.08 107.631L1088.43 107.908L1087.3 109.34L1086.95 109.063L1085.83 110.494L1086.18 110.772L1085.06 112.203L1084.7 111.926L1083.58 113.358L1083.93 113.635L1082.81 115.066L1082.46 114.789L1081.33 116.221L1081.69 116.498L1080.56 117.93L1080.21 117.652L1079.08 119.084L1079.44 119.361L1078.31 120.793L1077.96 120.516L1076.84 121.947L1077.19 122.224L1076.07 123.656L1075.71 123.379L1074.59 124.81L1074.94 125.088L1073.82 126.519L1073.47 126.242L1072.34 127.673L1072.69 127.951L1071.57 129.382L1071.22 129.105L1070.09 130.537L1070.45 130.814L1069.32 132.246L1068.97 131.968L1067.85 133.4L1068.2 133.677L1067.08 135.109L1066.72 134.831L1065.6 136.263L1065.95 136.54L1064.83 137.972L1064.47 137.695L1063.35 139.126L1063.7 139.404L1062.58 140.835L1062.23 140.558L1062.15 140.662L1062.1 140.539L1061.68 140.706L1061 139.017L1061.42 138.85L1060.74 137.161L1060.32 137.328L1059.65 135.639L1060.06 135.472L1059.38 133.783L1058.97 133.95L1058.29 132.261L1058.71 132.094L1058.03 130.405L1057.61 130.572L1056.93 128.883L1057.35 128.716L1056.67 127.026L1056.26 127.194L1055.58 125.505L1056 125.337L1055.32 123.648L1054.9 123.816L1054.22 122.127L1054.64 121.959L1053.96 120.27L1053.54 120.437L1052.87 118.748L1053.28 118.581L1052.61 116.892L1052.19 117.059L1051.51 115.37L1051.93 115.203L1051.25 113.514L1050.83 113.681L1050.16 111.992L1050.57 111.825L1049.89 110.136L1049.48 110.303L1048.8 108.614L1049.22 108.447L1048.54 106.758L1048.12 106.925L1047.44 105.236L1047.86 105.068L1047.18 103.379L1046.77 103.547L1046.09 101.858L1046.5 101.69L1046.46 101.568L1046.59 101.586L1046.65 101.142L1048.45 101.399L1048.39 101.844L1050.19 102.101L1050.25 101.657L1052.06 101.914L1051.99 102.359L1053.79 102.616L1053.86 102.172L1055.66 102.429L1055.6 102.874L1057.4 103.131L1057.46 102.687L1059.26 102.944L1059.2 103.389L1061 103.646L1061.06 103.202L1062.87 103.459L1062.8 103.904L1064.6 104.161L1064.67 103.717L1066.47 103.974L1066.41 104.419L1068.21 104.676L1068.27 104.232L1070.07 104.489L1070.01 104.934L1071.81 105.191L1071.87 104.747L1073.68 105.004L1073.61 105.449L1075.41 105.706L1075.48 105.262L1077.28 105.519L1077.22 105.964L1079.02 106.221L1079.08 105.776L1080.88 106.034L1080.82 106.479L1082.62 106.736L1082.68 106.291L1084.49 106.549L1084.42 106.994L1086.22 107.251L1086.29 106.806Z" stroke="#5960B2" stroke-width="0.898201" stroke-dasharray="1.8 1.8"/>
<path d="M1074.5 111.552L1076.28 111.807L1076.22 112.251L1076.34 112.269L1076.27 112.366L1076.62 112.643L1075.51 114.061L1075.15 113.784L1074.04 115.202L1074.39 115.479L1073.28 116.897L1072.93 116.62L1071.81 118.038L1072.17 118.315L1071.05 119.733L1070.7 119.456L1069.59 120.873L1069.94 121.151L1068.83 122.569L1068.48 122.291L1067.36 123.709L1067.72 123.987L1066.6 125.405L1066.25 125.127L1065.14 126.545L1065.49 126.822L1064.38 128.24L1064.02 127.963L1063.95 128.06L1063.9 127.946L1063.48 128.113L1062.81 126.44L1063.23 126.273L1062.56 124.6L1062.14 124.767L1061.47 123.094L1061.89 122.927L1061.22 121.254L1060.8 121.421L1060.13 119.748L1060.54 119.581L1059.87 117.908L1059.46 118.075L1058.78 116.402L1059.2 116.235L1058.53 114.562L1058.11 114.729L1057.44 113.056L1057.86 112.889L1057.19 111.216L1056.77 111.383L1056.1 109.71L1056.52 109.543L1056.47 109.429L1056.59 109.446L1056.66 109.001L1058.44 109.256L1058.38 109.701L1060.16 109.956L1060.22 109.512L1062.01 109.767L1061.95 110.211L1063.73 110.466L1063.79 110.022L1065.58 110.277L1065.51 110.721L1067.3 110.976L1067.36 110.532L1069.15 110.787L1069.08 111.231L1070.87 111.486L1070.93 111.042L1072.72 111.297L1072.65 111.741L1074.44 111.996L1074.5 111.552Z" stroke="#5960B2" stroke-width="0.898201" stroke-dasharray="1.8 1.8"/>
<path d="M1071.92 114.042L1064.62 123.345L1060.21 112.369L1071.92 114.042Z" fill="#5960B2"/>
<path d="M1091.32 104.833L1093.06 105.083L1093 105.527L1093.1 105.542L1093.04 105.624L1093.39 105.901L1092.3 107.289L1091.95 107.011L1090.86 108.398L1091.21 108.676L1090.12 110.063L1089.77 109.786L1088.68 111.173L1089.03 111.45L1087.95 112.837L1087.59 112.56L1086.5 113.947L1086.86 114.225L1085.77 115.612L1085.41 115.335L1084.32 116.722L1084.68 116.999L1083.59 118.386L1083.24 118.109L1082.15 119.496L1082.5 119.774L1081.41 121.161L1081.06 120.884L1079.97 122.271L1080.32 122.548L1079.23 123.935L1078.88 123.658L1077.79 125.045L1078.14 125.323L1077.05 126.71L1076.7 126.433L1075.61 127.82L1075.97 128.097L1074.88 129.484L1074.52 129.207L1073.43 130.594L1073.79 130.872L1072.7 132.259L1072.35 131.981L1071.26 133.369L1071.61 133.646L1070.52 135.033L1070.17 134.756L1069.08 136.143L1069.43 136.421L1068.34 137.808L1067.99 137.53L1066.9 138.918L1067.25 139.195L1066.16 140.582L1065.81 140.305L1064.72 141.692L1065.08 141.969L1063.99 143.357L1063.63 143.079L1062.54 144.467L1062.9 144.744L1061.81 146.131L1061.46 145.854L1061.39 145.936L1061.35 145.839L1060.94 146.006L1060.28 144.37L1060.7 144.202L1060.04 142.566L1059.62 142.733L1058.97 141.096L1059.38 140.929L1058.72 139.292L1058.31 139.459L1057.65 137.823L1058.07 137.655L1057.41 136.019L1056.99 136.186L1056.34 134.549L1056.75 134.382L1056.1 132.745L1055.68 132.912L1055.02 131.276L1055.44 131.108L1054.78 129.472L1054.37 129.639L1053.71 128.002L1054.13 127.835L1053.47 126.198L1053.05 126.365L1052.4 124.729L1052.81 124.561L1052.16 122.925L1051.74 123.092L1051.08 121.455L1051.5 121.288L1050.84 119.651L1050.43 119.818L1049.77 118.182L1050.19 118.014L1049.53 116.378L1049.11 116.545L1048.46 114.908L1048.87 114.741L1048.22 113.104L1047.8 113.272L1047.14 111.635L1047.56 111.467L1046.9 109.831L1046.48 109.998L1045.83 108.361L1046.24 108.194L1045.59 106.557L1045.17 106.725L1044.51 105.088L1044.93 104.921L1044.27 103.284L1043.86 103.451L1043.2 101.814L1043.62 101.647L1042.96 100.01L1042.54 100.178L1041.89 98.5408L1042.3 98.3735L1042.26 98.2771L1042.37 98.2918L1042.43 97.8472L1044.18 98.0967L1044.11 98.5413L1045.86 98.7908L1045.92 98.3462L1047.67 98.5957L1047.61 99.0403L1049.35 99.2898L1049.41 98.8452L1051.16 99.0947L1051.1 99.5393L1052.84 99.7888L1052.91 99.3442L1054.65 99.5937L1054.59 100.038L1056.33 100.288L1056.4 99.8432L1058.14 100.093L1058.08 100.537L1059.83 100.787L1059.89 100.342L1061.64 100.592L1061.57 101.036L1063.32 101.286L1063.38 100.841L1065.13 101.091L1065.06 101.535L1066.81 101.785L1066.87 101.34L1068.62 101.59L1068.56 102.034L1070.3 102.284L1070.37 101.839L1072.11 102.089L1072.05 102.533L1073.79 102.783L1073.86 102.338L1075.6 102.588L1075.54 103.032L1077.29 103.282L1077.35 102.837L1079.09 103.087L1079.03 103.531L1080.78 103.781L1080.84 103.336L1082.59 103.586L1082.52 104.03L1084.27 104.28L1084.33 103.835L1086.08 104.085L1086.01 104.529L1087.76 104.779L1087.82 104.334L1089.57 104.584L1089.51 105.028L1091.25 105.278L1091.32 104.833Z" stroke="#5960B2" stroke-width="0.898201" stroke-dasharray="1.8 1.8"/>
<path d="M1080.71 109.018L1082.55 109.28L1082.48 109.725L1082.63 109.746L1082.54 109.863L1082.89 110.14L1081.75 111.598L1081.39 111.321L1080.25 112.779L1080.6 113.056L1079.46 114.514L1079.1 114.237L1077.96 115.695L1078.31 115.972L1077.17 117.43L1076.82 117.153L1075.67 118.611L1076.02 118.888L1074.88 120.346L1074.53 120.069L1073.38 121.527L1073.73 121.804L1072.59 123.262L1072.24 122.985L1071.09 124.443L1071.45 124.72L1070.3 126.178L1069.95 125.901L1068.8 127.359L1069.16 127.636L1068.01 129.094L1067.66 128.817L1066.51 130.275L1066.87 130.552L1065.72 132.011L1065.37 131.733L1064.22 133.191L1064.58 133.469L1063.43 134.927L1063.08 134.649L1062.99 134.766L1062.93 134.628L1062.52 134.795L1061.83 133.075L1062.24 132.908L1061.55 131.188L1061.14 131.355L1060.44 129.635L1060.86 129.467L1060.17 127.747L1059.75 127.914L1059.06 126.194L1059.48 126.027L1058.79 124.307L1058.37 124.474L1057.68 122.754L1058.1 122.586L1057.41 120.866L1056.99 121.033L1056.3 119.313L1056.72 119.146L1056.03 117.426L1055.61 117.593L1054.92 115.873L1055.34 115.705L1054.65 113.985L1054.23 114.152L1053.54 112.432L1053.96 112.265L1053.27 110.545L1052.85 110.712L1052.16 108.992L1052.58 108.824L1051.89 107.104L1051.47 107.271L1050.78 105.551L1051.2 105.384L1051.14 105.246L1051.29 105.267L1051.35 104.822L1053.19 105.084L1053.12 105.529L1054.96 105.791L1055.02 105.346L1056.86 105.609L1056.79 106.053L1058.63 106.316L1058.69 105.871L1060.53 106.133L1060.46 106.578L1062.3 106.84L1062.36 106.395L1064.2 106.658L1064.13 107.102L1065.97 107.364L1066.03 106.92L1067.87 107.182L1067.8 107.627L1069.64 107.889L1069.7 107.444L1071.54 107.707L1071.47 108.151L1073.31 108.413L1073.37 107.969L1075.21 108.231L1075.14 108.676L1076.98 108.938L1077.04 108.493L1078.88 108.756L1078.81 109.2L1080.65 109.462L1080.71 109.018Z" stroke="#5960B2" stroke-width="0.898201" stroke-dasharray="1.8 1.8"/>
<path d="M635.212 -20.184L637.023 -19.925L636.96 -19.4805L637.096 -19.461L637.011 -19.3531L637.364 -19.0758L636.234 -17.6361L635.881 -17.9134L634.751 -16.4738L635.104 -16.1965L633.974 -14.7568L633.62 -15.0341L632.49 -13.5945L632.844 -13.3172L631.713 -11.8775L631.36 -12.1548L630.23 -10.7152L630.583 -10.4379L629.453 -8.9982L629.1 -9.27552L627.97 -7.83587L628.323 -7.55855L627.193 -6.1189L626.839 -6.39621L625.709 -4.95656L626.062 -4.67924L624.932 -3.23959L624.579 -3.51691L623.449 -2.07725L623.802 -1.79994L622.672 -0.360287L622.319 -0.637601L621.189 0.802053L621.542 1.07937L620.412 2.51902L620.058 2.2417L618.928 3.68136L619.281 3.95867L618.151 5.39833L617.798 5.12101L616.668 6.56066L617.021 6.83798L615.891 8.27763L615.538 8.00031L614.407 9.43996L614.761 9.71728L613.631 11.1569L613.277 10.8796L612.147 12.3193L612.5 12.5966L611.37 14.0362L611.017 13.7589L609.887 15.1986L610.24 15.4759L609.11 16.9155L608.757 16.6382L607.626 18.0779L607.98 18.3552L606.849 19.7948L606.496 19.5175L605.366 20.9572L605.719 21.2345L604.589 22.6741L604.236 22.3968L603.106 23.8365L603.459 24.1138L602.329 25.5534L601.976 25.2761L600.845 26.7158L601.199 26.9931L600.068 28.4327L599.715 28.1554L599.63 28.2634L599.579 28.136L599.163 28.3033L598.481 26.6047L598.898 26.4374L598.216 24.7389L597.799 24.9061L597.117 23.2075L597.534 23.0403L596.853 21.3417L596.436 21.5089L595.754 19.8104L596.171 19.6431L595.489 17.9445L595.072 18.1118L594.391 16.4132L594.807 16.2459L594.126 14.5473L593.709 14.7146L593.027 13.016L593.444 12.8487L592.762 11.1502L592.346 11.3174L591.664 9.61883L592.081 9.45157L591.399 7.75298L590.982 7.92025L590.301 6.22166L590.717 6.05439L590.036 4.3558L589.619 4.52307L588.937 2.82448L589.354 2.65722L588.672 0.958629L588.256 1.1259L587.574 -0.572691L587.991 -0.739959L587.309 -2.43854L586.892 -2.27127L586.21 -3.96986L586.627 -4.13713L585.946 -5.83571L585.529 -5.66845L584.847 -7.36703L585.264 -7.5343L584.582 -9.23289L584.165 -9.06562L583.484 -10.7642L583.9 -10.9315L583.219 -12.6301L582.802 -12.4628L582.12 -14.1614L582.537 -14.3286L581.855 -16.0272L581.439 -15.86L580.757 -17.5585L581.174 -17.7258L580.492 -19.4244L580.075 -19.2571L579.394 -20.9557L579.81 -21.123L579.129 -22.8216L578.712 -22.6543L578.03 -24.3529L578.447 -24.5202L577.765 -26.2187L577.349 -26.0515L576.667 -27.7501L577.084 -27.9173L577.032 -28.0447L577.168 -28.0253L577.232 -28.4699L579.044 -28.211L578.98 -27.7664L580.792 -27.5074L580.856 -27.952L582.667 -27.6931L582.604 -27.2485L584.416 -26.9896L584.479 -27.4342L586.291 -27.1752L586.228 -26.7306L588.04 -26.4717L588.103 -26.9163L589.915 -26.6574L589.851 -26.2128L591.663 -25.9538L591.727 -26.3984L593.539 -26.1395L593.475 -25.6949L595.287 -25.436L595.351 -25.8805L597.162 -25.6216L597.099 -25.177L598.911 -24.9181L598.974 -25.3627L600.786 -25.1037L600.723 -24.6592L602.534 -24.4002L602.598 -24.8448L604.41 -24.5859L604.346 -24.1413L606.158 -23.8824L606.222 -24.3269L608.034 -24.068L607.97 -23.6234L609.782 -23.3645L609.845 -23.8091L611.657 -23.5501L611.594 -23.1055L613.406 -22.8466L613.469 -23.2912L615.281 -23.0323L615.217 -22.5877L617.029 -22.3287L617.093 -22.7733L618.905 -22.5144L618.841 -22.0698L620.653 -21.8109L620.717 -22.2555L622.528 -21.9965L622.465 -21.5519L624.277 -21.293L624.34 -21.7376L626.152 -21.4787L626.089 -21.0341L627.901 -20.7751L627.964 -21.2197L629.776 -20.9608L629.712 -20.5162L631.524 -20.2573L631.588 -20.7019L633.4 -20.4429L633.336 -19.9983L635.148 -19.7394L635.212 -20.184Z" stroke="#5960B2" stroke-width="0.898201" stroke-dasharray="1.8 1.8"/>
<path d="M625.288 -16.1936L627.09 -15.9361L627.026 -15.4915L627.157 -15.4728L627.075 -15.3689L627.429 -15.0915L626.305 -13.6599L625.952 -13.9373L624.828 -12.5057L625.181 -12.2283L624.057 -10.7968L623.704 -11.0741L622.58 -9.64247L622.933 -9.36516L621.809 -7.93356L621.456 -8.21088L620.332 -6.77928L620.685 -6.50196L619.562 -5.07037L619.208 -5.34769L618.085 -3.91609L618.438 -3.63878L617.314 -2.20718L616.961 -2.48449L615.837 -1.0529L616.19 -0.775585L615.066 0.656007L614.713 0.378693L613.589 1.81029L613.942 2.0876L612.819 3.5192L612.465 3.24188L611.341 4.67348L611.695 4.95079L610.571 6.38239L610.218 6.10507L609.094 7.53667L609.447 7.81398L608.323 9.24558L607.97 8.96826L606.846 10.3999L607.199 10.6772L606.075 12.1088L605.722 11.8314L604.598 13.263L604.952 13.5404L603.828 14.972L603.474 14.6946L602.351 16.1262L602.704 16.4035L601.58 17.8351L601.227 17.5578L601.145 17.6618L601.096 17.5391L600.679 17.7064L600.001 16.0173L600.418 15.8501L599.74 14.161L599.323 14.3282L598.646 12.6392L599.062 12.4719L598.384 10.7828L597.968 10.9501L597.29 9.261L597.707 9.09373L597.029 7.40465L596.612 7.57192L595.934 5.88284L596.351 5.71557L595.673 4.02649L595.256 4.19376L594.578 2.50468L594.995 2.33741L594.317 0.648329L593.9 0.815597L593.223 -0.873485L593.639 -1.04075L592.962 -2.72983L592.545 -2.56257L591.867 -4.25165L592.284 -4.41891L591.606 -6.10799L591.189 -5.94073L590.511 -7.62981L590.928 -7.79707L590.25 -9.48615L589.833 -9.31889L589.155 -11.008L589.572 -11.1752L588.894 -12.8643L588.477 -12.697L587.8 -14.3861L588.216 -14.5534L587.539 -16.2425L587.122 -16.0752L586.444 -17.7643L586.861 -17.9316L586.183 -19.6206L585.766 -19.4534L585.088 -21.1424L585.505 -21.3097L585.456 -21.4324L585.586 -21.4137L585.65 -21.8582L587.452 -21.6008L587.388 -21.1562L589.19 -20.8987L589.253 -21.3433L591.055 -21.0858L590.992 -20.6412L592.793 -20.3837L592.857 -20.8283L594.659 -20.5708L594.595 -20.1262L596.397 -19.8687L596.46 -20.3133L598.262 -20.0558L598.199 -19.6113L600 -19.3538L600.064 -19.7984L601.866 -19.5409L601.802 -19.0963L603.604 -18.8388L603.667 -19.2834L605.469 -19.0259L605.405 -18.5813L607.207 -18.3238L607.271 -18.7684L609.072 -18.5109L609.009 -18.0663L610.811 -17.8089L610.874 -18.2534L612.676 -17.996L612.612 -17.5514L614.414 -17.2939L614.478 -17.7385L616.279 -17.481L616.216 -17.0364L618.018 -16.7789L618.081 -17.2235L619.883 -16.966L619.819 -16.5214L621.621 -16.2639L621.684 -16.7085L623.486 -16.451L623.423 -16.0065L625.224 -15.749L625.288 -16.1936Z" stroke="#5960B2" stroke-width="0.898201" stroke-dasharray="1.8 1.8"/>
<path d="M613.5 -11.4483L615.285 -11.1932L615.221 -10.7487L615.343 -10.7312L615.267 -10.6341L615.62 -10.3568L614.507 -8.93885L614.154 -9.21617L613.041 -7.79825L613.394 -7.52093L612.281 -6.10301L611.928 -6.38033L610.815 -4.96241L611.168 -4.68509L610.055 -3.26717L609.702 -3.54449L608.588 -2.12657L608.942 -1.84925L607.829 -0.43133L607.475 -0.708646L606.362 0.709274L606.715 0.98659L605.602 2.40451L605.249 2.12719L604.136 3.54512L604.489 3.82243L603.376 5.24035L603.023 4.96304L602.947 5.06014L602.901 4.94557L602.484 5.11284L601.812 3.43989L602.229 3.27262L601.558 1.59968L601.141 1.76694L600.47 0.0939962L600.886 -0.0732719L600.215 -1.74622L599.798 -1.57895L599.127 -3.2519L599.544 -3.41916L598.872 -5.09211L598.455 -4.92484L597.784 -6.59779L598.201 -6.76506L597.529 -8.438L597.113 -8.27074L596.441 -9.94368L596.858 -10.111L596.187 -11.7839L595.77 -11.6166L595.099 -13.2896L595.515 -13.4568L595.469 -13.5714L595.592 -13.554L595.655 -13.9985L597.44 -13.7435L597.376 -13.2989L599.161 -13.0439L599.224 -13.4885L601.009 -13.2335L600.945 -12.7889L602.73 -12.5338L602.793 -12.9784L604.578 -12.7234L604.514 -12.2788L606.299 -12.0238L606.362 -12.4684L608.147 -12.2134L608.083 -11.7688L609.868 -11.5137L609.931 -11.9583L611.716 -11.7033L611.652 -11.2587L613.437 -11.0037L613.5 -11.4483Z" stroke="#5960B2" stroke-width="0.898201" stroke-dasharray="1.8 1.8"/>
<path d="M610.923 -8.95799L603.62 0.345435L599.214 -10.6313L610.923 -8.95799Z" fill="#5960B2"/>
<path d="M630.316 -18.1666L632.062 -17.9171L631.998 -17.4725L632.101 -17.4578L632.037 -17.3761L632.39 -17.0987L631.301 -15.7115L630.948 -15.9888L629.859 -14.6016L630.212 -14.3243L629.123 -12.937L628.77 -13.2143L627.681 -11.8271L628.034 -11.5498L626.945 -10.1625L626.592 -10.4399L625.503 -9.05262L625.856 -8.7753L624.767 -7.38807L624.414 -7.66538L623.325 -6.27814L623.678 -6.00082L622.589 -4.61358L622.236 -4.8909L621.147 -3.50366L621.5 -3.22635L620.411 -1.83911L620.058 -2.11642L618.969 -0.729184L619.322 -0.45187L618.233 0.935366L617.88 0.658052L616.791 2.04529L617.144 2.32261L616.055 3.70984L615.702 3.43253L614.613 4.81977L614.966 5.09708L613.877 6.48432L613.524 6.207L612.435 7.59424L612.788 7.87156L611.699 9.25879L611.346 8.98147L610.257 10.3687L610.61 10.646L609.521 12.0333L609.168 11.756L608.079 13.1432L608.432 13.4205L607.343 14.8077L606.989 14.5304L605.9 15.9177L606.254 16.195L605.165 17.5822L604.811 17.3049L603.722 18.6921L604.076 18.9695L602.987 20.3567L602.633 20.0794L601.544 21.4666L601.898 21.7439L600.809 23.1312L600.455 22.8538L600.391 22.9356L600.352 22.8392L599.936 23.0064L599.279 21.3697L599.696 21.2024L599.039 19.5657L598.622 19.7329L597.965 18.0962L598.382 17.9289L597.725 16.2922L597.308 16.4594L596.651 14.8227L597.068 14.6554L596.411 13.0187L595.994 13.1859L595.338 11.5492L595.754 11.3819L595.097 9.74518L594.681 9.91245L594.024 8.27571L594.441 8.10844L593.784 6.47169L593.367 6.63896L592.71 5.00221L593.127 4.83494L592.47 3.1982L592.053 3.36547L591.396 1.72872L591.813 1.56145L591.156 -0.0752942L590.739 0.0919739L590.083 -1.54477L590.499 -1.71204L589.843 -3.34878L589.426 -3.18151L588.769 -4.81826L589.186 -4.98553L588.529 -6.62227L588.112 -6.45501L587.455 -8.09175L587.872 -8.25902L587.215 -9.89576L586.798 -9.72849L586.141 -11.3652L586.558 -11.5325L585.901 -13.1693L585.485 -13.002L584.828 -14.6387L585.244 -14.806L584.588 -16.4427L584.171 -16.2755L583.514 -17.9122L583.931 -18.0795L583.274 -19.7162L582.857 -19.549L582.2 -21.1857L582.617 -21.353L581.96 -22.9897L581.543 -22.8225L580.886 -24.4592L581.303 -24.6265L581.265 -24.7229L581.367 -24.7082L581.431 -25.1528L583.177 -24.9033L583.113 -24.4587L584.859 -24.2092L584.923 -24.6538L586.669 -24.4043L586.605 -23.9597L588.351 -23.7102L588.415 -24.1548L590.16 -23.9053L590.097 -23.4607L591.843 -23.2112L591.906 -23.6558L593.652 -23.4063L593.589 -22.9617L595.335 -22.7122L595.398 -23.1568L597.144 -22.9072L597.08 -22.4627L598.826 -22.2132L598.89 -22.6577L600.636 -22.4082L600.572 -21.9637L602.318 -21.7141L602.382 -22.1587L604.128 -21.9092L604.064 -21.4646L605.81 -21.2151L605.874 -21.6597L607.619 -21.4102L607.556 -20.9656L609.302 -20.7161L609.365 -21.1607L611.111 -20.9112L611.048 -20.4666L612.794 -20.2171L612.857 -20.6617L614.603 -20.4122L614.539 -19.9676L616.285 -19.7181L616.349 -20.1627L618.095 -19.9132L618.031 -19.4686L619.777 -19.2191L619.841 -19.6636L621.587 -19.4141L621.523 -18.9696L623.269 -18.72L623.332 -19.1646L625.078 -18.9151L625.015 -18.4705L626.761 -18.221L626.824 -18.6656L628.57 -18.4161L628.507 -17.9715L630.253 -17.722L630.316 -18.1666Z" stroke="#5960B2" stroke-width="0.898201" stroke-dasharray="1.8 1.8"/>
<path d="M619.711 -13.9822L621.546 -13.7199L621.483 -13.2754L621.63 -13.2543L621.538 -13.1371L621.891 -12.8598L620.747 -11.4018L620.394 -11.6791L619.249 -10.2211L619.602 -9.94377L618.458 -8.48575L618.104 -8.76306L616.96 -7.30504L617.313 -7.02772L616.168 -5.5697L615.815 -5.84702L614.671 -4.38899L615.024 -4.11168L613.879 -2.65366L613.526 -2.93097L612.381 -1.47295L612.735 -1.19564L611.59 0.262385L611.237 -0.0149306L610.092 1.44309L610.445 1.72041L609.301 3.17843L608.948 2.90111L607.803 4.35914L608.156 4.63645L607.012 6.09447L606.658 5.81716L605.514 7.27518L605.867 7.5525L604.723 9.01052L604.369 8.7332L603.225 10.1912L603.578 10.4685L602.433 11.9266L602.08 11.6492L601.988 11.7664L601.933 11.6282L601.516 11.7954L600.825 10.0752L601.242 9.90791L600.552 8.18765L600.135 8.35492L599.445 6.63466L599.861 6.46739L599.171 4.74713L598.754 4.91439L598.064 3.19413L598.481 3.02687L597.79 1.3066L597.374 1.47387L596.683 -0.246388L597.1 -0.413657L596.41 -2.13392L595.993 -1.96665L595.302 -3.68691L595.719 -3.85418L595.029 -5.57444L594.612 -5.40717L593.922 -7.12743L594.338 -7.2947L593.648 -9.01496L593.231 -8.84769L592.541 -10.568L592.958 -10.7352L592.267 -12.4555L591.85 -12.2882L591.16 -14.0085L591.577 -14.1757L590.886 -15.896L590.47 -15.7287L589.779 -17.449L590.196 -17.6163L590.141 -17.7545L590.288 -17.7334L590.352 -18.178L592.187 -17.9158L592.123 -17.4712L593.958 -17.2089L594.022 -17.6535L595.857 -17.3913L595.793 -16.9467L597.628 -16.6845L597.691 -17.1291L599.526 -16.8668L599.463 -16.4222L601.298 -16.16L601.361 -16.6046L603.196 -16.3423L603.133 -15.8978L604.968 -15.6355L605.031 -16.0801L606.866 -15.8179L606.803 -15.3733L608.638 -15.111L608.701 -15.5556L610.536 -15.2934L610.473 -14.8488L612.308 -14.5866L612.371 -15.0311L614.206 -14.7689L614.143 -14.3243L615.978 -14.0621L616.041 -14.5067L617.876 -14.2444L617.813 -13.7998L619.648 -13.5376L619.711 -13.9822Z" stroke="#5960B2" stroke-width="0.898201" stroke-dasharray="1.8 1.8"/>
</g>
<defs>
<clipPath id="clip0_200_3130">
<rect width="1440" height="120" fill="white"/>
</clipPath>
</defs>
</svg>
