<svg xmlns="http://www.w3.org/2000/svg" width="60" height="60" viewBox="0 0 60 60">
  <g id="Group_14390" data-name="Group 14390" transform="translate(-285 -326)">
    <rect id="Rectangle_6189" data-name="Rectangle 6189" width="60" height="60" rx="6" transform="translate(285 326)" fill="#e6efff"/>
    <g id="Group_14389" data-name="Group 14389">
      <g id="Group_14388" data-name="Group 14388">
        <g id="Layer_x0020_1" transform="translate(295 340.505)">
          <path id="Path_374" data-name="Path 374" d="M2.417,0H33.282A2.423,2.423,0,0,1,35.7,2.417v7.5q-.276-.136-.559-.258l-.168-.076c-.294-.121-.592-.233-.894-.332V6.766H1.72v18.3a.665.665,0,0,0,.668.668H18.327c.045.117.091.234.14.35a12.176,12.176,0,0,0,.556,1.163H2.417A2.424,2.424,0,0,1,0,24.828V2.417A2.423,2.423,0,0,1,2.417,0ZM30.136,11.59a9.657,9.657,0,0,1,8.277,14.639l3.74,4.077a.462.462,0,0,1-.027.653l-2.746,2.508a.462.462,0,0,1-.651-.029L35.149,29.5A9.659,9.659,0,1,1,30.136,11.59Zm5.45,4.209a7.657,7.657,0,1,0,1.675,2.5A7.732,7.732,0,0,0,35.585,15.8ZM4.168,9.112H26.629a12.888,12.888,0,0,0-1.327.467l0,0a12.652,12.652,0,0,0-4.093,2.733l-.01.01a12.7,12.7,0,0,0-2.392,3.338H4.168a.551.551,0,0,1-.549-.549V9.661a.55.55,0,0,1,.549-.549Zm-.549,8.774H17.962q-.124.447-.215.9c-.026.126-.049.253-.07.381H3.619V17.886Zm0,3.5H17.5a12.633,12.633,0,0,0,.078,1.283H3.619V21.384ZM30.98,2.716A1.194,1.194,0,1,1,29.787,3.91,1.194,1.194,0,0,1,30.98,2.716Zm-8.088,0A1.194,1.194,0,1,1,21.7,3.91,1.194,1.194,0,0,1,22.893,2.716Zm4.044,0A1.194,1.194,0,1,1,25.742,3.91,1.193,1.193,0,0,1,26.937,2.716Z" fill="#3365c1" fill-rule="evenodd"/>
        </g>
      </g>
    </g>
  </g>
</svg>
