<svg width="879" height="744" viewBox="0 0 879 744" fill="none" xmlns="http://www.w3.org/2000/svg">
<g clip-path="url(#clip0_520_1174)">
<path d="M573.227 314H559.977L569.346 304.611C574.397 299.548 577.552 292.964 578.4 285.821C556.767 271.593 546 250.982 546 229.374C546 189.511 582.56 149 639.817 149C700.474 149 733 186.278 733 225.882C733 265.747 700.131 303 639.817 303C629.251 303 618.226 301.586 608.383 298.993C599.065 308.571 586.44 314 573.227 314Z" fill="#FBD5CE"/>
<path d="M609.112 131H598.837L606.102 123.546C610.019 119.526 612.466 114.298 613.123 108.627C596.349 97.3315 588 80.9676 588 63.8124C588 32.1631 616.349 0 660.746 0C707.78 0 733 29.5961 733 61.0396C733 92.6904 707.513 122.267 660.746 122.267C652.553 122.267 644.004 121.144 636.372 119.085C629.147 126.69 619.357 131 609.112 131Z" fill="#FBD5CE"/>
<path d="M658.052 230.063L647.834 240.316C643.691 244.474 636.4 244.563 632.167 240.316L621.949 230.063L585.25 266.882C586.616 267.513 588.122 267.89 589.723 267.89H690.278C691.879 267.89 693.385 267.514 694.751 266.882L658.052 230.063Z" fill="#ED4725"/>
<path d="M690.277 182.109H589.723C588.121 182.109 586.615 182.486 585.25 183.118L624.465 222.464C624.468 222.466 624.471 222.467 624.474 222.469C624.475 222.471 624.476 222.473 624.477 222.476L637.228 235.269C638.582 236.623 641.418 236.623 642.773 235.269L655.521 222.478C655.521 222.478 655.524 222.472 655.527 222.469C655.527 222.469 655.533 222.466 655.535 222.464L694.75 183.118C693.384 182.486 691.879 182.109 690.277 182.109ZM580.14 188.117C579.434 189.546 579 191.133 579 192.832V257.168C579 258.867 579.433 260.454 580.14 261.883L616.903 225.001L580.14 188.117ZM699.86 188.116L663.097 225.001L699.86 261.884C700.566 260.454 701 258.868 701 257.168V192.832C701 191.132 700.566 189.546 699.86 188.116Z" fill="#ED4725"/>
<g clip-path="url(#clip1_520_1174)">
<path d="M680.25 74.2921C677.618 71.6937 674.332 71.6937 671.717 74.2921C669.722 76.2702 667.728 78.2483 665.766 80.26C665.23 80.8132 664.777 80.9305 664.123 80.5617C662.832 79.8576 661.458 79.2877 660.217 78.5165C654.434 74.8788 649.589 70.2017 645.298 64.9379C643.169 62.3227 641.274 59.5232 639.95 56.3716C639.682 55.7346 639.732 55.3155 640.252 54.7958C642.247 52.8679 644.191 50.8898 646.153 48.9117C648.885 46.1624 648.885 42.9438 646.136 40.1778C644.577 38.602 643.018 37.0597 641.459 35.4839C639.849 33.8746 638.257 32.2485 636.631 30.6559C633.999 28.0911 630.713 28.0911 628.098 30.6727C626.086 32.6508 624.158 34.6792 622.113 36.6238C620.219 38.4176 619.263 40.6136 619.062 43.1785C618.744 47.3527 619.766 51.2922 621.208 55.1311C624.158 63.0771 628.651 70.1346 634.099 76.6055C641.459 85.3562 650.243 92.2796 660.519 97.2752C665.146 99.5215 669.94 101.248 675.154 101.533C678.741 101.734 681.859 100.829 684.357 98.0296C686.067 96.1185 687.995 94.3751 689.805 92.5478C692.488 89.8321 692.504 86.5464 689.839 83.8642C686.654 80.6623 683.452 77.4772 680.25 74.2921ZM677.048 60.9313L683.234 59.8752C682.262 54.1923 679.58 49.0458 675.506 44.9554C671.198 40.6471 665.749 37.9314 659.748 37.0932L658.876 43.3126C663.52 43.9664 667.744 46.0618 671.08 49.3978C674.232 52.5494 676.294 56.5392 677.048 60.9313ZM686.721 34.0422C679.58 26.9009 670.544 22.3914 660.569 21L659.698 27.2194C668.314 28.4264 676.126 32.3323 682.295 38.4846C688.146 44.3352 691.985 51.728 693.376 59.8584L699.562 58.8023C697.936 49.3811 693.493 40.8316 686.721 34.0422Z" fill="#ED4725"/>
</g>
<path d="M134.033 673.703C114.522 688.248 108.992 713.838 108.992 713.838C108.992 713.838 135.096 715.847 154.607 701.303C174.118 686.759 179.647 661.168 179.647 661.168C179.647 661.168 153.543 659.159 134.033 673.703Z" fill="#F1F1F1"/>
<path d="M142.16 680.532C132.783 702.988 109.298 714.56 109.298 714.56C109.298 714.56 101.017 689.724 110.394 667.268C119.771 644.811 143.256 633.239 143.256 633.239C143.256 633.239 151.537 658.076 142.16 680.532Z" fill="#F1F1F1"/>
<path d="M703.504 615.614C701.431 601.649 700.883 587.501 701.87 573.418L703.504 550.111C694.503 568.02 696.538 591.59 703.504 615.614Z" fill="#CACACA"/>
<path d="M710.521 619.513C709.523 611.18 709.26 602.776 709.735 594.397L710.521 580.523C706.191 591.183 707.17 605.213 710.521 619.513Z" fill="#CACACA"/>
<path d="M741.714 636.67V644.468C741.711 645.088 741.464 645.681 741.026 646.119C740.588 646.557 739.994 646.805 739.375 646.808H735.476C735.373 646.807 735.272 646.827 735.177 646.866C735.082 646.905 734.996 646.963 734.924 647.035C734.851 647.108 734.794 647.194 734.755 647.289C734.716 647.383 734.696 647.485 734.696 647.588V711.53C734.693 712.15 734.445 712.743 734.007 713.181C733.569 713.619 732.976 713.867 732.357 713.87H684.79C684.169 713.869 683.575 713.623 683.136 713.184C682.697 712.745 682.451 712.151 682.45 711.53V647.588C682.45 647.381 682.367 647.183 682.221 647.037C682.075 646.891 681.877 646.808 681.67 646.808H676.992C676.371 646.807 675.777 646.561 675.338 646.122C674.899 645.683 674.653 645.089 674.652 644.468V636.67C674.652 636.363 674.712 636.059 674.83 635.775C674.947 635.491 675.119 635.233 675.337 635.015C675.554 634.798 675.812 634.626 676.096 634.508C676.38 634.391 676.684 634.331 676.992 634.331H739.375C739.995 634.333 740.589 634.58 741.027 635.018C741.465 635.457 741.713 636.051 741.714 636.67Z" fill="#F2F2F2"/>
<path d="M734.769 648.445H682.523V650.785H734.769V648.445Z" fill="#E6E6E6"/>
<path d="M734.698 682.869C717.215 690.104 699.542 690.184 681.672 682.869V666.388C698.875 660.61 717.495 660.61 734.698 666.388V682.869Z" fill="#E6E6E6"/>
<path d="M441.853 430.877C480.881 430.877 512.519 399.239 512.519 360.211C512.519 321.183 480.881 289.545 441.853 289.545C402.826 289.545 371.188 321.183 371.188 360.211C371.188 399.239 402.826 430.877 441.853 430.877Z" fill="#FEB8B8"/>
<path d="M507.854 299.246C497.289 282.09 480.752 269.448 461.424 263.754L452.749 270.085V261.865C448.108 261.154 443.41 260.881 438.717 261.047L431.232 267.82V261.61C420.15 262.987 409.474 266.645 399.877 272.354C390.279 278.063 381.969 285.698 375.469 294.779C359.215 318.211 356.471 350.811 372.458 374.431C376.846 360.944 382.173 348.289 386.563 334.803C390.012 335.273 393.508 335.29 396.961 334.853L402.3 322.395L403.792 334.326C420.342 332.885 444.888 329.719 460.577 326.818L459.051 317.665L468.179 325.271C472.985 324.165 475.839 323.161 475.604 322.394C487.272 341.205 501.552 353.219 513.219 372.03C517.651 345.506 522.752 323.451 507.854 299.246Z" fill="#2F2E41"/>
<path d="M593.837 541.93C591.407 527.311 588.9 512.411 582.106 499.241C577.64 490.615 570.552 482.395 560.996 480.689C559.114 480.521 557.264 480.093 555.5 479.417C552.7 478.068 515.074 456.589 509.094 452.848C503.96 449.637 495.854 443.69 491.767 443.69C487.655 443.6 471.889 447.269 410.353 442.459C410.353 442.459 393.448 449.122 380.368 457.202C380.17 457.071 316.499 491.262 314.107 491.172C309.577 490.981 305.366 493.882 302.769 497.534C300.173 501.187 298.955 505.708 297.68 510.08C311.586 541.05 324.31 572.06 338.219 603.03C338.87 604.196 339.216 605.508 339.224 606.844C338.945 608.231 338.353 609.535 337.494 610.659C330.674 621.615 330.891 635.395 331.636 648.272C332.381 661.149 333.303 674.75 327.549 686.292C325.983 689.461 323.948 692.361 322.459 695.53C318.973 702.707 317.713 725.661 319.749 733.372L574.87 740.68C569.384 725.602 593.837 541.93 593.837 541.93Z" fill="#ED4725"/>
<path d="M275.624 604.403C275.114 608.085 275.063 611.816 275.471 615.511L279.127 668.024C279.471 672.973 279.809 677.911 280.273 682.848C281.151 692.429 282.461 701.934 284.088 711.425C284.125 712.773 284.694 714.051 285.672 714.979C286.65 715.907 287.956 716.409 289.304 716.375C305.4 719.781 322.03 719.644 338.457 718.717C363.524 717.318 427.655 714.671 431.573 709.581C435.491 704.491 433.208 696.259 428.099 692.143C422.99 688.027 338.361 677.994 338.361 677.994C339.188 671.441 341.682 665.269 344.048 659.048C348.299 648.013 352.269 636.615 352.345 624.794C352.421 612.973 347.968 600.545 338.284 593.772C330.319 588.213 320.063 587.181 310.356 587.41C303.294 587.613 291.091 585.921 284.641 588.683C279.536 590.931 276.577 599.404 275.624 604.403Z" fill="#FBBEBE"/>
<path d="M296.942 511.023C295.702 512.321 294.741 513.858 294.117 515.541C283.832 538.721 277.757 563.547 276.177 588.857C276.205 590.091 275.92 591.312 275.35 592.407C274.787 593.135 274.162 593.812 273.479 594.43C272.885 595.135 272.435 595.95 272.155 596.829C271.875 597.708 271.771 598.634 271.849 599.553C271.927 600.472 272.186 601.367 272.609 602.186C273.033 603.005 273.614 603.733 274.319 604.328C274.435 604.425 274.554 604.519 274.675 604.609C276.775 600.658 281.8 599.367 286.268 599.024C307.656 597.332 328.549 607.282 350.002 606.531C348.488 601.301 346.311 596.276 345.077 590.983C339.618 567.481 353.233 541.894 344.886 519.257C343.219 514.727 340.433 510.274 336.043 508.289C334.226 507.556 332.324 507.053 330.381 506.79C324.961 505.811 314.17 501.624 308.929 503.304C306.994 503.928 306.231 505.747 304.628 506.846C302.192 508.402 298.961 508.974 296.942 511.023Z" fill="#ED4725"/>
<path d="M593.986 588.683C587.536 585.921 575.333 587.613 568.271 587.41C558.564 587.181 548.309 588.213 540.343 593.772C530.659 600.545 526.206 612.973 526.282 624.794C526.359 636.615 530.328 648.013 534.579 659.048C536.945 665.269 539.44 671.441 540.267 677.994C540.267 677.994 455.637 688.027 450.528 692.143C445.419 696.259 443.136 704.491 447.054 709.581C450.972 714.671 573.227 719.781 589.323 716.375C590.671 716.409 591.977 715.907 592.955 714.979C593.933 714.051 594.503 712.773 594.539 711.425C596.166 701.934 597.477 692.429 598.354 682.848C598.819 677.911 599.156 672.973 599.5 668.024L603.156 615.511C603.564 611.816 603.513 608.085 603.004 604.403C602.05 599.405 599.091 590.931 593.986 588.683Z" fill="#FBBEBE"/>
<path d="M574.003 506.846C572.399 505.747 571.637 503.928 569.702 503.304C564.461 501.625 553.67 505.811 548.249 506.79C546.307 507.053 544.405 507.556 542.587 508.289C538.198 510.274 535.412 514.727 533.744 519.257C525.397 541.894 539.013 567.481 533.554 590.983C532.319 596.276 530.142 601.301 528.629 606.531C550.082 607.282 570.975 597.332 592.363 599.024C596.83 599.367 601.856 600.658 603.955 604.609C604.077 604.519 604.196 604.426 604.311 604.328C605.017 603.733 605.598 603.005 606.021 602.186C606.445 601.367 606.703 600.472 606.781 599.553C606.859 598.634 606.756 597.708 606.476 596.829C606.196 595.95 605.746 595.135 605.151 594.43C604.469 593.812 603.843 593.135 603.281 592.407C602.711 591.312 602.426 590.091 602.454 588.856C600.874 563.547 594.799 538.721 584.513 515.541C583.89 513.858 582.929 512.321 581.689 511.023C579.67 508.974 576.439 508.402 574.003 506.846Z" fill="#ED4725"/>
<path d="M420.924 718.883C431.458 718.883 439.997 710.344 439.997 699.81C439.997 689.276 431.458 680.737 420.924 680.737C410.391 680.737 401.852 689.276 401.852 699.81C401.852 710.344 410.391 718.883 420.924 718.883Z" fill="#FBBEBE"/>
<path d="M463.155 718.883C473.688 718.883 482.228 710.344 482.228 699.81C482.228 689.276 473.688 680.737 463.155 680.737C452.621 680.737 444.082 689.276 444.082 699.81C444.082 710.344 452.621 718.883 463.155 718.883Z" fill="#FBBEBE"/>
<path d="M580.887 742.788H318.856C315.796 742.785 312.864 741.568 310.7 739.405C308.537 737.242 307.32 734.309 307.316 731.249V572.283C307.32 569.224 308.537 566.291 310.7 564.128C312.864 561.964 315.796 560.748 318.856 560.744H580.887C583.946 560.748 586.879 561.964 589.042 564.128C591.205 566.291 592.422 569.224 592.426 572.283V731.249C592.422 734.309 591.205 737.242 589.042 739.405C586.879 741.568 583.946 742.785 580.887 742.788Z" fill="#3F3D56"/>
<path d="M449.236 659.401C453.453 659.401 456.871 655.983 456.871 651.766C456.871 647.55 453.453 644.132 449.236 644.132C445.02 644.132 441.602 647.55 441.602 651.766C441.602 655.983 445.02 659.401 449.236 659.401Z" fill="white"/>
<path d="M878.63 710.724H0V737.724H51.97V744H826.68V737.724H878.63V710.724Z" fill="#F1F1F1"/>
<path d="M376.872 386.549C365.517 386.549 356.312 376.597 356.312 364.32V353.205C356.312 340.928 365.517 330.976 376.872 330.976L376.872 386.549Z" fill="#ED4725"/>
<path d="M508.094 330.976C519.448 330.976 528.653 340.928 528.653 353.205V364.32C528.653 376.597 519.448 386.549 508.094 386.549V330.976Z" fill="#ED4725"/>
<path d="M518.869 354.951H515.607C515.607 310.221 481.951 273.831 440.581 273.831C399.212 273.831 365.555 310.221 365.555 354.951H362.293C362.293 308.276 397.413 270.304 440.581 270.304C483.749 270.304 518.869 308.276 518.869 354.951Z" fill="#ED4725"/>
</g>
<defs>
<clipPath id="clip0_520_1174">
<rect width="879" height="744" fill="white"/>
</clipPath>
<clipPath id="clip1_520_1174">
<rect width="80.56" height="80.56" fill="white" transform="translate(619 21)"/>
</clipPath>
</defs>
</svg>
