<svg width="38" height="38" viewBox="0 0 38 38" fill="none" xmlns="http://www.w3.org/2000/svg">
<path d="M19 0C13.9609 -6.00908e-08 9.12816 2.00178 5.56497 5.56497C2.00178 9.12816 4.40533e-07 13.9609 0 19C-4.40533e-07 24.0391 2.00178 28.8718 5.56497 32.435C9.12816 35.9982 13.9609 38 19 38L19 19V0Z" fill="#5CA380"/>
<path d="M19 38C24.0391 38 28.8718 35.9982 32.435 32.435C35.9982 28.8718 38 24.0391 38 19C38 13.9609 35.9982 9.12817 32.435 5.56498C28.8718 2.00178 24.0391 3.41517e-06 19 2.15366e-06L19 19L19 38Z" fill="#5CA380" fill-opacity="0.5"/>
</svg>
