<svg id="sw-js-blob-svg" viewBox="0 0 100 100" xmlns="http://www.w3.org/2000/svg"><defs><linearGradient id="sw-gradient" x1="0" x2="1" y1="1" y2="0"><stop id="stop1" stop-color="rgba(220,222,239,1)" offset="0%"></stop><stop id="stop2" stop-color="rgba(220, 222, 239, 1)" offset="100%"></stop></linearGradient></defs><path fill="url(#sw-gradient)" d="M23.6,-33.9C29.4,-28.3,32.1,-19.8,34.8,-11.3C37.5,-2.9,40.2,5.5,38.3,12.8C36.4,20,29.9,26,22.7,28C15.5,30,7.8,28,0.5,27.3C-6.8,26.6,-13.6,27.3,-18.4,24.6C-23.3,21.8,-26.3,15.7,-30.3,8.6C-34.4,1.5,-39.4,-6.5,-37,-11.4C-34.5,-16.4,-24.6,-18.3,-17.2,-23.4C-9.8,-28.5,-4.9,-36.9,2,-39.6C8.9,-42.4,17.8,-39.6,23.6,-33.9Z" width="100%" height="100%" transform="translate(50 50)" stroke-width="0" style="transition: all 0.3s ease 0s;"></path></svg>