<svg xmlns="http://www.w3.org/2000/svg" width="291.55" height="291.55" viewBox="0 0 291.55 291.55">
  <circle id="Ellipse_44" data-name="Ellipse 44" cx="145.775" cy="145.775" r="145.775" fill="#5CA380"/>
  <path id="Path_395" data-name="Path 395" d="M395.841,479.591a15.119,15.119,0,0,1-9.1-3.023l-.163-.122-34.259-26.207a15.224,15.224,0,1,1,18.526-24.165l22.19,17.017,52.436-68.409a15.218,15.218,0,0,1,21.336-2.818l0,0-.325.452.334-.452a15.236,15.236,0,0,1,2.815,21.341l-61.677,80.429a15.227,15.227,0,0,1-12.109,5.937Z" transform="translate(-264.511 -278.208)" fill="#fff"/>
</svg>
