<svg width="1038" height="237" viewBox="0 0 1038 237" fill="none" xmlns="http://www.w3.org/2000/svg">
<path d="M349 163.2V141.74L393.22 90.8998V88.8498H350.3V73.7798H410.85V95.2398L366.65 146.08V148.08H411.11V163.2H349Z" fill="white"/>
<path d="M433.71 93.9098C430.988 93.9779 428.35 92.9679 426.37 91.0998C424.445 89.1131 423.369 86.4557 423.369 83.6898C423.369 80.9239 424.445 78.2664 426.37 76.2798C428.4 74.4693 431.025 73.4687 433.745 73.4688C436.465 73.4688 439.09 74.4693 441.12 76.2798C443.008 78.2851 444.059 80.9355 444.059 83.6898C444.059 86.444 443.008 89.0944 441.12 91.0998C440.132 92.0356 438.969 92.7659 437.697 93.2483C436.425 93.7307 435.069 93.9556 433.71 93.9098ZM425.71 163.2V99.8398H441.8V163.2H425.71Z" fill="white"/>
<path d="M459.64 163.2V99.8402H475.48V108.14H477.78C479.118 105.572 481.099 103.394 483.53 101.82C486.343 99.8202 490.6 98.8202 496.3 98.8202C500.863 98.7133 505.366 99.884 509.3 102.2C512.988 104.444 515.974 107.676 517.92 111.53C520.05 115.834 521.107 120.589 521 125.39V163.2H504.9V126.67C504.9 121.904 503.73 118.324 501.39 115.93C499.05 113.537 495.716 112.347 491.39 112.36C486.45 112.36 482.62 114 479.9 117.28C477.18 120.56 475.793 125.134 475.74 131V163.2H459.64Z" fill="white"/>
<path d="M568.09 163.2C562.306 163.278 556.589 161.964 551.42 159.37C546.499 156.871 542.4 153.011 539.61 148.25C536.71 143.403 535.26 137.527 535.26 130.62V128.84C535.26 121.94 536.71 116.063 539.61 111.21C542.398 106.449 546.498 102.592 551.42 100.1C556.587 97.4993 562.305 96.1821 568.09 96.2601C573.463 96.1194 578.797 97.2141 583.68 99.4601C587.863 101.459 591.485 104.466 594.22 108.21C596.912 111.95 598.724 116.251 599.52 120.79L583.93 124.11C583.628 121.68 582.846 119.335 581.63 117.21C580.441 115.164 578.711 113.486 576.63 112.36C574.12 111.091 571.331 110.475 568.52 110.57C565.471 110.521 562.461 111.247 559.77 112.68C557.144 114.104 555.008 116.285 553.64 118.94C552.057 122.083 551.287 125.573 551.4 129.09V130.37C551.284 133.888 552.054 137.378 553.64 140.52C555.008 143.175 557.144 145.356 559.77 146.78C562.461 148.213 565.471 148.939 568.52 148.89C573.373 148.89 577.04 147.633 579.52 145.12C582.125 142.411 583.802 138.944 584.31 135.22L599.89 138.93C598.816 143.367 596.886 147.552 594.21 151.25C591.481 154.996 587.862 158.004 583.68 160C578.797 162.246 573.463 163.341 568.09 163.2Z" fill="white"/>
<path d="M878.34 163.051C873.806 163.141 869.309 162.228 865.168 160.378C861.518 158.74 858.416 156.085 856.233 152.731C854.006 149.144 852.885 144.979 853.009 140.759V138.182H864.982V140.759C864.982 144.63 866.179 147.532 868.571 149.463C870.964 151.394 874.218 152.362 878.333 152.367C882.507 152.367 885.625 151.538 887.685 149.88C888.662 149.137 889.451 148.174 889.986 147.069C890.522 145.964 890.789 144.749 890.767 143.521C890.846 141.941 890.313 140.391 889.278 139.195C888.043 137.948 886.526 137.016 884.855 136.477C882.552 135.667 880.199 135.005 877.811 134.497L875.697 134.035C871.778 133.221 867.962 131.972 864.32 130.312C861.406 129.011 858.895 126.955 857.045 124.355C855.357 121.908 854.513 118.716 854.513 114.78C854.409 111.211 855.388 107.693 857.32 104.691C859.285 101.823 862.036 99.584 865.243 98.2428C869.049 96.6682 873.143 95.9073 877.26 96.009C881.477 95.9359 885.662 96.737 889.554 98.3619C893.006 99.8097 895.953 102.245 898.027 105.361C900.087 108.458 901.117 112.343 901.117 117.014V119.776H889.122V117.014C889.221 114.933 888.725 112.867 887.692 111.057C886.724 109.537 885.286 108.373 883.597 107.744C881.563 106.992 879.406 106.63 877.238 106.679C873.555 106.679 870.837 107.371 869.085 108.756C868.229 109.423 867.545 110.284 867.089 111.268C866.633 112.252 866.419 113.331 866.464 114.415C866.416 115.868 866.854 117.296 867.707 118.473C868.692 119.697 869.974 120.648 871.43 121.236C873.477 122.092 875.605 122.738 877.782 123.164L879.904 123.626C884.026 124.461 888.05 125.729 891.906 127.408C895.034 128.726 897.775 130.817 899.874 133.484C901.78 136.001 902.73 139.227 902.725 143.164C902.803 146.84 901.765 150.454 899.747 153.528C897.632 156.607 894.696 159.031 891.274 160.527C887.196 162.296 882.783 163.157 878.34 163.051Z" fill="white"/>
<path d="M734 163.2C729.832 163.269 725.696 162.462 721.86 160.83C718.436 159.382 715.492 156.993 713.37 153.94C711.212 150.668 710.118 146.808 710.24 142.89C710.097 139.024 711.183 135.212 713.34 132C715.522 128.979 718.544 126.667 722.03 125.35C726.081 123.798 730.393 123.041 734.73 123.12H752.11V119.54C752.158 118.191 751.934 116.845 751.451 115.584C750.969 114.323 750.237 113.172 749.3 112.2C747.42 110.28 744.44 109.32 740.36 109.32C736.28 109.32 733.28 110.237 731.36 112.07C729.365 113.968 728.023 116.451 727.53 119.16L712.71 114.16C713.744 110.903 715.417 107.884 717.63 105.28C720.109 102.436 723.214 100.204 726.7 98.7602C731.1 96.9858 735.818 96.1382 740.56 96.2702C748.907 96.2702 755.507 98.3569 760.36 102.53C765.213 106.704 767.64 112.75 767.64 120.67V144.3C767.64 146.86 768.833 148.14 771.22 148.14H776.33V161.42H765.65C762.871 161.531 760.133 160.723 757.86 159.12C756.884 158.43 756.093 157.509 755.557 156.44C755.022 155.371 754.758 154.186 754.79 152.99V152.86H752.36C751.786 154.296 751.012 155.642 750.06 156.86C748.573 158.765 746.644 160.279 744.44 161.27C741.893 162.557 738.413 163.2 734 163.2ZM736.81 150.2C740.835 150.367 744.777 149.023 747.86 146.43C749.269 145.184 750.385 143.641 751.125 141.912C751.865 140.182 752.212 138.31 752.14 136.43V135.1H735.88C733.401 134.96 730.944 135.63 728.88 137.01C728.045 137.626 727.375 138.439 726.929 139.375C726.482 140.312 726.273 141.344 726.32 142.38C726.295 143.461 726.525 144.533 726.99 145.51C727.456 146.486 728.144 147.339 729 148C730.78 149.45 733.37 150.17 736.78 150.17L736.81 150.2Z" fill="white"/>
<path d="M75.7802 32.49L94.8902 16H275.1L282.58 43.29L165.18 146.48L159.18 73.2H63.1102C61.2029 65.9084 61.3792 58.2281 63.6189 51.0317C65.8586 43.8353 70.0719 37.4114 75.7802 32.49Z" fill="#5960B2"/>
<path d="M224.3 203.64L205.18 220.13H25L17.5 192.84L134.9 89.6499L140.9 162.93H237C238.903 170.224 238.721 177.906 236.476 185.102C234.231 192.299 230.013 198.721 224.3 203.64Z" fill="#5CA380"/>
<path d="M650 163V74H665V150H702V163H650Z" fill="white"/>
<path fill-rule="evenodd" clip-rule="evenodd" d="M786 74V163H799.5V155.5C802.333 159.667 811.7 166.8 826.5 162C841.3 157.2 844 136 843.5 126C842.833 118.167 837.6 101.7 822 98.5C817.167 97.8333 805.9 98.2 799.5 105V74H786ZM815 153C823.837 153 831 143.15 831 131C831 118.85 823.837 109 815 109C806.163 109 799 118.85 799 131C799 143.15 806.163 153 815 153Z" fill="white"/>
</svg>
