<svg xmlns="http://www.w3.org/2000/svg" xmlns:xlink="http://www.w3.org/1999/xlink" viewBox="0 0 386.56 306.56"><defs><style>.cls-1,.cls-6{fill:#444;}.cls-2{fill:url(#linear-gradient);}.cls-3{fill:url(#linear-gradient-2);}.cls-4{fill:url(#linear-gradient-3);}.cls-5{fill:url(#linear-gradient-4);}.cls-6,.cls-7{fill-rule:evenodd;}.cls-7{fill:url(#linear-gradient-5);}</style><linearGradient id="linear-gradient" x1="83.1" y1="55.09" x2="205.62" y2="55.09" gradientUnits="userSpaceOnUse"><stop offset="0" stop-color="#d1c6e0"/><stop offset="0.35" stop-color="#9274b2"/><stop offset="0.71" stop-color="#652f8d"/><stop offset="1" stop-color="#2b1143"/></linearGradient><linearGradient id="linear-gradient-2" x1="193.28" y1="61.26" x2="303.46" y2="61.26" gradientUnits="userSpaceOnUse"><stop offset="0.01" stop-color="#82c2df"/><stop offset="0.3" stop-color="#3cafd9"/><stop offset="0.59" stop-color="#0379b8"/><stop offset="0.7" stop-color="#006dac"/><stop offset="0.73" stop-color="#006aa9"/><stop offset="0.91" stop-color="#334c84"/><stop offset="1" stop-color="#3a447a"/></linearGradient><linearGradient id="linear-gradient-3" x1="180.94" y1="165.28" x2="303.46" y2="165.28" gradientUnits="userSpaceOnUse"><stop offset="0" stop-color="#712c71"/><stop offset="0.12" stop-color="#8f286e"/><stop offset="0.38" stop-color="#db1d65"/><stop offset="0.43" stop-color="#ea1b63"/><stop offset="0.98" stop-color="#f79e1e"/></linearGradient><linearGradient id="linear-gradient-4" x1="83.1" y1="159.11" x2="193.28" y2="159.11" gradientUnits="userSpaceOnUse"><stop offset="0" stop-color="#931b1e"/><stop offset="0.32" stop-color="#ed4725"/><stop offset="0.38" stop-color="#ee5f26"/><stop offset="0.53" stop-color="#f08f27"/><stop offset="0.74" stop-color="#f5c321"/><stop offset="0.88" stop-color="#f8d718"/><stop offset="1" stop-color="#f6df65"/></linearGradient><linearGradient id="linear-gradient-5" x1="15.1" y1="276.4" x2="460.74" y2="276.4" gradientUnits="userSpaceOnUse"><stop offset="0" stop-color="#f6df65"/><stop offset="0.12" stop-color="#f8d718"/><stop offset="0.26" stop-color="#f5c321"/><stop offset="0.47" stop-color="#f08f27"/><stop offset="0.62" stop-color="#ee5f26"/><stop offset="0.68" stop-color="#ed4725"/><stop offset="1" stop-color="#931b1e"/></linearGradient></defs><g id="Layer_2" data-name="Layer 2"><g id="Layer_1-2" data-name="Layer 1"><path class="cls-1" d="M265.13,110.19c0,2.22-.11,4.42-.3,6.6h-41l-3.13-6.35-22.27,44.45L180,101.75l-12.56,41.49-16.79-26.45H121.73c-.19-2.18-.3-4.38-.3-6.6s.11-4.43.3-6.61h36.21l5.24,8.26L179.2,59l21.45,62L220.8,80.75,232,103.58h32.8C265,105.76,265.13,108,265.13,110.19Z"/><path class="cls-2" d="M205.62,17.75A18.67,18.67,0,0,1,193.28,35a75.2,75.2,0,0,0-75.2,75.21,18.56,18.56,0,0,0-35,0A110.18,110.18,0,0,1,193.28,0,18.67,18.67,0,0,1,205.62,17.75Z"/><path class="cls-3" d="M303.46,110.19a18.56,18.56,0,0,1-35,0A75.21,75.21,0,0,0,193.28,35a18.56,18.56,0,0,0,0-35A110.18,110.18,0,0,1,303.46,110.19Z"/><path class="cls-4" d="M303.46,110.19A110.17,110.17,0,0,1,193.28,220.37a18.56,18.56,0,0,1,0-35,75.2,75.2,0,0,0,75.21-75.2,18.56,18.56,0,0,0,35,0Z"/><path class="cls-5" d="M193.28,220.37A110.18,110.18,0,0,1,83.1,110.19a18.56,18.56,0,0,1,35,0,75.2,75.2,0,0,0,75.2,75.2,18.56,18.56,0,0,0,0,35Z"/><path class="cls-6" d="M14.72,264.21a16.8,16.8,0,0,0,0,33.35,16.71,16.71,0,0,0,4.16,0,16.8,16.8,0,0,0,0-33.35,18.09,18.09,0,0,0-4.16,0Zm3.89,6.7a10.14,10.14,0,0,1-.13,20,10.56,10.56,0,0,1-1.68.13,10.35,10.35,0,0,1-1.67-.13l-.14,0a10.14,10.14,0,0,1,.14-20,10.36,10.36,0,0,1,1.67-.14,10.58,10.58,0,0,1,1.68.14l.13,0Z"/><path class="cls-6" d="M130.81,272a7.33,7.33,0,0,1,5.7,7.12v18.25a.34.34,0,0,0,.33.34h6a.34.34,0,0,0,.33-.34V279.1a14,14,0,0,0-11.83-13.8,14.19,14.19,0,0,0-4.25,0,14,14,0,0,0-11.83,13.8v18.25a.34.34,0,0,0,.34.34h6a.34.34,0,0,0,.33-.34V279.1a7.33,7.33,0,0,1,5.7-7.12,7.83,7.83,0,0,1,1.6-.17,7.74,7.74,0,0,1,1.59.17Z"/><path class="cls-6" d="M53.14,264.21a16.8,16.8,0,0,0-14.72,16.68v25.34a.34.34,0,0,0,.34.33h6a.34.34,0,0,0,.34-.33V280.89a10.14,10.14,0,0,1,8.46-10,10,10,0,0,1,3.34,0l.14,0a10.14,10.14,0,0,1-.14,20,10.79,10.79,0,0,1-3.34,0l-.14,0A10.07,10.07,0,0,1,49.1,289a.32.32,0,0,0-.35,0,.3.3,0,0,0-.19.3v6.86a.32.32,0,0,0,.21.31,16.49,16.49,0,0,0,4.37,1.15,16.7,16.7,0,0,0,4.16,0,16.8,16.8,0,0,0,0-33.35,18.09,18.09,0,0,0-4.16,0Z"/><path class="cls-7" d="M231.6,274a1.66,1.66,0,0,0,1,1.17l14.36,6.49a8.5,8.5,0,0,1,2.61,1.83,7.72,7.72,0,0,1,2.37,5.06,9.47,9.47,0,0,1-.22,2.55,7.24,7.24,0,0,1-.78,2.06,8.73,8.73,0,0,1-7.44,4.58H226.62a.34.34,0,0,1-.33-.34v-6a.34.34,0,0,1,.33-.34h16.85a1.67,1.67,0,0,0,1.68-1.36,1.73,1.73,0,0,0,0-.75,1.68,1.68,0,0,0-1-1.18l-14.36-6.49a8.64,8.64,0,0,1-2.61-1.82,7.76,7.76,0,0,1-2.37-5.07,9.5,9.5,0,0,1,.22-2.55,7.35,7.35,0,0,1,.78-2.06,8.73,8.73,0,0,1,7.44-4.58h16.81a.34.34,0,0,1,.33.34v6a.33.33,0,0,1-.33.33H233.28a1.67,1.67,0,0,0-1.68,1.36,1.77,1.77,0,0,0,0,.76Zm103.68,13.5-9.84-22.11a.32.32,0,0,0-.31-.2h-6.59a.31.31,0,0,0-.28.15.33.33,0,0,0,0,.33l14.28,31.87a.32.32,0,0,0,.31.2h5.61a.3.3,0,0,0,.3-.2l14.46-31.87a.31.31,0,0,0,0-.32.3.3,0,0,0-.28-.16h-6.6a.33.33,0,0,0-.31.2l-10,22.11a.39.39,0,0,1-.71,0Zm-40.12,9.9a.34.34,0,0,0,.34.34h6a.34.34,0,0,0,.33-.34V282.17c0-.11,0-.22,0-.33a10.36,10.36,0,0,1,.14-1.67,10.14,10.14,0,0,1,10-8.47h1.09a.34.34,0,0,0,.34-.34v-6a.34.34,0,0,0-.34-.33H312a16.79,16.79,0,0,0-16.67,14.72,16,16,0,0,0-.13,2.08v15.51ZM162.71,264.21a18.09,18.09,0,0,1,4.16,0,16.8,16.8,0,0,1,0,33.35,16.71,16.71,0,0,1-4.16,0,16.8,16.8,0,0,1,0-33.35Zm3.88,6.7-.13,0a10,10,0,0,0-3.34,0,10.13,10.13,0,0,0-.14,20l.14,0a10.79,10.79,0,0,0,3.34,0,10.14,10.14,0,0,0,.13-20Zm34.54-6.7a17,17,0,0,0-4.38,1.16.33.33,0,0,0-.21.31v6.86a.33.33,0,0,0,.19.3.34.34,0,0,0,.36,0,10.09,10.09,0,0,1,4.45-1.92,10,10,0,0,1,3.34,0l.13,0a10.14,10.14,0,0,1-.13,20,10.79,10.79,0,0,1-3.34,0l-.14,0a10.13,10.13,0,0,1-8.33-10V255.45a.34.34,0,0,0-.33-.34h-6a.34.34,0,0,0-.33.34v25.44a16.8,16.8,0,0,0,14.72,16.67,16.7,16.7,0,0,0,4.16,0,16.8,16.8,0,0,0,0-33.35,18.09,18.09,0,0,0-4.16,0Zm79.58,23.85a10.29,10.29,0,0,1-3.87,2.42l-.09,0a10.32,10.32,0,0,1-3.21.51,10.12,10.12,0,0,1-9.37-6.25.09.09,0,0,1,0,0,10.06,10.06,0,0,1,0-7.67.08.08,0,0,1,0,0,10.06,10.06,0,0,1,3-4h0a10.15,10.15,0,0,1,15.71,4s0,0,0,0l.19.51h-16.2a10.18,10.18,0,0,0,0,6.66h22.84a.34.34,0,0,0,.34-.29l.12-1a18.09,18.09,0,0,0,0-4.16,16.8,16.8,0,0,0-33.35,0,16.7,16.7,0,0,0,0,4.16,16.8,16.8,0,0,0,28.55,9.8l.77-.77a.34.34,0,0,0,0-.48L282,287.29a.34.34,0,0,0-.48,0l-.77.77Zm96.22,0a10.29,10.29,0,0,1-3.87,2.42l-.1,0a10.21,10.21,0,0,1-9.52-1.69,10.1,10.1,0,0,1-3.05-4.05l0,0a10.18,10.18,0,0,1,0-7.67s0,0,0,0a10.13,10.13,0,0,1,3-4h0a10.15,10.15,0,0,1,15.71,4s0,0,0,0c.07.17.13.34.19.51H363.14a10.18,10.18,0,0,0,0,6.66H386a.33.33,0,0,0,.33-.29l.12-1a16.71,16.71,0,0,0,0-4.16,16.8,16.8,0,0,0-33.35,0,16.7,16.7,0,0,0,0,4.16,16.81,16.81,0,0,0,28.56,9.8l.77-.77a.34.34,0,0,0,0-.48l-4.24-4.23a.33.33,0,0,0-.47,0l-.77.77Z"/><path class="cls-6" d="M100.81,288.06a10.29,10.29,0,0,1-3.87,2.42l-.09,0a10.32,10.32,0,0,1-3.21.51,10.12,10.12,0,0,1-9.37-6.25s0,0,0,0a10.18,10.18,0,0,1,0-7.67s0,0,0,0a10.06,10.06,0,0,1,3-4h0A10.15,10.15,0,0,1,103,277s0,0,0,0c.07.17.13.34.19.51H87a10.18,10.18,0,0,0,0,6.66h22.84a.33.33,0,0,0,.34-.29l.12-1a18.09,18.09,0,0,0,0-4.16,16.8,16.8,0,0,0-33.35,0A16.7,16.7,0,0,0,77,283a16.8,16.8,0,0,0,28.55,9.8l.77-.77a.34.34,0,0,0,0-.48l-4.23-4.23a.34.34,0,0,0-.48,0l-.77.77Z"/></g></g></svg>