<svg width="1038" height="237" viewBox="0 0 1038 237" fill="none" xmlns="http://www.w3.org/2000/svg">
<path d="M349 163.2V141.74L393.22 90.8998V88.8498H350.3V73.7798H410.85V95.2398L366.65 146.08V148.08H411.11V163.2H349Z" fill="#1F1D1D"/>
<path d="M433.71 93.9098C430.988 93.9779 428.35 92.9679 426.37 91.0998C424.445 89.1131 423.369 86.4557 423.369 83.6898C423.369 80.9239 424.445 78.2664 426.37 76.2798C428.4 74.4693 431.025 73.4687 433.745 73.4688C436.465 73.4688 439.09 74.4693 441.12 76.2798C443.008 78.2851 444.059 80.9355 444.059 83.6898C444.059 86.444 443.008 89.0944 441.12 91.0998C440.132 92.0356 438.969 92.7659 437.697 93.2483C436.425 93.7307 435.069 93.9556 433.71 93.9098ZM425.71 163.2V99.8398H441.8V163.2H425.71Z" fill="#1F1D1D"/>
<path d="M459.64 163.2V99.8402H475.48V108.14H477.78C479.118 105.572 481.099 103.394 483.53 101.82C486.343 99.8202 490.6 98.8202 496.3 98.8202C500.863 98.7133 505.366 99.884 509.3 102.2C512.988 104.444 515.974 107.676 517.92 111.53C520.05 115.834 521.107 120.589 521 125.39V163.2H504.9V126.67C504.9 121.904 503.73 118.324 501.39 115.93C499.05 113.537 495.716 112.347 491.39 112.36C486.45 112.36 482.62 114 479.9 117.28C477.18 120.56 475.793 125.134 475.74 131V163.2H459.64Z" fill="#1F1D1D"/>
<path d="M568.09 163.2C562.306 163.278 556.589 161.964 551.42 159.37C546.499 156.871 542.4 153.011 539.61 148.25C536.71 143.403 535.26 137.527 535.26 130.62V128.84C535.26 121.94 536.71 116.063 539.61 111.21C542.398 106.449 546.498 102.592 551.42 100.1C556.587 97.4993 562.305 96.1821 568.09 96.2601C573.463 96.1194 578.797 97.2141 583.68 99.4601C587.863 101.459 591.485 104.466 594.22 108.21C596.912 111.95 598.724 116.251 599.52 120.79L583.93 124.11C583.628 121.68 582.846 119.335 581.63 117.21C580.441 115.164 578.711 113.486 576.63 112.36C574.12 111.091 571.331 110.475 568.52 110.57C565.471 110.521 562.461 111.247 559.77 112.68C557.144 114.104 555.008 116.285 553.64 118.94C552.057 122.083 551.287 125.573 551.4 129.09V130.37C551.284 133.888 552.054 137.378 553.64 140.52C555.008 143.175 557.144 145.356 559.77 146.78C562.461 148.213 565.471 148.939 568.52 148.89C573.373 148.89 577.04 147.633 579.52 145.12C582.125 142.411 583.802 138.944 584.31 135.22L599.89 138.93C598.816 143.367 596.886 147.552 594.21 151.25C591.481 154.996 587.862 158.004 583.68 160C578.797 162.246 573.463 163.341 568.09 163.2Z" fill="#1F1D1D"/>
<path d="M839.34 163.051C834.806 163.141 830.309 162.228 826.168 160.378C822.518 158.74 819.416 156.085 817.233 152.731C815.006 149.144 813.885 144.979 814.009 140.759V138.182H825.982V140.759C825.982 144.63 827.179 147.532 829.571 149.463C831.964 151.394 835.218 152.362 839.333 152.367C843.507 152.367 846.625 151.538 848.685 149.88C849.662 149.137 850.451 148.174 850.986 147.069C851.522 145.964 851.789 144.749 851.767 143.521C851.846 141.941 851.313 140.391 850.278 139.195C849.043 137.948 847.526 137.016 845.855 136.477C843.552 135.667 841.199 135.005 838.811 134.497L836.697 134.035C832.778 133.221 828.962 131.972 825.32 130.312C822.406 129.011 819.895 126.955 818.045 124.355C816.357 121.908 815.513 118.716 815.513 114.78C815.409 111.211 816.388 107.693 818.32 104.691C820.285 101.823 823.036 99.584 826.243 98.2428C830.049 96.6682 834.143 95.9073 838.26 96.009C842.477 95.9359 846.662 96.737 850.554 98.3619C854.006 99.8097 856.953 102.245 859.027 105.361C861.087 108.458 862.117 112.343 862.117 117.014V119.776H850.122V117.014C850.221 114.933 849.725 112.867 848.692 111.057C847.724 109.537 846.286 108.373 844.597 107.744C842.563 106.992 840.406 106.63 838.238 106.679C834.555 106.679 831.837 107.371 830.085 108.756C829.229 109.423 828.545 110.284 828.089 111.268C827.633 112.252 827.419 113.331 827.464 114.415C827.416 115.868 827.854 117.296 828.707 118.473C829.692 119.697 830.974 120.648 832.43 121.236C834.477 122.092 836.605 122.738 838.782 123.164L840.904 123.626C845.026 124.461 849.05 125.729 852.906 127.408C856.034 128.726 858.775 130.817 860.874 133.484C862.78 136.001 863.73 139.227 863.725 143.164C863.803 146.84 862.765 150.454 860.747 153.528C858.632 156.607 855.696 159.031 852.274 160.527C848.196 162.296 843.783 163.157 839.34 163.051Z" fill="#1F1D1D"/>
<path d="M695 163.2C690.832 163.269 686.696 162.462 682.86 160.83C679.436 159.382 676.492 156.993 674.37 153.94C672.212 150.668 671.118 146.808 671.24 142.89C671.097 139.024 672.183 135.212 674.34 132C676.522 128.979 679.544 126.667 683.03 125.35C687.081 123.798 691.393 123.041 695.73 123.12H713.11V119.54C713.158 118.191 712.934 116.845 712.451 115.584C711.969 114.323 711.237 113.172 710.3 112.2C708.42 110.28 705.44 109.32 701.36 109.32C697.28 109.32 694.28 110.237 692.36 112.07C690.365 113.968 689.023 116.451 688.53 119.16L673.71 114.16C674.744 110.903 676.417 107.884 678.63 105.28C681.109 102.436 684.214 100.204 687.7 98.7602C692.1 96.9858 696.818 96.1382 701.56 96.2702C709.907 96.2702 716.507 98.3569 721.36 102.53C726.213 106.704 728.64 112.75 728.64 120.67V144.3C728.64 146.86 729.833 148.14 732.22 148.14H737.33V161.42H726.65C723.871 161.531 721.133 160.723 718.86 159.12C717.884 158.43 717.093 157.509 716.557 156.44C716.022 155.371 715.758 154.186 715.79 152.99V152.86H713.36C712.786 154.296 712.012 155.642 711.06 156.86C709.573 158.765 707.644 160.279 705.44 161.27C702.893 162.557 699.413 163.2 695 163.2ZM697.81 150.2C701.835 150.367 705.777 149.023 708.86 146.43C710.269 145.184 711.385 143.641 712.125 141.912C712.865 140.182 713.212 138.31 713.14 136.43V135.1H696.88C694.401 134.96 691.944 135.63 689.88 137.01C689.045 137.626 688.375 138.439 687.929 139.375C687.482 140.312 687.273 141.344 687.32 142.38C687.295 143.461 687.525 144.533 687.99 145.51C688.456 146.486 689.144 147.339 690 148C691.78 149.45 694.37 150.17 697.78 150.17L697.81 150.2Z" fill="#1F1D1D"/>
<path d="M75.7802 32.49L94.8902 16H275.1L282.58 43.29L165.18 146.48L159.18 73.2H63.1102C61.2029 65.9084 61.3792 58.2281 63.6189 51.0317C65.8586 43.8353 70.0719 37.4114 75.7802 32.49Z" fill="#5960B2"/>
<path d="M224.3 203.64L205.18 220.13H25L17.5 192.84L134.9 89.6499L140.9 162.93H237C238.903 170.224 238.721 177.906 236.476 185.102C234.231 192.299 230.013 198.721 224.3 203.64Z" fill="#5CA380"/>
<path d="M611 163V74H626V150H663V163H611Z" fill="#1F1D1D"/>
<path fill-rule="evenodd" clip-rule="evenodd" d="M747 74V163H760.5V155.5C763.333 159.667 772.7 166.8 787.5 162C802.3 157.2 805 136 804.5 126C803.833 118.167 798.6 101.7 783 98.5C778.167 97.8333 766.9 98.2 760.5 105V74H747ZM776 153C784.837 153 792 143.15 792 131C792 118.85 784.837 109 776 109C767.163 109 760 118.85 760 131C760 143.15 767.163 153 776 153Z" fill="#1F1D1D"/>
</svg>
